<?xml version="1.0" standalone="no"?>
<!DOCTYPE svg PUBLIC "-//W3C//DTD SVG 20010904//EN"
 "http://www.w3.org/TR/2001/REC-SVG-20010904/DTD/svg10.dtd">
<svg version="1.0" xmlns="http://www.w3.org/2000/svg"
 width="500.000000pt" height="500.000000pt" viewBox="0 0 500.000000 500.000000"
 preserveAspectRatio="xMidYMid meet">

<g transform="translate(0.000000,500.000000) scale(0.100000,-0.100000)"
fill="#000000" stroke="none">
<path d="M2305 4339 c-91 -12 -291 -62 -430 -107 -93 -30 -129 -49 -235 -120
-69 -47 -156 -109 -195 -138 -177 -133 -380 -370 -471 -549 -64 -125 -61 -126
18 -5 72 109 244 299 345 380 99 80 149 112 303 193 104 54 153 73 295 111
272 73 350 85 547 87 317 3 616 -67 883 -205 164 -86 208 -112 306 -185 l73
-54 -31 39 c-117 145 -299 284 -513 393 -140 72 -203 93 -390 132 -162 33
-379 45 -505 28z"/>
<path d="M2350 4093 c-14 -2 -72 -11 -130 -19 -138 -22 -268 -63 -416 -134
-135 -64 -214 -114 -324 -206 -260 -217 -428 -476 -525 -811 -30 -101 -55
-299 -55 -425 0 -276 101 -619 248 -836 42 -63 92 -131 110 -151 26 -28 29
-29 12 -6 -76 107 -176 268 -193 310 -144 370 -178 619 -127 930 19 117 63
272 94 333 l12 24 30 -39 c16 -21 45 -56 66 -77 20 -22 49 -64 64 -94 l28 -56
1 -240 c0 -272 5 -299 61 -304 21 -2 36 4 49 18 18 19 20 42 23 253 2 128 8
248 14 267 6 19 42 98 81 174 65 128 69 140 53 152 -35 25 -103 -25 -172 -126
-26 -38 -51 -70 -54 -70 -7 0 -28 29 -83 117 -18 29 -42 49 -81 68 -63 31 -63
20 2 130 60 101 172 246 247 321 221 218 521 375 820 430 135 26 429 26 565 1
206 -38 446 -140 620 -264 109 -77 263 -226 338 -327 55 -74 64 -93 33 -76
-28 15 -29 14 -37 -25 -7 -41 2 -88 18 -83 6 2 21 23 33 46 l23 43 20 -33 c44
-72 92 -174 92 -197 0 -13 7 -29 15 -35 16 -12 65 -144 65 -175 0 -11 -7 -27
-16 -35 -8 -9 -12 -16 -8 -16 3 0 1 -7 -6 -15 -13 -16 -7 -20 35 -27 16 -3 22
-16 32 -68 20 -107 18 -118 -19 -125 -18 -4 -42 -13 -53 -21 -17 -13 -18 -16
-5 -24 8 -5 34 -12 58 -16 42 -6 42 -6 42 -49 0 -23 -3 -70 -6 -104 l-7 -61
-98 5 c-57 3 -100 1 -104 -5 -9 -14 64 -58 120 -71 28 -6 55 -13 62 -15 8 -2
10 -16 6 -41 -9 -57 -68 -262 -96 -331 -37 -89 -128 -248 -195 -338 -56 -74
-207 -228 -297 -303 -37 -31 -38 -32 -7 -15 49 28 242 213 313 301 144 178
273 458 314 686 4 20 11 39 15 42 5 3 9 68 9 146 1 77 4 145 7 150 3 5 14 9
25 9 14 0 19 7 19 28 0 36 -14 56 -34 49 -16 -6 -17 -5 -35 118 -8 53 -7 62
11 81 18 21 19 24 4 52 -9 17 -23 32 -31 34 -10 2 -27 35 -44 86 l-28 83 36
19 c20 10 46 28 59 40 13 12 25 20 26 19 14 -17 50 -161 71 -282 19 -111 25
-184 25 -290 0 -318 -57 -569 -193 -851 -88 -180 -173 -296 -372 -505 -147
-154 -456 -337 -677 -401 -58 -17 -122 -37 -142 -45 -19 -8 -113 -22 -208 -31
-159 -15 -248 -15 -398 1 -31 3 -23 0 25 -11 48 -10 151 -17 327 -21 277 -6
315 -2 505 53 105 29 410 178 540 263 152 99 380 347 485 527 102 175 182 398
218 609 l17 100 39 6 c65 10 88 24 172 106 67 64 89 94 126 170 78 157 82 223
21 344 -47 93 -161 197 -251 229 -105 37 -125 21 -139 -115 -15 -148 -21 -158
-44 -76 -20 70 -99 250 -143 326 -51 89 -130 207 -134 202 -2 -1 21 -52 51
-112 57 -114 67 -149 39 -138 -10 4 -31 -9 -59 -37 -48 -47 -43 -49 -88 45
-65 138 -235 356 -365 468 -199 173 -478 313 -717 361 -154 30 -380 44 -475
29z m2123 -1112 c51 -68 83 -167 75 -229 -8 -53 -69 -179 -110 -227 l-35 -39
4 264 c4 252 6 290 17 290 2 0 24 -27 49 -59z"/>
<path d="M3433 3403 c-13 -8 -23 -19 -23 -23 0 -15 78 -102 109 -121 l31 -19
0 23 c0 32 -62 151 -80 154 -8 1 -25 -5 -37 -14z"/>
<path d="M1295 3360 c-25 -10 -77 -113 -73 -143 7 -52 95 -10 124 60 31 72 9
108 -51 83z"/>
<path d="M3202 3200 c-21 -35 -13 -48 62 -98 159 -106 200 -70 60 52 -80 70
-102 78 -122 46z"/>
<path d="M651 3154 c-45 -32 -102 -194 -130 -371 -5 -34 -16 -74 -24 -89 -13
-25 -15 -26 -20 -8 -4 10 -13 87 -21 169 -16 159 -33 225 -68 262 -27 29 -94
51 -109 36 -16 -16 30 -389 88 -728 23 -133 24 -135 77 -135 25 0 56 4 70 10
34 13 43 48 86 330 12 74 27 160 35 190 12 47 25 156 26 224 0 24 15 54 41 83
36 38 -4 59 -51 27z"/>
<path d="M3505 3116 c-13 -30 -36 -113 -51 -183 -22 -107 -26 -155 -26 -293 0
-145 2 -172 21 -220 36 -93 82 -132 156 -132 150 0 247 59 278 169 43 154 50
257 28 398 -15 100 -25 132 -56 188 -54 97 -82 113 -218 122 l-107 7 -25 -56z
m183 -57 c55 -54 75 -125 79 -284 4 -113 0 -160 -16 -244 -23 -117 -41 -154
-74 -149 -76 11 -109 265 -71 553 15 114 26 155 42 155 5 0 22 -14 40 -31z"/>
<path d="M1971 3147 c-30 -15 -57 -84 -83 -212 -26 -126 -31 -417 -9 -480 31
-90 107 -161 176 -165 101 -7 124 -1 169 40 48 45 76 110 76 180 0 45 -19 61
-46 39 -19 -16 -58 -93 -68 -134 -4 -16 -12 -36 -18 -42 -29 -35 -89 6 -113
76 -30 91 -27 422 5 575 18 87 45 95 75 23 36 -91 38 -92 80 -92 l40 0 -2 53
c-3 66 -30 107 -87 133 -48 22 -158 25 -195 6z"/>
<path d="M2678 3154 c-5 -4 -8 -48 -8 -98 0 -50 -8 -179 -16 -286 -9 -107 -18
-248 -21 -312 -5 -115 -4 -118 20 -142 22 -22 29 -24 58 -16 18 6 38 15 45 22
6 7 18 89 27 182 8 92 20 173 26 179 6 6 35 12 66 15 55 4 55 4 56 -24 0 -29
15 -178 23 -244 14 -110 31 -140 77 -140 22 0 32 8 46 33 15 28 17 73 17 410
l1 379 -24 19 c-15 12 -39 19 -66 19 -53 0 -53 1 -61 -215 -7 -182 -8 -185
-86 -185 l-48 0 -1 123 c0 141 -11 253 -25 267 -13 13 -97 24 -106 14z"/>
<path d="M3214 2877 c-3 -9 -4 -26 -2 -39 3 -20 9 -23 48 -24 74 -2 101 22 58
50 -37 24 -97 31 -104 13z"/>
<path d="M725 2729 c-4 -11 -13 -57 -21 -102 -46 -274 -44 -360 15 -597 47
-186 78 -266 161 -409 62 -108 192 -286 218 -300 9 -5 69 -53 132 -106 141
-118 247 -189 363 -243 48 -22 87 -39 87 -37 0 2 -17 14 -37 26 -136 82 -407
339 -453 429 -7 14 -46 75 -87 137 -85 127 -188 346 -226 478 -64 223 -130
553 -127 635 3 83 1 110 -9 110 -5 0 -13 -9 -16 -21z"/>
<path d="M3330 2678 c-14 -5 -49 -16 -79 -24 -74 -20 -82 -27 -68 -64 13 -36
20 -36 91 -10 65 25 106 62 99 90 -6 22 -8 23 -43 8z"/>
<path d="M3317 2352 c-32 -33 -33 -43 -9 -66 18 -15 20 -15 35 2 17 19 24 92
9 92 -5 0 -20 -13 -35 -28z"/>
<path d="M3494 2249 c-33 -41 -58 -137 -47 -178 5 -18 12 -22 41 -19 l36 3 1
76 c2 86 -13 141 -31 118z"/>
<path d="M3665 2240 c-7 -11 -1 -37 32 -147 13 -45 28 -85 32 -87 12 -8 71 17
71 28 0 28 -54 146 -81 179 -31 38 -43 44 -54 27z"/>
<path d="M1700 2121 l0 -39 -41 5 c-34 5 -44 2 -70 -22 -26 -26 -29 -35 -29
-90 0 -56 3 -64 33 -93 36 -35 58 -40 77 -17 16 20 30 19 30 -1 0 -9 6 -14 13
-12 9 4 13 46 15 156 2 131 0 152 -13 152 -11 0 -15 -11 -15 -39z m-18 -78
c27 -24 25 -100 -4 -130 -43 -46 -88 -17 -88 56 0 78 46 115 92 74z"/>
<path d="M1900 2145 c0 -8 7 -15 15 -15 8 0 15 7 15 15 0 8 -7 15 -15 15 -8 0
-15 -7 -15 -15z"/>
<path d="M2450 2145 c0 -8 7 -15 15 -15 8 0 15 7 15 15 0 8 -7 15 -15 15 -8 0
-15 -7 -15 -15z"/>
<path d="M3237 2153 c-12 -11 -8 -21 13 -26 19 -5 20 -14 20 -120 0 -108 -1
-115 -21 -120 -37 -10 -15 -32 34 -35 42 -3 47 -1 47 17 0 12 -7 21 -15 21
-13 0 -15 22 -15 135 l0 135 -28 0 c-16 0 -32 -3 -35 -7z"/>
<path d="M2690 2110 c-6 -11 -17 -20 -25 -20 -22 0 -18 -27 5 -33 18 -5 20
-14 20 -85 0 -75 2 -82 26 -101 34 -26 37 -26 71 3 22 20 25 27 16 37 -10 10
-17 9 -33 -6 -34 -31 -50 -5 -50 81 l0 74 35 0 c24 0 35 5 35 15 0 10 -11 15
-35 15 -24 0 -35 5 -35 14 0 24 -18 28 -30 6z"/>
<path d="M1870 2075 c0 -8 7 -15 15 -15 12 0 15 -16 15 -85 0 -71 -3 -85 -16
-85 -9 0 -14 -7 -12 -17 3 -14 13 -18 48 -18 35 0 45 4 48 18 2 12 -3 17 -17
17 -20 0 -21 5 -21 100 l0 100 -30 0 c-20 0 -30 -5 -30 -15z"/>
<path d="M2137 2062 c-30 -32 -36 -82 -12 -102 14 -11 14 -15 -2 -32 -14 -16
-15 -23 -5 -39 10 -15 10 -23 0 -38 -35 -57 103 -89 153 -35 l24 26 -30 21
c-16 12 -47 24 -70 27 -47 6 -53 24 -10 28 33 4 95 57 95 82 0 8 -7 25 -15 37
-13 19 -13 22 0 27 34 13 12 26 -43 26 -51 0 -62 -4 -85 -28z m80 -24 c25 -24
29 -48 11 -66 -17 -17 -48 -15 -70 5 -22 20 -23 41 -1 65 21 23 32 23 60 -4z
m26 -203 c-4 -15 -86 -12 -91 3 -3 10 8 12 44 10 27 -2 48 -7 47 -13z"/>
<path d="M2420 2076 c0 -8 7 -16 15 -20 12 -4 15 -24 15 -86 0 -64 -3 -80 -15
-80 -8 0 -15 -9 -15 -20 0 -17 7 -20 45 -20 38 0 45 3 45 20 0 11 -7 20 -15
20 -12 0 -15 18 -15 100 l0 100 -30 0 c-19 0 -30 -5 -30 -14z"/>
<path d="M2953 2062 c-29 -35 -13 -55 20 -24 28 27 49 28 70 4 27 -29 20 -42
-20 -42 -43 0 -93 -41 -93 -76 0 -23 51 -74 74 -74 7 0 21 6 31 14 17 12 21
12 31 -2 22 -30 34 -2 34 83 0 75 -3 86 -26 114 -35 42 -89 43 -121 3z m107
-113 c0 -21 -35 -58 -56 -59 -6 0 -19 9 -29 20 -17 19 -17 21 0 40 11 12 31
20 52 20 27 0 33 -4 33 -21z"/>
<path d="M1345 1410 c27 -27 51 -50 54 -50 3 0 -17 23 -44 50 -27 28 -51 50
-54 50 -3 0 17 -22 44 -50z"/>
<path d="M1440 1326 c0 -2 8 -10 18 -17 15 -13 16 -12 3 4 -13 16 -21 21 -21
13z"/>
<path d="M3254 1124 c-18 -14 -18 -15 4 -4 12 6 22 13 22 15 0 8 -5 6 -26 -11z"/>
</g>
</svg>
