<?xml version="1.0" encoding="UTF-8"?>
<svg version="1.1" xmlns="http://www.w3.org/2000/svg" width="448" height="418">
<path d="M0 0 C0.33 0.33 0.66 0.66 1 1 C3.10862912 1.45328148 5.22846514 1.85458758 7.3515625 2.234375 C8.68420308 2.47769082 10.01671811 2.72169506 11.34912109 2.96630859 C12.39746124 3.15758331 12.39746124 3.15758331 13.46697998 3.35272217 C36.42913676 7.57990995 36.42913676 7.57990995 47 12 C47.65500488 12.26474121 48.31000977 12.52948242 48.98486328 12.80224609 C63.90425853 18.91550881 77.20900733 27.93112662 88 40 C86.76921451 44.92314194 85.31259775 47.26518192 81 50 C80.01 50 79.02 50 78 50 C77.896875 50.928125 77.79375 51.85625 77.6875 52.8125 C76.97173306 56.13105584 76.66016481 57.04841182 74 59 C69.37537678 59.06928274 65.68239461 57.52268523 62.0625 54.75 C60 52 60 52 59.359375 49.046875 C58.22047093 45.67971285 58.22047093 45.67971285 54.60546875 44.09375 C53.1427803 43.53564114 51.66895277 43.00620222 50.1875 42.5 C49.38489746 42.21084717 48.58229492 41.92169434 47.75537109 41.6237793 C45.18041957 40.71557151 42.59374578 39.85291809 40 39 C39.19030762 38.72623535 38.38061523 38.4524707 37.54638672 38.17041016 C-1.60968037 25.13940978 -44.57516409 24.48682374 -82.3125 42.3125 C-83.89129648 43.17929022 -85.45195641 44.0794107 -87 45 C-87.56960449 45.32806641 -88.13920898 45.65613281 -88.72607422 45.99414062 C-98.5110863 51.65927816 -107.12714903 58.08612232 -115.50927734 65.66064453 C-117.57832723 67.51960419 -119.69781294 69.31831354 -121.8125 71.125 C-124.30127051 73.25204549 -124.30127051 73.25204549 -126 76 C-126.66 76 -127.32 76 -128 76 C-128.26425781 76.71800781 -128.52851563 77.43601562 -128.80078125 78.17578125 C-130.03108473 81.07320607 -131.48144918 83.54448762 -133.1875 86.1875 C-133.80882812 87.15429688 -134.43015625 88.12109375 -135.0703125 89.1171875 C-136.82967956 91.74555368 -138.67741861 94.27392373 -140.5625 96.8125 C-144.75123846 102.78308489 -147.44622584 109.20039971 -150 116 C-150.44158447 117.15918945 -150.44158447 117.15918945 -150.89208984 118.34179688 C-161.40105887 146.37305422 -164.11020271 177.36823741 -154 206 C-153.78214844 206.63969727 -153.56429687 207.27939453 -153.33984375 207.93847656 C-147.65863867 224.32722236 -139.29027534 239.83374903 -128 253 C-127.56042969 253.51643066 -127.12085937 254.03286133 -126.66796875 254.56494141 C-120.41303778 261.85409908 -113.67366181 268.1962185 -106 274 C-105.47035645 274.40992188 -104.94071289 274.81984375 -104.39501953 275.2421875 C-84.46495736 290.60433761 -60.76266478 297.83503773 -36 301 C-34.54207031 301.19529297 -34.54207031 301.19529297 -33.0546875 301.39453125 C-1.8614628 305.06144638 33.92361827 295.16584241 58.875 276.125 C74.23367559 263.63637995 91.50027589 249.16143582 100 231 C100.3201709 230.32130859 100.6403418 229.64261719 100.97021484 228.94335938 C106.39074501 217.28400992 110.18363797 205.5289904 113 193 C113.16371094 192.30277832 113.32742188 191.60555664 113.49609375 190.88720703 C120.86491443 159.09013678 112.9815733 123.95649864 97 96 C94.16858351 90.92142756 92.4856656 86.8279872 92 81 C93.485 80.505 93.485 80.505 95 80 C96.20882096 77.99983534 96.20882096 77.99983534 97 76 C97.99 76 98.98 76 100 76 C100.33 74.68 100.66 73.36 101 72 C101.66 72 102.32 72 103 72 C103.103125 71.38125 103.20625 70.7625 103.3125 70.125 C104 68 104 68 107 66 C109.47265625 65.66015625 109.47265625 65.66015625 112 66 C117.45397032 70.3231255 121.37593639 77.13204443 125 83 C125.61746094 83.98355469 126.23492187 84.96710938 126.87109375 85.98046875 C146.37301502 118.40763998 152.19690235 156.86972951 146 194 C145.87641113 194.79728516 145.75282227 195.59457031 145.62548828 196.41601562 C142.51176099 216.26838601 135.96574174 233.31828952 126.19921875 250.82666016 C125.08766686 252.84112167 124.02167319 254.87242425 122.96875 256.91796875 C119.07358465 264.33265883 114.63566833 269.86547535 108.58984375 275.5546875 C106.40071542 277.62164728 104.43856423 279.70347547 102.5 282 C75.60497352 312.97955153 33.28378527 332.73161125 -7.58984375 335.8359375 C-22.18694664 336.53820362 -36.1164584 335.86738803 -50.52929688 333.41455078 C-52.89634939 333.01739118 -55.26612479 332.65805426 -57.640625 332.30859375 C-66.59063075 330.94216556 -74.70351047 328.69913328 -83 325 C-83.63341309 324.72559082 -84.26682617 324.45118164 -84.91943359 324.16845703 C-107.66973423 314.26821795 -130.93391523 300.22361052 -148 282 C-148 281.34 -148 280.68 -148 280 C-148.66 280 -149.32 280 -150 280 C-151.81847132 277.93424071 -153.51294459 275.86579714 -155.1875 273.6875 C-155.68435303 273.0466748 -156.18120605 272.40584961 -156.69311523 271.74560547 C-160.10888794 267.28783611 -163.27449302 262.74189186 -166.1953125 257.94140625 C-167.54480062 255.74191588 -168.92654323 253.60296092 -170.3671875 251.46484375 C-192.8856818 217.5963716 -197.80075411 175.48780489 -191 136 C-186.44195152 113.77893387 -178.05482017 92.82106693 -164.30908203 74.77294922 C-162.42677277 72.22365234 -160.69258101 69.58262892 -158.94091797 66.94262695 C-148.61334855 51.45127282 -135.69123983 38.14359734 -120 28 C-119.02546875 27.36449219 -118.0509375 26.72898437 -117.046875 26.07421875 C-84.02835088 5.13266712 -39.14240238 -9.69712319 0 0 Z M96 81 C96 82.65 96 84.3 96 86 C96.66 86 97.32 86 98 86 C98 87.65 98 89.3 98 91 C98.99 91 99.98 91 101 91 C101.99 91 102.98 91 104 91 C102.80086322 86.60316512 101.5711885 83.90159066 98 81 C97.34 81 96.68 81 96 81 Z M108 100 C109 102 109 102 109 102 Z " fill="#030303" transform="translate(230,63)"/>
<path d="M0 0 C1.03096163 0.96804862 2.04101335 1.96060373 3 3 C2.1875 4.9375 2.1875 4.9375 1 7 C0.01 7.33 -0.98 7.66 -2 8 C-2 8.66 -2 9.32 -2 10 C-3.1446875 10.2165625 -3.1446875 10.2165625 -4.3125 10.4375 C-7.53342934 12.31013334 -7.60000134 13.10929595 -8.625 16.5625 C-8.82351562 17.36816406 -9.02203125 18.17382812 -9.2265625 19.00390625 C-9.48179687 19.66261719 -9.73703125 20.32132813 -10 21 C-13 22 -13 22 -15.06201172 21.24316406 C-15.84334473 20.83807617 -16.62467773 20.43298828 -17.4296875 20.015625 C-18.30077148 19.57589355 -19.17185547 19.13616211 -20.06933594 18.68310547 C-20.99520508 18.21018066 -21.92107422 17.73725586 -22.875 17.25 C-42.52105671 7.61990617 -59.53183755 6.62270464 -80.2265625 13.29296875 C-85.89480833 15.24978422 -91.03700088 17.61458651 -96 21 C-97.15628906 21.78310547 -97.15628906 21.78310547 -98.3359375 22.58203125 C-110.97161647 31.78925808 -117.78714498 43.5468519 -123.8125 57.625 C-124.11494629 58.31730713 -124.41739258 59.00961426 -124.72900391 59.72290039 C-131.21188413 75.42542339 -128.29244615 94.7013843 -122 110 C-118.58384993 116.98287425 -113.88428364 122.98943178 -109 129 C-108.37996094 129.81984375 -107.75992188 130.6396875 -107.12109375 131.484375 C-96.57901258 143.9873221 -78.93047841 150.62878249 -63.00585938 152.19628906 C-42.1326377 153.72853387 -22.28907534 147.70676386 -6.44946289 134.04638672 C-4.94844873 132.7174952 -3.47377476 131.35903794 -2 130 C-1.14535156 129.24589844 -0.29070312 128.49179687 0.58984375 127.71484375 C3.74357308 124.16242579 5.62961552 120.41104815 7.625 116.125 C8.21474609 114.86514282 8.21474609 114.86514282 8.81640625 113.57983398 C15.96591154 97.70558518 18.05261845 78.17097876 15 61 C14.34 61 13.68 61 13 61 C12.1875 58.375 12.1875 58.375 12 55 C13.62373341 52.68038084 15.02152135 50.94568619 17 49 C17.763125 48.21625 18.52625 47.4325 19.3125 46.625 C19.869375 46.08875 20.42625 45.5525 21 45 C20.34 45 19.68 45 19 45 C19 44.01 19 43.02 19 42 C16.03 42.495 16.03 42.495 13 43 C13 40 13 40 14.390625 38.53515625 C15.31101562 37.80619141 15.31101562 37.80619141 16.25 37.0625 C18.99173002 34.83241128 21.54642324 32.55171984 24 30 C35.64520786 40.61768952 40.72313114 54.9951318 41.63378906 70.44506836 C41.67213867 71.3088208 41.71048828 72.17257324 41.75 73.0625 C41.79092773 73.97717041 41.83185547 74.89184082 41.87402344 75.83422852 C42.15420788 84.11194568 41.43117933 91.84400212 40 100 C39.82726562 101.17820312 39.65453125 102.35640625 39.4765625 103.5703125 C37.078295 117.49272252 30.07983791 128.42121352 21 139 C20.28972656 139.91523438 19.57945312 140.83046875 18.84765625 141.7734375 C2.72913545 162.45273484 -20.58584047 172.40385536 -46.02392578 175.69042969 C-48.01696093 175.96811689 -48.01696093 175.96811689 -49.99243164 176.52563477 C-56.67147339 178.10381525 -63.60730791 176.76785956 -70.1875 175.3125 C-71.01338623 175.13243408 -71.83927246 174.95236816 -72.69018555 174.7668457 C-90.24672188 170.78623054 -106.08982371 163.50868503 -120 152 C-121.02222656 151.16597656 -122.04445312 150.33195313 -123.09765625 149.47265625 C-136.15659875 138.4251525 -146.19266943 122.0330682 -149 105 C-149.17023171 101.76322846 -149.10223928 98.55092935 -149 95.3125 C-148.8338837 89.97601383 -148.73510934 85.93763519 -151 81 C-153.40446774 62.07652662 -144.34074325 39.84126865 -133 25 C-130.12359697 21.53908727 -127.11039787 18.25075878 -124 15 C-123.47148437 14.40832031 -122.94296875 13.81664062 -122.3984375 13.20703125 C-91.4329789 -20.21978432 -37.85580977 -23.0845806 0 0 Z " fill="#030202" transform="translate(264,147)"/>
<path d="M0 0 C1.28157699 3.84473096 1.34527504 7.59135069 1.53515625 11.60546875 C1.57813339 12.44467361 1.62111053 13.28387848 1.66539001 14.14851379 C1.80170293 16.82799402 1.93217138 19.50772268 2.0625 22.1875 C2.15391201 24.00457669 2.24570425 25.8216343 2.33789062 27.63867188 C2.56300582 32.09223849 2.78287996 36.54603674 3 41 C12.30572776 41.69860404 12.30572776 41.69860404 21.62109375 42.24609375 C22.88050781 42.30925781 24.13992188 42.37242188 25.4375 42.4375 C26.71496094 42.49808594 27.99242187 42.55867188 29.30859375 42.62109375 C33.18734533 43.01923016 36.33205201 43.70624843 40 45 C41.73384186 48.46768372 41.60128361 52.21664243 41 56 C38.73640849 58.45761364 36.60379183 59.67566587 33.6875 61.2421875 C30.43342634 63.3705787 27.86425884 65.96262772 25.1875 68.75 C21.19830226 72.8272622 17.15720585 76.72117558 12.80078125 80.41015625 C10.32102928 82.59943836 8.07523542 84.98933818 5.8359375 87.421875 C0.96024342 91.61289715 -3.65434142 92.38901863 -9.890625 92.1953125 C-11.42056589 92.1883396 -12.95051598 92.18318931 -14.48046875 92.1796875 C-16.8620412 92.15913561 -19.24083007 92.12525677 -21.62158203 92.05859375 C-33.140885 91.67296432 -33.140885 91.67296432 -42.8828125 97.2890625 C-44.30544516 98.81401102 -45.68255765 100.38330667 -47 102 C-47.6482373 102.75708252 -48.29647461 103.51416504 -48.96435547 104.29418945 C-50.08311417 105.61179838 -51.19911098 106.93175679 -52.3125 108.25390625 C-54.0045 110.00465625 -55.50445032 111.01677986 -57.625 112.1875 C-62.7612836 115.07918723 -66.57799215 119.40125662 -70.60791016 123.6315918 C-72.03874817 125.12035588 -73.51593797 126.5642856 -75 128 C-75.66 128 -76.32 128 -77 128 C-77 128.66 -77 129.32 -77 130 C-78.64453125 131.62109375 -78.64453125 131.62109375 -80.8125 133.4375 C-83.82463265 135.97339332 -83.82463265 135.97339332 -86.63671875 138.72265625 C-88 140 -88 140 -90 140 C-90 140.66 -90 141.32 -90 142 C-91.3984375 143.41015625 -91.3984375 143.41015625 -93.375 145.0625 C-94.47908203 146.00416016 -94.47908203 146.00416016 -95.60546875 146.96484375 C-96.79076172 147.97224609 -96.79076172 147.97224609 -98 149 C-107.77047496 157.50976852 -117.37336225 166.44000022 -125.6171875 176.4609375 C-127.85771393 178.95463076 -130.41744652 181.05980118 -132.97265625 183.22265625 C-135.65604502 185.57514544 -138.10483373 188.12255663 -140.5546875 190.71484375 C-142 192 -142 192 -144 192 C-144 192.66 -144 193.32 -144 194 C-144.66 194 -145.32 194 -146 194 C-146 194.66 -146 195.32 -146 196 C-147.57421875 197.55078125 -147.57421875 197.55078125 -149.6875 199.3125 C-152.95300964 202.08499308 -156.01915985 204.92600859 -159 208 C-158.690625 208.763125 -158.38125 209.52625 -158.0625 210.3125 C-155.15285504 217.67219019 -155.48882276 223.22946384 -158.609375 230.4375 C-162.54021799 237.68085112 -168.10536012 243.35269561 -176 246 C-187.01859499 248.65095493 -197.20521089 247.13595859 -206.875 241.25 C-213.51102098 234.22362485 -215.37531849 227.51581135 -215.28515625 217.984375 C-214.62593249 211.08510172 -212.0985821 203.82298306 -207 199 C-199.95780591 193.26900941 -192.4110943 190 -183.25 190 C-179.04657547 191.29336139 -176.43451257 193.26640836 -173 196 C-168.83904554 193.06285567 -166.19317634 189.74633413 -163.33203125 185.609375 C-162.89246094 185.07828125 -162.45289063 184.5471875 -162 184 C-161.34 184 -160.68 184 -160 184 C-159.74927734 183.42475586 -159.49855469 182.84951172 -159.24023438 182.25683594 C-157.83271173 179.69558804 -156.21829975 177.95942608 -154.15625 175.890625 C-153.40472656 175.13652344 -152.65320313 174.38242188 -151.87890625 173.60546875 C-151.09386719 172.82816406 -150.30882812 172.05085937 -149.5 171.25 C-148.71496094 170.45722656 -147.92992187 169.66445312 -147.12109375 168.84765625 C-146.36957031 168.09871094 -145.61804688 167.34976563 -144.84375 166.578125 C-144.15474609 165.89137695 -143.46574219 165.20462891 -142.75585938 164.49707031 C-141 163 -141 163 -139 163 C-139 162.34 -139 161.68 -139 161 C-134.52941176 157 -134.52941176 157 -132 157 C-132 156.34 -132 155.68 -132 155 C-131.34 155 -130.68 155 -130 155 C-129.78472656 154.44570312 -129.56945312 153.89140625 -129.34765625 153.3203125 C-127.56068751 150.2436185 -125.0906069 148.18078363 -122.4375 145.875 C-118.70884376 142.54745845 -115.16451855 139.21096363 -111.875 135.4375 C-107.42785045 130.36203758 -102.70489146 125.58713968 -97.9375 120.8125 C-97.18130371 120.05187256 -96.42510742 119.29124512 -95.64599609 118.50756836 C-91.48613604 114.35811927 -87.23111042 110.39523266 -82.77954102 106.5612793 C-80.40727018 104.47996883 -78.20097823 102.26046413 -76 100 C-73.06338382 97.02751675 -70.1103592 94.15619248 -66.9375 91.4375 C-63.89157624 88.81427586 -60.95048702 86.10938332 -58.0625 83.3125 C-57.31097656 82.58675781 -56.55945313 81.86101562 -55.78515625 81.11328125 C-52.81753674 77.6001912 -52.88566323 74.33602446 -53.0078125 69.859375 C-53.02457031 68.87066406 -53.04132813 67.88195312 -53.05859375 66.86328125 C-53.10253535 64.80319566 -53.15449672 62.74326405 -53.21484375 60.68359375 C-53.34808697 51.34445519 -51.25147289 44.11430639 -45 37 C-42.43438114 34.54319087 -39.71857926 32.28456047 -37 30 C-34.53664646 27.81080707 -32.09238066 25.60145358 -29.6484375 23.390625 C-27.82763049 21.74706469 -25.99904157 20.11209748 -24.1640625 18.484375 C-19.28030727 14.12244567 -14.67983966 9.76890844 -10.53515625 4.69140625 C-7.21705416 1.03558384 -4.99796198 -0.41649683 0 0 Z M-19 32 C-19.825 32.94875 -20.65 33.8975 -21.5 34.875 C-21.9640625 35.40867188 -22.428125 35.94234375 -22.90625 36.4921875 C-24.19572458 37.95936421 -24.19572458 37.95936421 -24 40 C-24.66 40 -25.32 40 -26 40 C-27.76491451 41.98254755 -29.38866845 43.96086327 -31 46.0625 C-31.45117188 46.62388672 -31.90234375 47.18527344 -32.3671875 47.76367188 C-35.42861546 51.72631901 -36.90414178 55.11222329 -38 60 C-36.19566625 60.81422919 -36.19566625 60.81422919 -34 61 C-32.09479061 59.62950957 -32.09479061 59.62950957 -30.375 57.5625 C-27.3088305 54.2244249 -24.22264048 51.70342945 -20.5 49.125 C-16.96107048 46.38548126 -16.96107048 46.38548126 -15.26171875 42.37890625 C-15.10705503 37.38159022 -15.10705503 37.38159022 -17.55078125 33.20703125 C-18.02902344 32.80871094 -18.50726563 32.41039062 -19 32 Z M-8.875 60.6875 C-10.81200898 63.688561 -12.44881174 66.78467288 -14 70 C-14.66 70 -15.32 70 -16 70 C-18.29648649 72.5614657 -19 73.47967572 -19 77 C-17.47819196 76.91120235 -15.95751235 76.80303 -14.4375 76.6875 C-13.59058594 76.62949219 -12.74367188 76.57148437 -11.87109375 76.51171875 C-4.04697476 75.11721591 0.40556864 71.2249981 5.9375 65.8125 C6.62134766 65.15830078 7.30519531 64.50410156 8.00976562 63.83007812 C9.68158686 62.22840324 11.34447622 60.61848603 13 59 C12.67 58.34 12.34 57.68 12 57 C4.05934615 55.16682196 -3.34611154 53.70202125 -8.875 60.6875 Z " fill="#8B020A" transform="translate(396,9)"/>
<path d="M0 0 C1.28157699 3.84473096 1.34527504 7.59135069 1.53515625 11.60546875 C1.57813339 12.44467361 1.62111053 13.28387848 1.66539001 14.14851379 C1.80170293 16.82799402 1.93217138 19.50772268 2.0625 22.1875 C2.15391201 24.00457669 2.24570425 25.8216343 2.33789062 27.63867188 C2.56300582 32.09223849 2.78287996 36.54603674 3 41 C12.30572776 41.69860404 12.30572776 41.69860404 21.62109375 42.24609375 C22.88050781 42.30925781 24.13992188 42.37242188 25.4375 42.4375 C26.71496094 42.49808594 27.99242187 42.55867188 29.30859375 42.62109375 C33.18734533 43.01923016 36.33205201 43.70624843 40 45 C41.73384186 48.46768372 41.60128361 52.21664243 41 56 C38.73640849 58.45761364 36.60379183 59.67566587 33.6875 61.2421875 C30.43342634 63.3705787 27.86425884 65.96262772 25.1875 68.75 C21.19830226 72.8272622 17.15720585 76.72117558 12.80078125 80.41015625 C10.32102928 82.59943836 8.07523542 84.98933818 5.8359375 87.421875 C0.68398469 91.8503621 -4.18779736 92.45842392 -10.6796875 92.51171875 C-11.49245148 92.52966995 -12.30521545 92.54762115 -13.14260864 92.56611633 C-15.7200208 92.61998358 -18.2972503 92.65403836 -20.875 92.6875 C-22.63023362 92.72069399 -24.38544321 92.75518557 -26.140625 92.79101562 C-30.42695103 92.87569611 -34.71322512 92.94261897 -39 93 C-37.11333101 88.89557064 -34.36026534 86.02858296 -31.1875 82.875 C-30.66607422 82.33746094 -30.14464844 81.79992187 -29.60742188 81.24609375 C-26.60938578 78.24431479 -24.16196369 76.24628118 -20 75 C-19.67 75.33 -19.34 75.66 -19 76 C-16.86666043 76.01173567 -16.86666043 76.01173567 -14.375 75.75 C-13.53710938 75.68296875 -12.69921875 75.6159375 -11.8359375 75.546875 C-4.30389803 74.0944156 0.08231796 70.54301113 5.4375 65.3125 C6.39172852 64.40274414 6.39172852 64.40274414 7.36523438 63.47460938 C8.91832615 61.99158189 10.46033175 60.49695901 12 59 C8.90398498 58.1914682 5.93976152 57.73129382 2.75 57.4375 C1.85796875 57.35371094 0.9659375 57.26992187 0.046875 57.18359375 C-0.62859375 57.12300781 -1.3040625 57.06242187 -2 57 C-2 56.34 -2 55.68 -2 55 C-2.66 55 -3.32 55 -4 55 C-4 54.01 -4 53.02 -4 52 C-4.62648438 51.80664062 -5.25296875 51.61328125 -5.8984375 51.4140625 C-6.71570313 51.15367188 -7.53296875 50.89328125 -8.375 50.625 C-9.59316406 50.24214844 -9.59316406 50.24214844 -10.8359375 49.8515625 C-13 49 -13 49 -15 47 C-15.62804586 43.92955356 -16.01945562 40.85547256 -16.4375 37.75 C-16.76366676 34.86895888 -16.76366676 34.86895888 -19 33 C-19.33773437 33.5053125 -19.67546875 34.010625 -20.0234375 34.53125 C-20.69246094 35.50578125 -20.69246094 35.50578125 -21.375 36.5 C-21.81585938 37.1496875 -22.25671875 37.799375 -22.7109375 38.46875 C-23.13632812 38.9740625 -23.56171875 39.479375 -24 40 C-24.66 40 -25.32 40 -26 40 C-26.2578125 40.57105469 -26.515625 41.14210937 -26.78125 41.73046875 C-28.11338088 44.21113555 -29.69250912 46.156531 -31.5 48.3125 C-34.58622688 52.22172072 -36.22805871 55.07887425 -37 60 C-36.73500396 62.33308448 -36.73500396 62.33308448 -36 64 C-36.99 64.495 -36.99 64.495 -38 65 C-38.9765021 66.75770378 -39.95244471 68.51572975 -40.921875 70.27734375 C-42.29020279 72.4636936 -43.76286247 73.73228874 -46 75 C-46.66 75 -47.32 75 -48 75 C-48.2475 75.639375 -48.495 76.27875 -48.75 76.9375 C-50 79 -50 79 -52.125 79.75 C-52.74375 79.8325 -53.3625 79.915 -54 80 C-53.83483887 79.28303955 -53.66967773 78.5660791 -53.49951172 77.82739258 C-53.00701446 75.03970404 -52.93028985 72.58616154 -53.0078125 69.76171875 C-53.03294922 68.28348633 -53.03294922 68.28348633 -53.05859375 66.77539062 C-53.10261664 64.7283264 -53.15460961 62.68141698 -53.21484375 60.63476562 C-53.34837439 51.31796855 -51.23530393 44.09590577 -45 37 C-42.43438114 34.54319087 -39.71857926 32.28456047 -37 30 C-34.53664646 27.81080707 -32.09238066 25.60145358 -29.6484375 23.390625 C-27.82763049 21.74706469 -25.99904157 20.11209748 -24.1640625 18.484375 C-19.28030727 14.12244567 -14.67983966 9.76890844 -10.53515625 4.69140625 C-7.21705416 1.03558384 -4.99796198 -0.41649683 0 0 Z " fill="#E00E15" transform="translate(396,9)"/>
<path d="M0 0 C0 6.32118809 -0.56962324 10.3234912 -5 15 C-6.66666667 16.66666667 -8.33333333 18.33333333 -10 20 C-10.90461891 21.09698041 -11.80054081 22.20119231 -12.6875 23.3125 C-13.8321875 24.6428125 -13.8321875 24.6428125 -15 26 C-15.66 26 -16.32 26 -17 26 C-17.495 27.485 -17.495 27.485 -18 29 C-19.66666667 30.66666667 -21.33333333 32.33333333 -23 34 C-24.53507606 36.08219291 -26.02013487 38.18756718 -27.47265625 40.328125 C-29 42 -29 42 -33 43 C-32.01 46.3 -31.02 49.6 -30 53 C-32.64 53 -35.28 53 -38 53 C-38.0928125 54.1446875 -38.0928125 54.1446875 -38.1875 55.3125 C-39.28745772 58.95082167 -40.69519258 59.17180866 -44 61 C-46.02182132 62.81759695 -47.98975182 64.67752042 -49.9375 66.57421875 C-52.46832768 68.32374925 -53.98662359 68.27727248 -57 68 C-55.68 65.03 -54.36 62.06 -53 59 C-52.34 59 -51.68 59 -51 59 C-51 58.01 -51 57.02 -51 56 C-50.01 56 -49.02 56 -48 56 C-47.731875 55.443125 -47.46375 54.88625 -47.1875 54.3125 C-45.89877353 51.80287477 -44.47073522 49.40665764 -43 47 C-48.18108554 48.93020834 -51.23096393 50.81218214 -55 55 C-56.6875 56.8125 -56.6875 56.8125 -58 58 C-58.66 58 -59.32 58 -60 58 C-60 58.66 -60 59.32 -60 60 C-60.7425 60.61875 -60.7425 60.61875 -61.5 61.25 C-63.65847858 63.76822501 -63.21374961 65.79375585 -63 69 C-61.515 69.495 -61.515 69.495 -60 70 C-60 70.99 -60 71.98 -60 73 C-58.515 73.495 -58.515 73.495 -57 74 C-57 74.66 -57 75.32 -57 76 C-51.89397233 75.33572067 -48.0376431 74.8258792 -43.9375 71.5625 C-41.85144893 69.08754131 -41.85144893 69.08754131 -41 66 C-38.33916031 64.00603743 -35.38757675 62 -32 62 C-32 60.35 -32 58.7 -32 57 C-29.03 56.505 -29.03 56.505 -26 56 C-23.79353514 60.02919671 -22 63.36667184 -22 68 C-24.89913197 76.78480692 -30.34943345 82.26437262 -38.1875 86.875 C-47.52374712 90.60949885 -57.48861092 89.91467727 -66.66015625 86.125 C-72.67573504 83.23270169 -76.12665719 78.93455803 -79 73 C-81.43789958 63.44772681 -80.17985772 54.84032626 -76 46 C-71.94377962 39.23963271 -64.76242765 35.28787367 -57.375 33.0625 C-52.14739521 31.84660864 -47.81669937 31.30553588 -43.01953125 34.19140625 C-41.29938814 35.39653646 -39.6433202 36.69205127 -38 38 C-33.83904554 35.06285567 -31.19317634 31.74633413 -28.33203125 27.609375 C-27.89246094 27.07828125 -27.45289063 26.5471875 -27 26 C-26.34 26 -25.68 26 -25 26 C-24.74927734 25.42475586 -24.49855469 24.84951172 -24.24023438 24.25683594 C-22.83271173 21.69558804 -21.21829975 19.95942608 -19.15625 17.890625 C-18.40472656 17.13652344 -17.65320313 16.38242188 -16.87890625 15.60546875 C-15.70134766 14.43951172 -15.70134766 14.43951172 -14.5 13.25 C-13.71496094 12.45722656 -12.92992187 11.66445312 -12.12109375 10.84765625 C-11.36957031 10.09871094 -10.61804688 9.34976563 -9.84375 8.578125 C-9.15474609 7.89137695 -8.46574219 7.20462891 -7.75585938 6.49707031 C-6 5 -6 5 -4 5 C-4 4.34 -4 3.68 -4 3 C-2 1.375 -2 1.375 0 0 Z " fill="#060203" transform="translate(261,167)"/>
<path d="M0 0 C0.33 0 0.66 0 1 0 C1.12375 1.11375 1.2475 2.2275 1.375 3.375 C1.6465813 7.03103677 1.6465813 7.03103677 4 9 C5.96488831 9.88778692 5.96488831 9.88778692 8.125 10.625 C9.21167969 11.01558594 9.21167969 11.01558594 10.3203125 11.4140625 C10.87460937 11.60742188 11.42890625 11.80078125 12 12 C12 12.99 12 13.98 12 15 C12.99 15.495 12.99 15.495 14 16 C13.34 16 12.68 16 12 16 C11.62875 16.82757813 11.62875 16.82757813 11.25 17.671875 C9.75765526 20.45136707 7.96327477 22.7814707 6 25.25 C5.29875 26.14203125 4.5975 27.0340625 3.875 27.953125 C3.25625 28.62859375 2.6375 29.3040625 2 30 C1.34 30 0.68 30 0 30 C-0.28875 30.61875 -0.5775 31.2375 -0.875 31.875 C-2.28575799 34.53976509 -3.30567667 35.77184757 -6.19921875 36.72265625 C-10.17956427 38.53796027 -12.77623242 41.34030397 -15.8125 44.4375 C-16.40998047 45.02337891 -17.00746094 45.60925781 -17.62304688 46.21289062 C-18.46899414 47.06463867 -18.46899414 47.06463867 -19.33203125 47.93359375 C-20.10123901 48.7078772 -20.10123901 48.7078772 -20.88598633 49.49780273 C-22.29783383 51.08991661 -22.29783383 51.08991661 -22 54 C-23.50390625 55.578125 -23.50390625 55.578125 -25.5625 57.25 C-29.60604838 60.63512989 -33.31588595 64.23194411 -37 68 C-38.33333333 69.33333333 -39.66666667 70.66666667 -41 72 C-41.33 71.01 -41.66 70.02 -42 69 C-42.86625 69.020625 -43.7325 69.04125 -44.625 69.0625 C-48 69 -48 69 -51 68.25 C-55.12516279 67.90623643 -56.77165289 69.56080441 -60 72 C-60.99 72.33 -61.98 72.66 -63 73 C-63.495 74.485 -63.495 74.485 -64 76 C-65.56640625 77.578125 -65.56640625 77.578125 -67.5625 79.25 C-71.2177319 82.33883561 -74.7901511 85.50103337 -78.3359375 88.71484375 C-80 90 -80 90 -82 90 C-82.33 90.99 -82.66 91.98 -83 93 C-85.75119451 96.34073619 -87.69385411 97.52153935 -92 98 C-92.33 99.32 -92.66 100.64 -93 102 C-96.63 102.99 -100.26 103.98 -104 105 C-99.13891497 97.98127547 -93.35326136 92.07941092 -87.30566406 86.09985352 C-85.63027932 84.4427218 -83.963033 82.77773144 -82.296875 81.11132812 C-77.2168502 76.0486029 -72.10486005 71.09621313 -66.64990234 66.43383789 C-64.3136874 64.40356409 -62.15836796 62.21670222 -60 60 C-56.44003807 56.39649114 -52.79368513 53.00742969 -48.9375 49.7265625 C-46.80673494 47.8277759 -44.85120014 45.80854182 -42.875 43.75 C-39.80541471 40.62034454 -36.98980567 38.86190931 -33 37 C-30.35412766 34.60414714 -30.35412766 34.60414714 -28 32 C-27.278125 31.319375 -26.55625 30.63875 -25.8125 29.9375 C-24.03731447 28.03988788 -23.0178615 26.37501016 -22 24 C-21.34 24 -20.68 24 -20 24 C-20.495 22.515 -20.495 22.515 -21 21 C-19.98486328 20.46439453 -19.98486328 20.46439453 -18.94921875 19.91796875 C-14.43366211 16.98136172 -10.77306969 13.2047011 -6.90820312 9.47460938 C-6.30556641 8.90162109 -5.70292969 8.32863281 -5.08203125 7.73828125 C-4.53780518 7.21274658 -3.9935791 6.68721191 -3.43286133 6.14575195 C-2 5 -2 5 0 5 C0 3.35 0 1.7 0 0 Z " fill="#100402" transform="translate(380,49)"/>
<path d="M0 0 C0.495 1.485 0.495 1.485 1 3 C1.33 3 1.66 3 2 3 C3.33568021 3.32380126 4.66923011 3.65657551 6 4 C6 5.65 6 7.3 6 9 C6.66 8.01 7.32 7.02 8 6 C8.99 8.475 8.99 8.475 10 11 C9.34773438 11.58007812 8.69546875 12.16015625 8.0234375 12.7578125 C2.12640678 18.01814963 2.12640678 18.01814963 -3.5 23.5625 C-6 26 -6 26 -8 26 C-8 26.66 -8 27.32 -8 28 C-8.66 28 -9.32 28 -10 28 C-10 28.66 -10 29.32 -10 30 C-11.57421875 31.55078125 -11.57421875 31.55078125 -13.6875 33.3125 C-16.95300964 36.08499308 -20.01915985 38.92600859 -23 42 C-22.690625 42.763125 -22.38125 43.52625 -22.0625 44.3125 C-20.28993795 48.7960393 -19.73587226 52.15765809 -20 57 C-20.66 57.66 -21.32 58.32 -22 59 C-22.99 55.7 -23.98 52.4 -25 49 C-26.98 49 -28.96 49 -31 49 C-30.87625 49.7425 -30.7525 50.485 -30.625 51.25 C-31 54 -31 54 -33.8125 56.3125 C-37 58 -37 58 -40 58 C-40.061875 58.556875 -40.12375 59.11375 -40.1875 59.6875 C-41.4357194 63.24012445 -42.98860381 64.72608859 -46 67 C-49.34449423 67.88013006 -52.55197148 68.37402343 -56 68 C-58.49808751 66.11803273 -58.98787637 65.0363709 -60 62 C-60.53625 61.566875 -61.0725 61.13375 -61.625 60.6875 C-63 59 -63 59 -62.6875 55.8125 C-62.460625 54.884375 -62.23375 53.95625 -62 53 C-60.515 52.505 -60.515 52.505 -59 52 C-59 51.34 -59 50.68 -59 50 C-54.52941176 46 -54.52941176 46 -52 46 C-51.7525 45.401875 -51.505 44.80375 -51.25 44.1875 C-49.79509261 41.64141207 -48.52050729 40.48265135 -46 39 C-44.68 39 -43.36 39 -42 39 C-42.57363911 42.87206399 -44.34105893 45.18465063 -47 48 C-47.99 48 -48.98 48 -50 48 C-50 48.99 -50 49.98 -50 51 C-50.66 51 -51.32 51 -52 51 C-52.12375 51.763125 -52.2475 52.52625 -52.375 53.3125 C-53 56 -53 56 -55 59 C-51.56206661 58.81870185 -51.56206661 58.81870185 -48 58 C-46.94978897 56.15028304 -46.94978897 56.15028304 -46 54 C-44.40625 53.0234375 -44.40625 53.0234375 -42.5 52.0625 C-39.69071177 50.59653047 -39.10185902 50.19486073 -37.5625 47.25 C-37.376875 46.5075 -37.19125 45.765 -37 45 C-34.36 45 -31.72 45 -29 45 C-29.495 43.906875 -29.99 42.81375 -30.5 41.6875 C-32 38 -32 38 -32 35 C-31.38125 34.9175 -30.7625 34.835 -30.125 34.75 C-27.85941101 34.22073375 -27.85941101 34.22073375 -27.0625 32.22265625 C-26.711875 31.48917969 -26.36125 30.75570312 -26 30 C-22.21101119 24.45988392 -18.01637029 19.97454479 -12.859375 15.70703125 C-10.95484989 13.95854916 -9.57781207 12.19471536 -8.125 10.0625 C-7.073125 8.5465625 -7.073125 8.5465625 -6 7 C-5.34 7 -4.68 7 -4 7 C-3.71125 6.401875 -3.4225 5.80375 -3.125 5.1875 C-2 3 -2 3 0 0 Z " fill="#8A0104" transform="translate(260,175)"/>
<path d="M0 0 C2.43873271 4.35487984 4 8.99365563 4 14 C4.66 14.33 5.32 14.66 6 15 C5.67 15.66 5.34 16.32 5 17 C5.09549644 19.06986266 5.09549644 19.06986266 6 21 C7.78935929 21.9877301 7.78935929 21.9877301 9.9375 22.5 C12.08984375 23.09375 12.08984375 23.09375 14 24 C14.66 25.32 15.32 26.64 16 28 C20.95 27.67 25.9 27.34 31 27 C31.99 28.98 31.99 28.98 33 31 C29.51893764 32.16035412 28.53684836 31.75252093 25 31 C21.67124077 30.61709058 18.33676315 30.30452013 15 30 C15 29.34 15 28.68 15 28 C14.34 28 13.68 28 13 28 C13 27.01 13 26.02 13 25 C12.37351562 24.80664062 11.74703125 24.61328125 11.1015625 24.4140625 C10.28429687 24.15367188 9.46703125 23.89328125 8.625 23.625 C7.40683594 23.24214844 7.40683594 23.24214844 6.1640625 22.8515625 C4 22 4 22 2 20 C1.37195414 16.92955356 0.98054438 13.85547256 0.5625 10.75 C0.23633324 7.86895888 0.23633324 7.86895888 -2 6 C-2.33773438 6.5053125 -2.67546875 7.010625 -3.0234375 7.53125 C-3.46945312 8.1809375 -3.91546875 8.830625 -4.375 9.5 C-4.81585938 10.1496875 -5.25671875 10.799375 -5.7109375 11.46875 C-6.13632812 11.9740625 -6.56171875 12.479375 -7 13 C-7.66 13 -8.32 13 -9 13 C-9.40798828 13.88171875 -9.40798828 13.88171875 -9.82421875 14.78125 C-13.01840995 20.80882674 -18.47125539 26.8237518 -25 29 C-24.34 29.33 -23.68 29.66 -23 30 C-23 31.32 -23 32.64 -23 34 C-23.66 34 -24.32 34 -25 34 C-25.33 36.97 -25.66 39.94 -26 43 C-27.65 43.66 -29.3 44.32 -31 45 C-31 38.73 -31 32.46 -31 26 C-31.66 25.67 -32.32 25.34 -33 25 C-32.01 25 -31.02 25 -30 25 C-30.185625 24.0925 -30.37125 23.185 -30.5625 22.25 C-30.95734621 19.31685676 -30.94691572 17.7355343 -30 15 C-29.34 15 -28.68 15 -28 15 C-28 14.34 -28 13.68 -28 13 C-27.48050781 12.76925781 -26.96101563 12.53851563 -26.42578125 12.30078125 C-21.74015476 10.10953633 -18.59307242 7.79839084 -15 4 C-12 3 -12 3 -10.1875 3.5625 C-7.0234714 4.19530572 -4.93541712 3.2124549 -2 2 C-1.34 1.34 -0.68 0.68 0 0 Z " fill="#D8060A" transform="translate(379,36)"/>
<path d="M0 0 C0.66 0.33 1.32 0.66 2 1 C0.68 3.64 -0.64 6.28 -2 9 C-0.02 8.67 1.96 8.34 4 8 C3.375 9.875 3.375 9.875 2 12 C-1.125 13.25 -1.125 13.25 -4 14 C-4 14.99 -4 15.98 -4 17 C-4.66 17 -5.32 17 -6 17 C-6 17.66 -6 18.32 -6 19 C-6.61875 19.2475 -7.2375 19.495 -7.875 19.75 C-10.38710296 21.22770762 -10.76107344 22.43955177 -12 25 C-12.99 25.33 -13.98 25.66 -15 26 C-15.70151152 27.3153341 -16.36525925 28.65117592 -17 30 C-17.515625 30.495 -18.03125 30.99 -18.5625 31.5 C-20.17084137 32.90452133 -20.17084137 32.90452133 -20.375 35 C-21 37 -21 37 -23.5625 38.75 C-24.366875 39.1625 -25.17125 39.575 -26 40 C-26.33 39.34 -26.66 38.68 -27 38 C-27.66 38.66 -28.32 39.32 -29 40 C-30 37 -30 37 -30 34 C-32.16874252 34.50603992 -33.99967627 34.99983813 -36 36 C-34.42252826 29.51056343 -32.90407608 24.66485286 -28 20 C-25.75 19.3125 -25.75 19.3125 -24 19 C-23.67 18.01 -23.34 17.02 -23 16 C-20.12703408 13.86197885 -17.30634498 12.14339552 -14.0625 10.625 C-10.79859179 8.89313034 -8.35597709 6.87439643 -5.61328125 4.4296875 C-3.81942549 2.83997513 -1.9446955 1.40018076 0 0 Z " fill="#970209" transform="translate(295,145)"/>
<path d="M0 0 C0.4125 0.45375 0.825 0.9075 1.25 1.375 C3.06408095 3.05950374 4.75285627 3.99265971 7 5 C5.38731308 7.71224618 3.75098126 10.37352812 2 13 C0.783125 13.226875 -0.43375 13.45375 -1.6875 13.6875 C-4.4970495 14.25468751 -5.65768022 14.5537429 -7.42724609 16.8605957 C-7.89211426 17.58335693 -8.35698242 18.30611816 -8.8359375 19.05078125 C-11.28029318 21.97712256 -12.49301584 22.89873904 -16.27954102 23.6550293 C-20.18434222 23.78653749 -24.03948754 23.69982557 -27.9375 23.5 C-29.30262979 23.45981576 -30.66787353 23.42332359 -32.03320312 23.390625 C-35.35839304 23.2966267 -38.67771956 23.16533504 -42 23 C-42 22.01 -42 21.02 -42 20 C-41.34 19.67 -40.68 19.34 -40 19 C-39.67 18.01 -39.34 17.02 -39 16 C-37.6846659 15.29848848 -36.34882408 14.63474075 -35 14 C-34.61457031 13.49597656 -34.22914063 12.99195312 -33.83203125 12.47265625 C-31.03949735 10.22791151 -28.00265789 10.50676492 -24.5625 10.4375 C-18.82664056 10.25247228 -15.43227655 9.9163391 -10.9375 6.375 C-9 5 -9 5 -6 5 C-6 4.34 -6 3.68 -6 3 C-5.38125 2.87625 -4.7625 2.7525 -4.125 2.625 C-1.80879168 2.12802644 -1.80879168 2.12802644 0 0 Z " fill="#EC0B09" transform="translate(405,76)"/>
<path d="M0 0 C2.15377564 2.62198774 3.40072174 4.64404172 4 8 C4.99 8 5.98 8 7 8 C8.625 10 8.625 10 10 12 C10.33 12 10.66 12 11 12 C11.125 15.375 11.125 15.375 11 19 C10.34 19.66 9.68 20.32 9 21 C8.01 17.7 7.02 14.4 6 11 C4.02 11 2.04 11 0 11 C0.12375 11.7425 0.2475 12.485 0.375 13.25 C0 16 0 16 -2.8125 18.3125 C-6 20 -6 20 -9 20 C-9.0928125 20.8353125 -9.0928125 20.8353125 -9.1875 21.6875 C-10.4357194 25.24012445 -11.98860381 26.72608859 -15 29 C-18.34449423 29.88013006 -21.55197148 30.37402343 -25 30 C-27.49808751 28.11803273 -27.98787637 27.0363709 -29 24 C-29.804375 23.3503125 -29.804375 23.3503125 -30.625 22.6875 C-32 21 -32 21 -31.6875 17.8125 C-31.460625 16.884375 -31.23375 15.95625 -31 15 C-30.01 14.67 -29.02 14.34 -28 14 C-28 13.34 -28 12.68 -28 12 C-23.52941176 8 -23.52941176 8 -21 8 C-20.7525 7.401875 -20.505 6.80375 -20.25 6.1875 C-18.79509261 3.64141207 -17.52050729 2.48265135 -15 1 C-13.68 1 -12.36 1 -11 1 C-11.57363911 4.87206399 -13.34105893 7.18465063 -16 10 C-16.99 10 -17.98 10 -19 10 C-19 10.99 -19 11.98 -19 13 C-19.66 13 -20.32 13 -21 13 C-21.12375 13.763125 -21.2475 14.52625 -21.375 15.3125 C-22 18 -22 18 -24 21 C-20.56206661 20.81870185 -20.56206661 20.81870185 -17 20 C-15.94978897 18.15028304 -15.94978897 18.15028304 -15 16 C-13.40625 15.0234375 -13.40625 15.0234375 -11.5 14.0625 C-8.69071177 12.59653047 -8.10185902 12.19486073 -6.5625 9.25 C-6.376875 8.5075 -6.19125 7.765 -6 7 C-3.36 7 -0.72 7 2 7 C1.34 6.01 0.68 5.02 0 4 C0 2.68 0 1.36 0 0 Z " fill="#2F0302" transform="translate(229,213)"/>
<path d="M0 0 C0.33 0 0.66 0 1 0 C1.12375 1.11375 1.2475 2.2275 1.375 3.375 C1.6465813 7.03103677 1.6465813 7.03103677 4 9 C5.96488831 9.88778692 5.96488831 9.88778692 8.125 10.625 C9.21167969 11.01558594 9.21167969 11.01558594 10.3203125 11.4140625 C11.15175781 11.70410156 11.15175781 11.70410156 12 12 C12 12.99 12 13.98 12 15 C12.66 15.33 13.32 15.66 14 16 C13.34 16 12.68 16 12 16 C11.7525 16.55171875 11.505 17.1034375 11.25 17.671875 C9.75765526 20.45136707 7.96327477 22.7814707 6 25.25 C5.29875 26.14203125 4.5975 27.0340625 3.875 27.953125 C3.25625 28.62859375 2.6375 29.3040625 2 30 C1.34 30 0.68 30 0 30 C-0.28875 30.61875 -0.5775 31.2375 -0.875 31.875 C-2.30449076 34.57514922 -3.34686243 35.77664725 -6.26171875 36.7734375 C-9.82889845 38.37128975 -12.16306059 40.8376058 -14.8125 43.625 C-15.31458984 44.140625 -15.81667969 44.65625 -16.33398438 45.1875 C-17.56296227 46.45159154 -18.78246001 47.72488806 -20 49 C-20.33 48.01 -20.66 47.02 -21 46 C-19.37660195 44.29115995 -17.70680947 42.62553283 -16 41 C-15.34 41 -14.68 41 -14 41 C-13.67 39.68 -13.34 38.36 -13 37 C-12.01 37 -11.02 37 -10 37 C-10 36.01 -10 35.02 -10 34 C-9.01 34 -8.02 34 -7 34 C-6.89300781 33.4121875 -6.78601563 32.824375 -6.67578125 32.21875 C-5.91168126 29.71002864 -4.93033006 28.44138032 -3.1875 26.5 C-2.65253906 25.89542969 -2.11757813 25.29085937 -1.56640625 24.66796875 C-0.30827565 23.3282636 1.02317645 22.05760064 2.375 20.8125 C4.44503001 18.90933583 4.44503001 18.90933583 4 15 C2.68 15 1.36 15 0 15 C0 14.01 0 13.02 0 12 C-4.74142644 15.03937592 -9.07262567 17.93719897 -13 22 C-18.55555556 26 -18.55555556 26 -21 26 C-21.268125 26.928125 -21.53625 27.85625 -21.8125 28.8125 C-22.92367817 31.79513615 -23.52454549 33.11865457 -26 35 C-27.485 35.495 -27.485 35.495 -29 36 C-29.495 38.475 -29.495 38.475 -30 41 C-31.65 40.67 -33.3 40.34 -35 40 C-35 40.66 -35 41.32 -35 42 C-35.99 42 -36.98 42 -38 42 C-38 42.66 -38 43.32 -38 44 C-38.99 44 -39.98 44 -41 44 C-39.5080449 39.67333021 -36.95891178 38.94064303 -33 37 C-30.35412766 34.60414714 -30.35412766 34.60414714 -28 32 C-27.278125 31.319375 -26.55625 30.63875 -25.8125 29.9375 C-24.03731447 28.03988788 -23.0178615 26.37501016 -22 24 C-21.34 24 -20.68 24 -20 24 C-20.33 23.01 -20.66 22.02 -21 21 C-19.98486328 20.46439453 -19.98486328 20.46439453 -18.94921875 19.91796875 C-14.43366211 16.98136172 -10.77306969 13.2047011 -6.90820312 9.47460938 C-6.30556641 8.90162109 -5.70292969 8.32863281 -5.08203125 7.73828125 C-4.53780518 7.21274658 -3.9935791 6.68721191 -3.43286133 6.14575195 C-2 5 -2 5 0 5 C0 3.35 0 1.7 0 0 Z " fill="#400505" transform="translate(380,49)"/>
<path d="M0 0 C0.66 0.33 1.32 0.66 2 1 C-4.64206642 10.12177122 -4.64206642 10.12177122 -8 13 C-8.66 13 -9.32 13 -10 13 C-9.01 16.3 -8.02 19.6 -7 23 C-9.64 23 -12.28 23 -15 23 C-15.0928125 24.1446875 -15.0928125 24.1446875 -15.1875 25.3125 C-16.28745772 28.95082167 -17.69519258 29.17180866 -21 31 C-23.02182132 32.81759695 -24.98975182 34.67752042 -26.9375 36.57421875 C-29.46832768 38.32374925 -30.98662359 38.27727248 -34 38 C-32.68 35.03 -31.36 32.06 -30 29 C-29.34 29 -28.68 29 -28 29 C-28 28.01 -28 27.02 -28 26 C-27.01 26 -26.02 26 -25 26 C-24.731875 25.443125 -24.46375 24.88625 -24.1875 24.3125 C-22.89877353 21.80287477 -21.47073522 19.40665764 -20 17 C-21.65 17.33 -23.3 17.66 -25 18 C-24.67 16.68 -24.34 15.36 -24 14 C-20.7 14 -17.4 14 -14 14 C-13 16 -13 16 -13 20 C-12.34 20 -11.68 20 -11 20 C-10.67 19.34 -10.34 18.68 -10 18 C-10.66 18 -11.32 18 -12 18 C-12.34145336 14.32937634 -12.30049843 12.47857157 -10.3125 9.3125 C-8.0192996 7.0192996 -5.76889565 5.64637038 -3 4 C-2.67 3.01 -2.34 2.02 -2 1 C-1.34 0.67 -0.68 0.34 0 0 Z " fill="#190002" transform="translate(238,197)"/>
<path d="M0 0 C0 0.99 0 1.98 0 3 C-1.31787285 4.02028865 -2.65210653 5.01971384 -4 6 C-4.33 6.99 -4.66 7.98 -5 9 C-5.66 9 -6.32 9 -7 9 C-6.67 9.99 -6.34 10.98 -6 12 C-6.33 12.66 -6.66 13.32 -7 14 C-7 14.845625 -7 15.69125 -7 16.5625 C-7 17.366875 -7 18.17125 -7 19 C-7.33 19.33 -7.66 19.66 -8 20 C-8.08651611 21.41570123 -8.10704904 22.835595 -8.09765625 24.25390625 C-8.09443359 25.10791016 -8.09121094 25.96191406 -8.08789062 26.84179688 C-8.07951172 27.73962891 -8.07113281 28.63746094 -8.0625 29.5625 C-8.05798828 30.46419922 -8.05347656 31.36589844 -8.04882812 32.29492188 C-8.03700225 34.53001314 -8.0205222 36.76497437 -8 39 C-6.35 38.34 -4.7 37.68 -3 37 C-2.505 32.545 -2.505 32.545 -2 28 C-1.34 28 -0.68 28 0 28 C0 26.68 0 25.36 0 24 C-0.99 23.67 -1.98 23.34 -3 23 C-2.030625 22.731875 -1.06125 22.46375 -0.0625 22.1875 C0.948125 21.795625 1.95875 21.40375 3 21 C3.33 20.01 3.66 19.02 4 18 C5 20 5 20 4 23.375 C3.08728528 26.68359085 2.76941689 27.92354222 4 31 C3.34 31.33 2.68 31.66 2 32 C1.0234979 33.75770378 0.04755529 35.51572975 -0.921875 37.27734375 C-2.29020279 39.4636936 -3.76286247 40.73228874 -6 42 C-6.66 42 -7.32 42 -8 42 C-8.2475 42.639375 -8.495 43.27875 -8.75 43.9375 C-10 46 -10 46 -12.125 46.75 C-12.74375 46.8325 -13.3625 46.915 -14 47 C-13.83483887 46.28303955 -13.66967773 45.5660791 -13.49951172 44.82739258 C-13.00701446 42.03970404 -12.93028985 39.58616154 -13.0078125 36.76171875 C-13.03294922 35.28348633 -13.03294922 35.28348633 -13.05859375 33.77539062 C-13.10261664 31.7283264 -13.15460961 29.68141698 -13.21484375 27.63476562 C-13.34906936 18.26947887 -11.21796724 11.16063283 -5 4 C-2.1875 1.5625 -2.1875 1.5625 0 0 Z " fill="#DA0C12" transform="translate(356,42)"/>
<path d="M0 0 C0 6.32118809 -0.56962324 10.3234912 -5 15 C-6.66666667 16.66666667 -8.33333333 18.33333333 -10 20 C-10.90461891 21.09698041 -11.80054081 22.20119231 -12.6875 23.3125 C-13.8321875 24.6428125 -13.8321875 24.6428125 -15 26 C-15.66 26 -16.32 26 -17 26 C-17.33 26.99 -17.66 27.98 -18 29 C-18.33 27.68 -18.66 26.36 -19 25 C-19.99 25 -20.98 25 -22 25 C-22.33 25.99 -22.66 26.98 -23 28 C-23.66 26.68 -24.32 25.36 -25 24 C-21.88307091 20.82530062 -18.75516454 17.66164608 -15.625 14.5 C-14.73554688 13.59378906 -13.84609375 12.68757812 -12.9296875 11.75390625 C-12.07890625 10.89667969 -11.228125 10.03945312 -10.3515625 9.15625 C-9.56604004 8.36025391 -8.78051758 7.56425781 -7.97119141 6.74414062 C-6 5 -6 5 -4 5 C-4 4.34 -4 3.68 -4 3 C-2 1.375 -2 1.375 0 0 Z " fill="#0F0203" transform="translate(261,167)"/>
<path d="M0 0 C2 0.33333333 4 0.66666667 6 1 C6 4 6 4 4.56640625 5.5078125 C3.57447266 6.30832031 3.57447266 6.30832031 2.5625 7.125 C-2.24668139 11.14268821 -6.61757426 15.52627373 -11 20 C-11.33 19.01 -11.66 18.02 -12 17 C-11.34 16.01 -10.68 15.02 -10 14 C-10.33 13.01 -10.66 12.02 -11 11 C-10.67 10.34 -10.34 9.68 -10 9 C-13.9492568 9.55105909 -17.34920174 10.38935371 -21 12 C-15.83907224 5.38342595 -9.17387288 -3.05795763 0 0 Z " fill="#800107" transform="translate(332,117)"/>
<path d="M0 0 C0.59296875 0.21269531 1.1859375 0.42539063 1.796875 0.64453125 C-0.10044159 2.30468326 -1.99819037 3.96429465 -3.8984375 5.62109375 C-5.42316606 6.95975374 -6.93900295 8.30861623 -8.4453125 9.66796875 C-9.14914062 10.29960937 -9.85296875 10.93125 -10.578125 11.58203125 C-11.22523438 12.16855469 -11.87234375 12.75507813 -12.5390625 13.359375 C-14.203125 14.64453125 -14.203125 14.64453125 -16.203125 14.64453125 C-16.533125 15.63453125 -16.863125 16.62453125 -17.203125 17.64453125 C-19.95431951 20.98526744 -21.89697911 22.1660706 -26.203125 22.64453125 C-26.533125 23.96453125 -26.863125 25.28453125 -27.203125 26.64453125 C-32.648125 28.12953125 -32.648125 28.12953125 -38.203125 29.64453125 C-29.83810599 17.93350463 -29.83810599 17.93350463 -24.203125 13.64453125 C-22.883125 13.64453125 -21.563125 13.64453125 -20.203125 13.64453125 C-19.543125 12.32453125 -18.883125 11.00453125 -18.203125 9.64453125 C-15.53645833 9.64453125 -12.86979167 9.64453125 -10.203125 9.64453125 C-10.203125 8.65453125 -10.203125 7.66453125 -10.203125 6.64453125 C-9.543125 6.64453125 -8.883125 6.64453125 -8.203125 6.64453125 C-8.203125 5.98453125 -8.203125 5.32453125 -8.203125 4.64453125 C-2.96161877 -0.47784984 -2.96161877 -0.47784984 0 0 Z " fill="#1C0405" transform="translate(314.203125,124.35546875)"/>
<path d="M0 0 C0 1.98 0 3.96 0 6 C-0.66 6 -1.32 6 -2 6 C-2 6.66 -2 7.32 -2 8 C-6.61629797 12.98461961 -11.80302041 16.32888811 -18 19 C-18.66 19 -19.32 19 -20 19 C-18.99761027 12.18374985 -16.1680756 7.52206615 -11 3 C-10.01 2.67 -9.02 2.34 -8 2 C-7.67 1.34 -7.34 0.68 -7 0 C-3.86650268 -1.04449911 -3.01031744 -0.93423645 0 0 Z " fill="#9C0507" transform="translate(252,197)"/>
<path d="M0 0 C2.43873271 4.35487984 4 8.99365563 4 14 C4.66 14.33 5.32 14.66 6 15 C5.67 15.66 5.34 16.32 5 17 C5.09549644 19.06986266 5.09549644 19.06986266 6 21 C7.78935929 21.9877301 7.78935929 21.9877301 9.9375 22.5 C12.08984375 23.09375 12.08984375 23.09375 14 24 C14.66 25.32 15.32 26.64 16 28 C20.95 27.67 25.9 27.34 31 27 C31.66 28.32 32.32 29.64 33 31 C29.51893764 32.16035412 28.53684836 31.75252093 25 31 C21.67124077 30.61709058 18.33676315 30.30452013 15 30 C15 29.34 15 28.68 15 28 C14.34 28 13.68 28 13 28 C13 27.01 13 26.02 13 25 C12.37351562 24.80664062 11.74703125 24.61328125 11.1015625 24.4140625 C10.28429687 24.15367188 9.46703125 23.89328125 8.625 23.625 C7.81289063 23.36976562 7.00078125 23.11453125 6.1640625 22.8515625 C4 22 4 22 2 20 C1.37195414 16.92955356 0.98054438 13.85547256 0.5625 10.75 C0.23633324 7.86895888 0.23633324 7.86895888 -2 6 C-2.33773438 6.5053125 -2.67546875 7.010625 -3.0234375 7.53125 C-3.46945312 8.1809375 -3.91546875 8.830625 -4.375 9.5 C-4.81585938 10.1496875 -5.25671875 10.799375 -5.7109375 11.46875 C-6.13632812 11.9740625 -6.56171875 12.479375 -7 13 C-7.66 13 -8.32 13 -9 13 C-9.33 13.66 -9.66 14.32 -10 15 C-10 14.01 -10 13.02 -10 12 C-9.34 12 -8.68 12 -8 12 C-8.33 10.02 -8.66 8.04 -9 6 C-8.43410156 5.65066406 -7.86820312 5.30132812 -7.28515625 4.94140625 C-6.55167969 4.48636719 -5.81820313 4.03132813 -5.0625 3.5625 C-4.33160156 3.11003906 -3.60070312 2.65757813 -2.84765625 2.19140625 C-1.06100191 1.13135967 -1.06100191 1.13135967 0 0 Z " fill="#BB0811" transform="translate(379,36)"/>
<path d="M0 0 C-1.50053894 3.11650396 -3.06181958 6.13149298 -5 9 C-5.99 9.33 -6.98 9.66 -8 10 C-8 11.65 -8 13.3 -8 15 C-10.97 15 -13.94 15 -17 15 C-18.11509954 10.53960184 -18.23499632 9.84419368 -16 6 C-6.94544736 -3.19115149 -6.94544736 -3.19115149 0 0 Z " fill="#9C010A" transform="translate(318,130)"/>
<path d="M0 0 C1.32 0.33 2.64 0.66 4 1 C4.73828125 2.671875 4.73828125 2.671875 5 5 C3.41796875 7.578125 3.41796875 7.578125 1.1875 10.25 C0.45917969 11.14203125 -0.26914062 12.0340625 -1.01953125 12.953125 C-1.67308594 13.62859375 -2.32664062 14.3040625 -3 15 C-3.66 15 -4.32 15 -5 15 C-5.433125 15.928125 -5.433125 15.928125 -5.875 16.875 C-7.30449076 19.57514922 -8.34686243 20.77664725 -11.26171875 21.7734375 C-14.82889845 23.37128975 -17.16306059 25.8376058 -19.8125 28.625 C-20.31458984 29.140625 -20.81667969 29.65625 -21.33398438 30.1875 C-22.56296227 31.45159154 -23.78246001 32.72488806 -25 34 C-25.495 32.515 -25.495 32.515 -26 31 C-24.37660195 29.29115995 -22.70680947 27.62553283 -21 26 C-20.34 26 -19.68 26 -19 26 C-18.67 24.68 -18.34 23.36 -18 22 C-17.01 22 -16.02 22 -15 22 C-15 21.01 -15 20.02 -15 19 C-14.01 19 -13.02 19 -12 19 C-11.89300781 18.4121875 -11.78601563 17.824375 -11.67578125 17.21875 C-10.91168126 14.71002864 -9.93033006 13.44138032 -8.1875 11.5 C-7.65125 10.89542969 -7.115 10.29085937 -6.5625 9.66796875 C-5.3168125 8.33819734 -4.01119431 7.06464326 -2.6875 5.8125 C-0.86588719 3.85595291 -0.37368042 2.61576296 0 0 Z " fill="#2E0303" transform="translate(385,64)"/>
<path d="M0 0 C3.79371827 1.26457276 4.79962995 2.69944493 7 6 C7.75 9.3125 7.75 9.3125 8 12 C7.278125 12.268125 6.55625 12.53625 5.8125 12.8125 C3.02409874 13.98982498 0.55904276 15.39145884 -2 17 C-2 16.34 -2 15.68 -2 15 C-2.66 15 -3.32 15 -4 15 C-4 14.01 -4 13.02 -4 12 C-5.98 12.33 -7.96 12.66 -10 13 C-10 10 -10 10 -8.57421875 8.53515625 C-7.95160156 8.04917969 -7.32898438 7.56320313 -6.6875 7.0625 C-4.03125951 4.90632098 -1.88931771 2.88954474 0 0 Z " fill="#30180F" transform="translate(287,177)"/>
<path d="M0 0 C0.495 1.485 0.495 1.485 1 3 C-1.68075421 5.77214356 -4.43868695 8.21933744 -7.5 10.5625 C-8.2528125 11.14128906 -9.005625 11.72007812 -9.78125 12.31640625 C-10.5134375 12.87199219 -11.245625 13.42757812 -12 14 C-12.69351562 14.53625 -13.38703125 15.0725 -14.1015625 15.625 C-16.58035979 17.4203429 -19.26391393 18.63195696 -22 20 C-25.35759874 22.10672862 -28.26530507 24.14640529 -31 27 C-31.825 27.598125 -32.65 28.19625 -33.5 28.8125 C-36.32540701 31.28473113 -37.5234685 33.5806639 -39 37 C-39.33 37 -39.66 37 -40 37 C-40.20140476 33.37471432 -39.85776765 31.13498292 -38 28 C-37.34 28 -36.68 28 -36 28 C-36 27.34 -36 26.68 -36 26 C-35.34 26 -34.68 26 -34 26 C-33.73574219 25.40316406 -33.47148437 24.80632812 -33.19921875 24.19140625 C-29.99135908 18.32948679 -24.10239593 15.14713931 -18 13 C-15.0625 12.3125 -15.0625 12.3125 -13 12 C-12.67 11.01 -12.34 10.02 -12 9 C-11.2575 8.731875 -10.515 8.46375 -9.75 8.1875 C-5.96248186 6.5519808 -4.54168092 4.22862171 -2 1 C-1.34 0.67 -0.68 0.34 0 0 Z " fill="#64040A" transform="translate(300,138)"/>
<path d="M0 0 C0.66 0 1.32 0 2 0 C2 0.66 2 1.32 2 2 C2.99 2.33 3.98 2.66 5 3 C5 3.99 5 4.98 5 6 C5.66 6 6.32 6 7 6 C7 6.99 7 7.98 7 9 C5.68 8.67 4.36 8.34 3 8 C2.67 9.32 2.34 10.64 2 12 C1.67 11.67 1.34 11.34 1 11 C0.67 11.99 0.34 12.98 0 14 C1.32 14.66 2.64 15.32 4 16 C3.67 16.66 3.34 17.32 3 18 C1.26953125 17.8984375 1.26953125 17.8984375 -1 17 C-2.62318796 14.88431875 -3.96920223 12.90394028 -5.3125 10.625 C-5.68439453 10.03460938 -6.05628906 9.44421875 -6.43945312 8.8359375 C-7.48828125 7.1015625 -7.48828125 7.1015625 -9 4 C-8.67 3.01 -8.34 2.02 -8 1 C-6.576875 1.309375 -6.576875 1.309375 -5.125 1.625 C-4.09375 1.74875 -3.0625 1.8725 -2 2 C-1.34 1.34 -0.68 0.68 0 0 Z " fill="#080505" transform="translate(62,300)"/>
<path d="M0 0 C0 0.66 0 1.32 0 2 C-3.06006337 3.53003169 -6.3221403 3.29320176 -9.6875 3.4375 C-17.87498801 3.84428259 -25.89412679 4.78470897 -34 6 C-33 3 -33 3 -30.5625 1.4375 C-20.25925448 -2.71994995 -10.65526196 -2.76247532 0 0 Z " fill="#2A2B26" transform="translate(247,67)"/>
<path d="M0 0 C-0.57363911 3.87206399 -2.34105893 6.18465063 -5 9 C-5.99 9 -6.98 9 -8 9 C-8 9.99 -8 10.98 -8 12 C-8.928125 12.12375 -8.928125 12.12375 -9.875 12.25 C-12.69640174 13.24578885 -12.71927958 14.36322266 -14 17 C-16.625 19.25 -16.625 19.25 -19 21 C-19.33 18.69 -19.66 16.38 -20 14 C-19.01 13.67 -18.02 13.34 -17 13 C-17 12.34 -17 11.68 -17 11 C-12.52941176 7 -12.52941176 7 -10 7 C-9.7525 6.401875 -9.505 5.80375 -9.25 5.1875 C-6.83338246 0.9584193 -4.85302301 0 0 0 Z " fill="#9B221C" transform="translate(218,214)"/>
<path d="M0 0 C1 2 1 2 0 5.375 C-0.91271472 8.68359085 -1.23058311 9.92354222 0 13 C-0.99 13.495 -0.99 13.495 -2 14 C-2.9765021 15.75770378 -3.95244471 17.51572975 -4.921875 19.27734375 C-6.29020279 21.4636936 -7.76286247 22.73228874 -10 24 C-10.66 24 -11.32 24 -12 24 C-12.2475 24.639375 -12.495 25.27875 -12.75 25.9375 C-14 28 -14 28 -16.125 28.75 C-17.053125 28.87375 -17.053125 28.87375 -18 29 C-17.84152588 28.28432861 -17.68305176 27.56865723 -17.51977539 26.83129883 C-17.01543043 24.08405198 -16.79773833 21.4876077 -16.68359375 18.69921875 C-16.64169922 17.72275391 -16.59980469 16.74628906 -16.55664062 15.74023438 C-16.51732422 14.73283203 -16.47800781 13.72542969 -16.4375 12.6875 C-16.37272461 11.14739258 -16.37272461 11.14739258 -16.30664062 9.57617188 C-16.20093175 7.05090431 -16.09883532 4.52554438 -16 2 C-15.67 2 -15.34 2 -15 2 C-14.67 9.26 -14.34 16.52 -14 24 C-13.67 23.34 -13.34 22.68 -13 22 C-12.01 22 -11.02 22 -10 22 C-9.67 21.01 -9.34 20.02 -9 19 C-8.34 19 -7.68 19 -7 19 C-6.505 14.545 -6.505 14.545 -6 10 C-5.34 10 -4.68 10 -4 10 C-4 8.68 -4 7.36 -4 6 C-4.99 5.67 -5.98 5.34 -7 5 C-5.5459375 4.5978125 -5.5459375 4.5978125 -4.0625 4.1875 C-3.051875 3.795625 -2.04125 3.40375 -1 3 C-0.67 2.01 -0.34 1.02 0 0 Z " fill="#BB0C13" transform="translate(360,60)"/>
<path d="M0 0 C0.99 0.33 1.98 0.66 3 1 C2.44378126 4.64720572 1.20892932 6.02019037 -1.625 8.3125 C-5.6503165 11.67414425 -9.3361692 15.25268951 -13 19 C-14.33333333 20.33333333 -15.66666667 21.66666667 -17 23 C-17.33 22.01 -17.66 21.02 -18 20 C-18.886875 20.04125 -19.77375 20.0825 -20.6875 20.125 C-23.97277013 20.00102754 -26.05449295 19.38612096 -29 18 C-25.84493858 17.06380187 -23.03413498 16.8942877 -19.75 16.9375 C-18.85796875 16.94652344 -17.9659375 16.95554687 -17.046875 16.96484375 C-16.37140625 16.97644531 -15.6959375 16.98804687 -15 17 C-14.67 16.01 -14.34 15.02 -14 14 C-13.34 14 -12.68 14 -12 14 C-11.67 13.01 -11.34 12.02 -11 11 C-9.37660195 9.29115995 -7.70680947 7.62553283 -6 6 C-5.443125 5.401875 -4.88625 4.80375 -4.3125 4.1875 C-3 3 -3 3 -1 3 C-0.67 2.01 -0.34 1.02 0 0 Z " fill="#2E0303" transform="translate(356,98)"/>
<path d="M0 0 C-0.47304682 4.25742137 -2.8863822 6.25705098 -6 9 C-6.99 9.33 -7.98 9.66 -9 10 C-9.33 10.99 -9.66 11.98 -10 13 C-11.671875 14.60546875 -11.671875 14.60546875 -13.75 16.1875 C-14.42546875 16.71730469 -15.1009375 17.24710938 -15.796875 17.79296875 C-18.39119722 19.21432614 -20.08558073 19.22928124 -23 19 C-22.505 17.515 -22.505 17.515 -22 16 C-21.01 16 -20.02 16 -19 16 C-19 15.34 -19 14.68 -19 14 C-17.68 13.67 -16.36 13.34 -15 13 C-14.67 11.68 -14.34 10.36 -14 9 C-13.01 9 -12.02 9 -11 9 C-10.9175 8.4225 -10.835 7.845 -10.75 7.25 C-9.7766189 4.3298567 -8.32386725 2.98212207 -6 1 C-3 0 -3 0 0 0 Z " fill="#97261B" transform="translate(228,222)"/>
<path d="M0 0 C0.53625 0.2475 1.0725 0.495 1.625 0.75 C0.635 0.75 -0.355 0.75 -1.375 0.75 C-1.705 1.74 -2.035 2.73 -2.375 3.75 C-3.344375 4.059375 -4.31375 4.36875 -5.3125 4.6875 C-8.41446274 5.39975178 -8.41446274 5.39975178 -9.43359375 7.48828125 C-10.47329053 9.98614199 -11.50655813 12.4832806 -12.5 15 C-12.85320312 15.89203125 -13.20640625 16.7840625 -13.5703125 17.703125 C-13.83585938 18.37859375 -14.10140625 19.0540625 -14.375 19.75 C-13.42625 19.234375 -12.4775 18.71875 -11.5 18.1875 C-10.46875 17.713125 -9.4375 17.23875 -8.375 16.75 C-7.715 17.08 -7.055 17.41 -6.375 17.75 C-7.365 18.74 -8.355 19.73 -9.375 20.75 C-8.88 21.8328125 -8.88 21.8328125 -8.375 22.9375 C-7.36896471 25.76697427 -7.20522598 27.77895466 -7.375 30.75 C-10.375 27 -10.375 27 -10.375 24.75 C-11.365 24.75 -12.355 24.75 -13.375 24.75 C-15.48270759 21.86165997 -16.375 20.36537605 -16.375 16.75 C-17.035 16.75 -17.695 16.75 -18.375 16.75 C-18.375 15.76 -18.375 14.77 -18.375 13.75 C-17.446875 13.62625 -17.446875 13.62625 -16.5 13.5 C-14.2445627 12.96428985 -14.2445627 12.96428985 -13.375 11 C-13.045 10.2575 -12.715 9.515 -12.375 8.75 C-9.46115563 4.58736518 -5.55260885 -0.58448514 0 0 Z " fill="#8D0407" transform="translate(246.375,196.25)"/>
<path d="M0 0 C8.79364926 7.99893833 8.79364926 7.99893833 11 13 C10.67 13.66 10.34 14.32 10 15 C9.63648438 14.52949219 9.27296875 14.05898437 8.8984375 13.57421875 C5.64353265 9.54314428 2.95348421 6.91384617 -2 5 C-2.66 5 -3.32 5 -4 5 C-8 5 -8 5 -11 3 C-10.67 1.35 -10.34 -0.3 -10 -2 C-5.49010442 -3.41739576 -3.72324855 -2.85737679 0 0 Z " fill="#0F090D" transform="translate(337,141)"/>
<path d="M0 0 C0.33 0.99 0.66 1.98 1 3 C0.01 3.33 -0.98 3.66 -2 4 C-2 4.99 -2 5.98 -2 7 C8.89 7 19.78 7 31 7 C31 6.34 31 5.68 31 5 C32.32 5.33 33.64 5.66 35 6 C29.94383191 9.02033963 26.03607832 9.46479547 20.3203125 9.51171875 C19.10116653 9.53864555 19.10116653 9.53864555 17.85739136 9.56611633 C15.2799792 9.61998358 12.7027497 9.65403836 10.125 9.6875 C8.36976638 9.72069399 6.61455679 9.75518557 4.859375 9.79101562 C0.57304897 9.87569611 -3.71322512 9.94261897 -8 10 C-5.95933017 5.73384496 -3.41446998 3.26601476 0 0 Z " fill="#C61A10" transform="translate(365,92)"/>
<path d="M0 0 C3.4375 1.25 3.4375 1.25 7 3 C7.9375 5.1875 7.9375 5.1875 8 7 C6.33333333 7 4.66666667 7 3 7 C3.61875 7.721875 4.2375 8.44375 4.875 9.1875 C6.83666353 11.78381938 7.95316 13.94671666 9 17 C4.38486888 15.68139111 0.90102388 13.78644563 -3 11 C-2.67 9.02 -2.34 7.04 -2 5 C-1.34 5 -0.68 5 0 5 C0 3.35 0 1.7 0 0 Z " fill="#0B0A0A" transform="translate(129,343)"/>
<path d="M0 0 C0.33 0.66 0.66 1.32 1 2 C0.03114628 3.68496298 -0.96986723 5.35178756 -2 7 C-2 7.66 -2 8.32 -2 9 C-1.34 9.33 -0.68 9.66 0 10 C-0.66 10.350625 -1.32 10.70125 -2 11.0625 C-5.36917858 13.23842783 -8.07080454 15.78265846 -10.9375 18.57421875 C-13.46832768 20.32374925 -14.98662359 20.27727248 -18 20 C-16.68 17.36 -15.36 14.72 -14 12 C-12.68 12 -11.36 12 -10 12 C-10 11.01 -10 10.02 -10 9 C-9.01 8.67 -8.02 8.34 -7 8 C-5.11544482 6.14021584 -5.11544482 6.14021584 -3.3125 3.9375 C-2.68988281 3.20402344 -2.06726563 2.47054687 -1.42578125 1.71484375 C-0.95527344 1.14894531 -0.48476562 0.58304688 0 0 Z " fill="#200308" transform="translate(222,215)"/>
<path d="M0 0 C3 1 3 1 4.125 2.75 C5 5 5 5 5.4375 7.375 C6.59473903 12.77544879 9.10223694 16.23216237 13 20 C13.33 20.99 13.66 21.98 14 23 C13.01 23.66 12.02 24.32 11 25 C10.85498047 24.09121094 10.85498047 24.09121094 10.70703125 23.1640625 C9.84570133 20.52772672 8.93101385 19.94113601 6.6875 18.375 C2.32170686 14.83735731 0.17829242 10.46693029 -1 5 C-0.59375 2.19140625 -0.59375 2.19140625 0 0 Z " fill="#100A15" transform="translate(323,143)"/>
<path d="M0 0 C0.66 0 1.32 0 2 0 C0.125 4.75 0.125 4.75 -1 7 C2.43793339 6.81870185 2.43793339 6.81870185 6 6 C7.24174796 4.0998823 7.24174796 4.0998823 8 2 C10.125 0.75 10.125 0.75 12 0 C11.67 1.32 11.34 2.64 11 4 C10.01 4 9.02 4 8 4 C7.67 5.32 7.34 6.64 7 8 C5.68 8.33 4.36 8.66 3 9 C3 9.66 3 10.32 3 11 C2.01 11.33 1.02 11.66 0 12 C-0.33 12.66 -0.66 13.32 -1 14 C-0.01 14.33 0.98 14.66 2 15 C-2.75 14.125 -2.75 14.125 -5 13 C-5.33 12.01 -5.66 11.02 -6 10 C-6.53625 9.525625 -7.0725 9.05125 -7.625 8.5625 C-8.07875 8.046875 -8.5325 7.53125 -9 7 C-8.6875 4.8125 -8.6875 4.8125 -8 3 C-7.34 4.32 -6.68 5.64 -6 7 C-5.59007812 6.4946875 -5.18015625 5.989375 -4.7578125 5.46875 C-4.21898437 4.8190625 -3.68015625 4.169375 -3.125 3.5 C-2.59132812 2.8503125 -2.05765625 2.200625 -1.5078125 1.53125 C-1.01023438 1.0259375 -0.51265625 0.520625 0 0 Z " fill="#390605" transform="translate(206,227)"/>
<path d="M0 0 C0.92188461 2.76565382 1.11785222 4.38283702 1.09765625 7.23046875 C1.09443359 8.03291016 1.09121094 8.83535156 1.08789062 9.66210938 C1.07951172 10.49548828 1.07113281 11.32886719 1.0625 12.1875 C1.05798828 13.03248047 1.05347656 13.87746094 1.04882812 14.74804688 C1.03705403 16.83206155 1.0191189 18.91603977 1 21 C0.34 21 -0.32 21 -1 21 C-1 15.72 -1 10.44 -1 5 C-1.66 5 -2.32 5 -3 5 C-3 4.34 -3 3.68 -3 3 C-4.65 3.33 -6.3 3.66 -8 4 C-8.103125 4.598125 -8.20625 5.19625 -8.3125 5.8125 C-9.10503854 8.33421352 -9.91591409 9.39685699 -12 11 C-12.99 11 -13.98 11 -15 11 C-13.57570166 7.6985495 -11.86063129 5.64201806 -9.1875 3.25 C-8.18783203 2.32960938 -8.18783203 2.32960938 -7.16796875 1.390625 C-4.57462308 -0.27285439 -3.02376458 -0.27440795 0 0 Z " fill="#B42636" transform="translate(396,9)"/>
<path d="M0 0 C0.87087556 3.40433172 1.24666051 5.37609399 -0.0625 8.6875 C-2.41061561 11.4900896 -4.71151636 12.45642605 -8 14 C-10.31418291 16.06167261 -10.31418291 16.06167261 -12 18 C-12 16.68 -12 15.36 -12 14 C-10.66666667 13 -9.33333333 12 -8 11 C-6.49664559 8.73481059 -5.272814 6.40925508 -4 4 C-5.32 3.67 -6.64 3.34 -8 3 C-8 2.34 -8 1.68 -8 1 C-4.93251126 -0.86240388 -3.40254489 -1.2151946 0 0 Z " fill="#90020C" transform="translate(322,126)"/>
<path d="M0 0 C-0.309375 0.598125 -0.61875 1.19625 -0.9375 1.8125 C-2.10209704 4.08956772 -2.10209704 4.08956772 -3 7 C-4.093125 6.814375 -5.18625 6.62875 -6.3125 6.4375 C-9.93624133 5.7421932 -9.93624133 5.7421932 -13 7 C-14.66710346 8.49985609 -14.66710346 8.49985609 -16 10 C-16.33 9.01 -16.66 8.02 -17 7 C-15.56771184 5.68181446 -14.12897516 4.37063296 -12.6875 3.0625 C-11.88699219 2.33160156 -11.08648437 1.60070312 -10.26171875 0.84765625 C-6.29120638 -2.39595749 -4.44636772 -2.04292571 0 0 Z " fill="#A4020D" transform="translate(318,130)"/>
<path d="M0 0 C0.99 0.33 1.98 0.66 3 1 C4.1875 4.5625 4.1875 4.5625 5 8 C4.34 8 3.68 8 3 8 C3 8.66 3 9.32 3 10 C0.36 10.66 -2.28 11.32 -5 12 C-5.875 9.9375 -5.875 9.9375 -6 7 C-4.26080867 4.40994275 -2.19602066 2.20875121 0 0 Z " fill="#E10309" transform="translate(365,39)"/>
<path d="M0 0 C0 6.32118809 -0.56962324 10.3234912 -5 15 C-6.66666667 16.66666667 -8.33333333 18.33333333 -10 20 C-10.90461891 21.09698041 -11.80054081 22.20119231 -12.6875 23.3125 C-13.8321875 24.6428125 -13.8321875 24.6428125 -15 26 C-15.66 26 -16.32 26 -17 26 C-17.33 26.99 -17.66 27.98 -18 29 C-18.33 27.68 -18.66 26.36 -19 25 C-18.236875 24.649375 -17.47375 24.29875 -16.6875 23.9375 C-13.09141882 21.34497636 -12.47896213 19.12552594 -11 15 C-10.34 15 -9.68 15 -9 15 C-9 14.34 -9 13.68 -9 13 C-8.01 12.67 -7.02 12.34 -6 12 C-4.82617876 9.74212109 -4.82617876 9.74212109 -3.9375 7.0625 C-2.19282511 2.19282511 -2.19282511 2.19282511 0 0 Z " fill="#300000" transform="translate(261,167)"/>
<path d="M0 0 C0.8353125 0.556875 0.8353125 0.556875 1.6875 1.125 C0.23432413 4.5157437 -1.47332541 6.75902118 -4.3125 9.125 C-7.5625 10.375 -7.5625 10.375 -10.3125 11.125 C-9.7027106 7.56789519 -9.03638873 4.31419414 -7.3125 1.125 C-4.43047892 -0.61938118 -3.19675153 -1.20958166 0 0 Z " fill="#BA0505" transform="translate(242.3125,204.875)"/>
<path d="M0 0 C0.66 0.33 1.32 0.66 2 1 C0.53403275 4.9429464 -1.37308275 6.01834588 -5.125 7.75 C-6.03507812 8.17796875 -6.94515625 8.6059375 -7.8828125 9.046875 C-8.58148438 9.36140625 -9.28015625 9.6759375 -10 10 C-10 10.33 -10 10.66 -10 11 C-15.94 11.33 -21.88 11.66 -28 12 C-28.33 12.99 -28.66 13.98 -29 15 C-31.0625 15.6875 -31.0625 15.6875 -33 16 C-28 9.42857143 -28 9.42857143 -23 8 C-22.67 8.33 -22.34 8.66 -22 9 C-14.22871175 8.9404499 -7.9021546 7.65516272 -2.0625 2.3125 C-1.381875 1.549375 -0.70125 0.78625 0 0 Z " fill="#C21714" transform="translate(399,76)"/>
<path d="M0 0 C0.33 0 0.66 0 1 0 C1.12375 1.11375 1.2475 2.2275 1.375 3.375 C1.6465813 7.03103677 1.6465813 7.03103677 4 9 C5.96488831 9.88778692 5.96488831 9.88778692 8.125 10.625 C8.84945313 10.88539062 9.57390625 11.14578125 10.3203125 11.4140625 C10.87460937 11.60742188 11.42890625 11.80078125 12 12 C11.67 12.66 11.34 13.32 11 14 C10.46632813 13.855625 9.93265625 13.71125 9.3828125 13.5625 C3.49771237 12.09631589 -1.95009776 11.77265503 -8 12 C-7.04882866 10.8274869 -6.08882991 9.66212985 -5.125 8.5 C-4.32449219 7.52546875 -4.32449219 7.52546875 -3.5078125 6.53125 C-3.01023437 6.0259375 -2.51265625 5.520625 -2 5 C-1.34 5 -0.68 5 0 5 C0 3.35 0 1.7 0 0 Z " fill="#790407" transform="translate(380,49)"/>
<path d="M0 0 C1.175625 0.02030273 1.175625 0.02030273 2.375 0.04101562 C4.29196782 0.07608211 6.20857751 0.12987928 8.125 0.1875 C8.125 0.8475 8.125 1.5075 8.125 2.1875 C7.37734375 2.23648438 6.6296875 2.28546875 5.859375 2.3359375 C4.87453125 2.41070312 3.8896875 2.48546875 2.875 2.5625 C1.90046875 2.63210937 0.9259375 2.70171875 -0.078125 2.7734375 C-2.81978621 3.17932589 -4.44737485 3.93453218 -6.875 5.1875 C-9.234375 5.6015625 -9.234375 5.6015625 -11.625 5.8125 C-12.42421875 5.88726562 -13.2234375 5.96203125 -14.046875 6.0390625 C-14.95179688 6.11253906 -14.95179688 6.11253906 -15.875 6.1875 C-14.875 3.1875 -14.875 3.1875 -12.3671875 1.51171875 C-8.05637413 -0.12291853 -4.55428214 -0.15052288 0 0 Z " fill="#B6B5AF" transform="translate(228.875,66.8125)"/>
<path d="M0 0 C0.66 0.33 1.32 0.66 2 1 C1.20078125 1.72703125 0.4015625 2.4540625 -0.421875 3.203125 C-8.15581288 10.27212202 -15.65122236 17.53205299 -23 25 C-23 20.85042942 -20.76227886 18.84053039 -18 16 C-17.236875 15.443125 -16.47375 14.88625 -15.6875 14.3125 C-15.130625 13.879375 -14.57375 13.44625 -14 13 C-14 12.01 -14 11.02 -14 10 C-12.35 9.67 -10.7 9.34 -9 9 C-9 8.34 -9 7.68 -9 7 C-8.34 7 -7.68 7 -7 7 C-7 6.01 -7 5.02 -7 4 C-1.7265625 0.77734375 -1.7265625 0.77734375 0 0 Z " fill="#6F070E" transform="translate(298,155)"/>
<path d="M0 0 C2.64 0.33 5.28 0.66 8 1 C8 4 8 4 6.56640625 5.5078125 C5.57447266 6.30832031 5.57447266 6.30832031 4.5625 7.125 C-0.24668139 11.14268821 -4.61757426 15.52627373 -9 20 C-9.33 19.01 -9.66 18.02 -10 17 C-9.50628906 16.61328125 -9.01257813 16.2265625 -8.50390625 15.828125 C-7.86324219 15.30734375 -7.22257812 14.7865625 -6.5625 14.25 C-5.60537109 13.48429688 -5.60537109 13.48429688 -4.62890625 12.703125 C-2.81189446 10.80332371 -2.39576803 9.56413092 -2 7 C-0.35 6.67 1.3 6.34 3 6 C1.515 3.03 1.515 3.03 0 0 Z " fill="#590307" transform="translate(330,117)"/>
<path d="M0 0 C0 0.99 0 1.98 0 3 C-1.31787285 4.02028865 -2.65210653 5.01971384 -4 6 C-4.33 6.99 -4.66 7.98 -5 9 C-5.66 9 -6.32 9 -7 9 C-6.67 9.99 -6.34 10.98 -6 12 C-6.33 12.66 -6.66 13.32 -7 14 C-6.938125 14.804375 -6.87625 15.60875 -6.8125 16.4375 C-7 19 -7 19 -9 20.8125 C-9.66 21.204375 -10.32 21.59625 -11 22 C-11 21.34 -11 20.68 -11 20 C-11.66 19.67 -12.32 19.34 -13 19 C-10.31400042 10.94200127 -7.03743449 5.02673892 0 0 Z " fill="#CB1716" transform="translate(356,42)"/>
<path d="M0 0 C6.10912288 1.76513591 12.06756336 3.71028761 18 6 C18.99 6.33 19.98 6.66 21 7 C20.979375 7.94875 20.95875 8.8975 20.9375 9.875 C20.77448174 12.90666283 20.77448174 12.90666283 22 15 C22.99 15.33 23.98 15.66 25 16 C25.33 16.99 25.66 17.98 26 19 C22.71996319 18.43447641 21.02678473 17.67167078 19 15 C18.82984375 14.05253906 18.6596875 13.10507813 18.484375 12.12890625 C16.53062116 8.01059882 14.56971286 7.50934183 10.42578125 5.984375 C9.58402344 5.70078125 8.74226563 5.4171875 7.875 5.125 C7.02550781 4.81820312 6.17601562 4.51140625 5.30078125 4.1953125 C3.20698505 3.4424869 1.10796595 2.71197042 -1 2 C-0.67 1.34 -0.34 0.68 0 0 Z " fill="#49373A" transform="translate(271,100)"/>
<path d="M0 0 C1.98 0 3.96 0 6 0 C5.38983051 5.49152542 5.38983051 5.49152542 3.5625 7.875 C2 9 2 9 0 9 C-0.33 9.99 -0.66 10.98 -1 12 C-1.99 12 -2.98 12 -4 12 C-4 12.99 -4 13.98 -4 15 C-5.32 14.67 -6.64 14.34 -8 14 C-7.34 14 -6.68 14 -6 14 C-6 13.01 -6 12.02 -6 11 C-5.01 11 -4.02 11 -3 11 C-2.731875 10.443125 -2.46375 9.88625 -2.1875 9.3125 C-0.89877353 6.80287477 0.52926478 4.40665764 2 2 C1.34 2 0.68 2 0 2 C0 1.34 0 0.68 0 0 Z " fill="#470302" transform="translate(216,212)"/>
<path d="M0 0 C6.86515862 -0.26404456 13.25846717 0.74158054 20 2 C20 2.99 20 3.98 20 5 C17.69 5.33 15.38 5.66 13 6 C12.67 5.34 12.34 4.68 12 4 C10.35 4 8.7 4 7 4 C7 3.34 7 2.68 7 2 C4.36 2 1.72 2 -1 2 C-0.67 1.34 -0.34 0.68 0 0 Z " fill="#0E0E0C" transform="translate(210,61)"/>
<path d="M0 0 C0.33 1.32 0.66 2.64 1 4 C-0.134375 4.4125 -1.26875 4.825 -2.4375 5.25 C-6.09543384 6.56685398 -6.09543384 6.56685398 -6.9375 9.1875 C-6.958125 9.785625 -6.97875 10.38375 -7 11 C-8.65 10.67 -10.3 10.34 -12 10 C-11.67 8.68 -11.34 7.36 -11 6 C-10.34 6 -9.68 6 -9 6 C-8.896875 5.38125 -8.79375 4.7625 -8.6875 4.125 C-7.25616829 -0.29911619 -4.03097181 -0.21789037 0 0 Z " fill="#0E0908" transform="translate(342,129)"/>
<path d="M0 0 C-0.54723683 3.37462715 -1.0549 5.08235 -3 8 C-5.625 8.1875 -5.625 8.1875 -8 8 C-8.33 6.35 -8.66 4.7 -9 3 C-5.92807025 0.26939578 -4.09590633 -0.34132553 0 0 Z " fill="#CEB4A3" transform="translate(291,183)"/>
<path d="M0 0 C0.66 0.33 1.32 0.66 2 1 C3.43769559 1.13954369 4.88084712 1.22539863 6.32421875 1.28125 C7.18853516 1.31863281 8.05285156 1.35601562 8.94335938 1.39453125 C10.30170898 1.44673828 10.30170898 1.44673828 11.6875 1.5 C17.52657809 1.72931652 23.22957498 2.05273461 29 3 C29.33 4.65 29.66 6.3 30 8 C29.62093506 7.51337891 29.24187012 7.02675781 28.85131836 6.52539062 C26.3146692 4.43532285 24.63839144 4.61671699 21.37890625 4.59375 C20.27869141 4.57183594 19.17847656 4.54992188 18.04492188 4.52734375 C16.89572266 4.51832031 15.74652344 4.50929688 14.5625 4.5 C12.29282405 4.48211848 10.02320359 4.45139693 7.75390625 4.40625 C6.74658447 4.39916016 5.7392627 4.39207031 4.70141602 4.38476562 C1.64629337 3.94962118 0.26846757 3.03922371 -2 1 C-1.34 0.67 -0.68 0.34 0 0 Z " fill="#EE1C1E" transform="translate(405,51)"/>
<path d="M0 0 C0 3 0 3 -1.3125 4.625 C-3 6 -3 6 -6 7 C-6.33 8.65 -6.66 10.3 -7 12 C-8.65 11.67 -10.3 11.34 -12 11 C-12 11.66 -12 12.32 -12 13 C-12.99 13 -13.98 13 -15 13 C-15 13.66 -15 14.32 -15 15 C-15.99 15 -16.98 15 -18 15 C-16.5080449 10.67333021 -13.95891178 9.94064303 -10 8 C-8.31288577 6.3540349 -6.6454378 4.68762851 -5 3 C-3.36622358 1.94712186 -1.70818403 0.9272999 0 0 Z " fill="#2C0705" transform="translate(357,78)"/>
<path d="M0 0 C-0.57363911 3.87206399 -2.34105893 6.18465063 -5 9 C-5.99 9 -6.98 9 -8 9 C-8 9.99 -8 10.98 -8 12 C-8.66 11.67 -9.32 11.34 -10 11 C-10 10.01 -10 9.02 -10 8 C-9.01 7.67 -8.02 7.34 -7 7 C-7.99 6.34 -8.98 5.68 -10 5 C-4.5 0 -4.5 0 0 0 Z " fill="#801410" transform="translate(218,214)"/>
<path d="M0 0 C0.66 0.33 1.32 0.66 2 1 C-4.64206642 10.12177122 -4.64206642 10.12177122 -8 13 C-8.66 13 -9.32 13 -10 13 C-10.33 13.99 -10.66 14.98 -11 16 C-11.75 14.3125 -11.75 14.3125 -12 12 C-9.54413962 8.1272971 -6.87195009 6.3022406 -3 4 C-2.67 3.01 -2.34 2.02 -2 1 C-1.34 0.67 -0.68 0.34 0 0 Z " fill="#3C0102" transform="translate(238,197)"/>
<path d="M0 0 C0.81210937 0.41572266 0.81210937 0.41572266 1.640625 0.83984375 C0.265625 2.83984375 0.265625 2.83984375 -1.359375 4.83984375 C-2.019375 4.83984375 -2.679375 4.83984375 -3.359375 4.83984375 C-3.689375 6.48984375 -4.019375 8.13984375 -4.359375 9.83984375 C-5.679375 9.50984375 -6.999375 9.17984375 -8.359375 8.83984375 C-9.349375 10.32484375 -9.349375 10.32484375 -10.359375 11.83984375 C-11.349375 11.50984375 -12.339375 11.17984375 -13.359375 10.83984375 C-11.62399377 8.96982087 -9.8734415 7.11996283 -8.109375 5.27734375 C-7.37267578 4.47780273 -7.37267578 4.47780273 -6.62109375 3.66210938 C-2.88743798 -0.19600158 -2.88743798 -0.19600158 0 0 Z " fill="#140F09" transform="translate(304.359375,126.16015625)"/>
<path d="M0 0 C0.556875 0.226875 1.11375 0.45375 1.6875 0.6875 C0.388125 1.5228125 0.388125 1.5228125 -0.9375 2.375 C-3.23546952 3.89977036 -5.24235343 5.46554063 -7.375 7.25 C-9.94886567 9.38576088 -12.32399926 11.19324963 -15.3125 12.6875 C-15.9725 12.3575 -16.6325 12.0275 -17.3125 11.6875 C-16.590625 11.130625 -15.86875 10.57375 -15.125 10 C-12.27540043 7.74292929 -12.27540043 7.74292929 -9.8125 5.125 C-4.00148357 -0.54074102 -4.00148357 -0.54074102 0 0 Z " fill="#67070F" transform="translate(328.3125,116.3125)"/>
<path d="M0 0 C0.33 0.66 0.66 1.32 1 2 C3.02463255 2.65213292 3.02463255 2.65213292 5 3 C5.59732819 5.76264289 6 8.16032769 6 11 C6.99 11.33 7.98 11.66 9 12 C8.01 12.33 7.02 12.66 6 13 C5.01 12.34 4.02 11.68 3 11 C3.33 10.01 3.66 9.02 4 8 C2.68 7.67 1.36 7.34 0 7 C-0.93423645 3.98968256 -1.04449911 3.13349732 0 0 Z " fill="#281B1C" transform="translate(292,108)"/>
<path d="M0 0 C0 0.99 0 1.98 0 3 C-0.845625 3.37125 -1.69125 3.7425 -2.5625 4.125 C-6.54683878 6.2982757 -9.66636184 8.95238405 -13 12 C-13.33 11.01 -13.66 10.02 -14 9 C-12.02071406 5.48126943 -9.48046966 3.91425831 -6 2 C-3 0 -3 0 0 0 Z " fill="#D11A19" transform="translate(434,65)"/>
<path d="M0 0 C0 0.66 0 1.32 0 2 C-2.07772471 2.86772029 -4.16243177 3.71873619 -6.25 4.5625 C-7.99023438 5.27599609 -7.99023438 5.27599609 -9.765625 6.00390625 C-12.86266644 6.95770524 -14.07321701 7.20983356 -17 6 C-15.73168307 5.18357746 -14.46024069 4.37200895 -13.1875 3.5625 C-12.47980469 3.11003906 -11.77210938 2.65757812 -11.04296875 2.19140625 C-7.28706994 0.00106373 -4.26201889 -0.09471153 0 0 Z " fill="#0A0907" transform="translate(271,385)"/>
<path d="M0 0 C2.01822917 0.29296875 4.03645833 0.5859375 6.0546875 0.87890625 C8.08140667 1.1684297 8.08140667 1.1684297 10 0 C11.35085807 0.63040043 12.68252676 1.30251417 14 2 C14.70125 2.144375 15.4025 2.28875 16.125 2.4375 C18 3 18 3 20 6 C13.27052026 5.12224177 6.45080351 4.15026784 0 2 C0 1.34 0 0.68 0 0 Z " fill="#150911" transform="translate(261,97)"/>
<path d="M0 0 C0 0.66 0 1.32 0 2 C-3.48106236 3.16035412 -4.46315164 2.75252093 -8 2 C-11.32875923 1.61709058 -14.66323685 1.30452013 -18 1 C-18 0.34 -18 -0.32 -18 -1 C-15.75135275 -1.22245975 -13.50097377 -1.42746557 -11.25 -1.625 C-9.37054688 -1.79902344 -9.37054688 -1.79902344 -7.453125 -1.9765625 C-4.16413097 -1.99888599 -2.68979224 -1.77961002 0 0 Z " fill="#B30D0A" transform="translate(412,65)"/>
<path d="M0 0 C2.125 0.375 2.125 0.375 4 1 C-0.97281557 5.36574458 -5.96836982 9.70214922 -11 14 C-11 12.35 -11 10.7 -11 9 C-10.34 9 -9.68 9 -9 9 C-8.67 8.34 -8.34 7.68 -8 7 C-8.66 6.67 -9.32 6.34 -10 6 C-8.02 6 -6.04 6 -4 6 C-3.71125 5.38125 -3.4225 4.7625 -3.125 4.125 C-2 2 -2 2 0 0 Z " fill="#CA2520" transform="translate(411,83)"/>
<path d="M0 0 C0.66 0.99 1.32 1.98 2 3 C1.34 3 0.68 3 0 3 C-0.33 4.98 -0.66 6.96 -1 9 C-2.32 9.33 -3.64 9.66 -5 10 C-5 10.66 -5 11.32 -5 12 C-5.61875 12.28875 -6.2375 12.5775 -6.875 12.875 C-9.13325765 13.93720042 -9.13325765 13.93720042 -11 16 C-10.4409112 12.75728494 -9.5867822 11.06942576 -7 9 C-6.34 9 -5.68 9 -5 9 C-3.79371992 6.66785852 -2.8345262 4.50357861 -2 2 C-1.34 2 -0.68 2 0 2 C0 1.34 0 0.68 0 0 Z " fill="#1D0306" transform="translate(257,170)"/>
<path d="M0 0 C1.1446875 0.0928125 1.1446875 0.0928125 2.3125 0.1875 C0.9925 0.5175 -0.3275 0.8475 -1.6875 1.1875 C-1.6875 1.8475 -1.6875 2.5075 -1.6875 3.1875 C-2.8940625 4.363125 -2.8940625 4.363125 -4.125 5.5625 C-6.50560326 8.00116675 -7.32385918 8.9147326 -7.6875 12.1875 C-9.3375 12.1875 -10.9875 12.1875 -12.6875 12.1875 C-12.6875 11.1975 -12.6875 10.2075 -12.6875 9.1875 C-12.0275 8.8575 -11.3675 8.5275 -10.6875 8.1875 C-10.3575 7.1975 -10.0275 6.2075 -9.6875 5.1875 C-8.3721659 4.48598848 -7.03632408 3.82224075 -5.6875 3.1875 C-5.213125 2.65125 -4.73875 2.115 -4.25 1.5625 C-2.6875 0.1875 -2.6875 0.1875 0 0 Z " fill="#E71714" transform="translate(375.6875,86.8125)"/>
<path d="M0 0 C1.32 0.33 2.64 0.66 4 1 C-0.66666667 5.66666667 -5.33333333 10.33333333 -10 15 C-10.33 14.01 -10.66 13.02 -11 12 C-9.37660195 10.29115995 -7.70680947 8.62553283 -6 7 C-5.34 7 -4.68 7 -4 7 C-3.67 5.68 -3.34 4.36 -3 3 C-2.01 3 -1.02 3 0 3 C0 2.01 0 1.02 0 0 Z " fill="#420202" transform="translate(370,83)"/>
<path d="M0 0 C0.66 0 1.32 0 2 0 C2 0.66 2 1.32 2 2 C2.99 2.33 3.98 2.66 5 3 C5 3.99 5 4.98 5 6 C5.66 6 6.32 6 7 6 C7 6.99 7 7.98 7 9 C4.03 8.505 4.03 8.505 1 8 C0.67 7.01 0.34 6.02 0 5 C-0.66 4.67 -1.32 4.34 -2 4 C-1.34 2.68 -0.68 1.36 0 0 Z " fill="#211F1D" transform="translate(62,300)"/>
<path d="M0 0 C0.99 0.33 1.98 0.66 3 1 C2.67 1.66 2.34 2.32 2 3 C1.34 3 0.68 3 0 3 C0.33 3.99 0.66 4.98 1 6 C-3.30769231 9.93846154 -3.30769231 9.93846154 -6.8125 10.25 C-7.534375 10.1675 -8.25625 10.085 -9 10 C-8.67 9.01 -8.34 8.02 -8 7 C-7.01 7 -6.02 7 -5 7 C-5 6.34 -5 5.68 -5 5 C-3.68 4.67 -2.36 4.34 -1 4 C-0.67 2.68 -0.34 1.36 0 0 Z " fill="#802215" transform="translate(214,231)"/>
<path d="M0 0 C0.66 0.33 1.32 0.66 2 1 C-0.6516491 5.88461676 -3.57961219 10.19320406 -9 12 C-9.33 12.99 -9.66 13.98 -10 15 C-12.5625 16.6875 -12.5625 16.6875 -15 18 C-13.59315441 14.68850192 -11.9806275 12.92520635 -9.1875 10.6875 C-5.3591554 7.46583296 -2.72985756 4.18009438 0 0 Z " fill="#660204" transform="translate(254,182)"/>
<path d="M0 0 C0.33 0.66 0.66 1.32 1 2 C12.22 2 23.44 2 35 2 C35 2.33 35 2.66 35 3 C22.79 3.33 10.58 3.66 -2 4 C-1.34 2.68 -0.68 1.36 0 0 Z " fill="#992217" transform="translate(359,98)"/>
<path d="M0 0 C0.33 0 0.66 0 1 0 C1.33 7.26 1.66 14.52 2 22 C2.99 22 3.98 22 5 22 C3.35 23.65 1.7 25.3 0 27 C-0.66 26.67 -1.32 26.34 -2 26 C-1.84152588 25.44731445 -1.68305176 24.89462891 -1.51977539 24.32519531 C-0.95067733 21.77935695 -0.7896572 19.40300555 -0.68359375 16.796875 C-0.64169922 15.8171875 -0.59980469 14.8375 -0.55664062 13.828125 C-0.51732422 12.81234375 -0.47800781 11.7965625 -0.4375 10.75 C-0.39431641 9.71875 -0.35113281 8.6875 -0.30664062 7.625 C-0.20074318 5.0834613 -0.09866557 2.54182804 0 0 Z " fill="#B32620" transform="translate(344,62)"/>
<path d="M0 0 C4.75647668 1.49740933 4.75647668 1.49740933 7 3 C8.4375 6.6875 8.4375 6.6875 9 10 C8.34 9.67 7.68 9.34 7 9 C6.34 9.66 5.68 10.32 5 11 C4.15841464 9.73461631 3.32700252 8.46246221 2.5 7.1875 C1.80390625 6.12595703 1.80390625 6.12595703 1.09375 5.04296875 C0 3 0 3 0 0 Z " fill="#0C0808" transform="translate(56,302)"/>
<path d="M0 0 C0.66 0.33 1.32 0.66 2 1 C0.515 2.485 0.515 2.485 -1 4 C-0.67 4.721875 -0.34 5.44375 0 6.1875 C1.00603529 9.01697427 1.16977402 11.02895466 1 14 C-2 10.25 -2 10.25 -2 8 C-2.99 8 -3.98 8 -5 8 C-5.33 6.68 -5.66 5.36 -6 4 C-5.34 4 -4.68 4 -4 4 C-3.67 3.01 -3.34 2.02 -3 1 C-2.01 0.67 -1.02 0.34 0 0 Z " fill="#8E1708" transform="translate(238,213)"/>
<path d="M0 0 C0.99 0 1.98 0 3 0 C3 0.66 3 1.32 3 2 C3.66 2 4.32 2 5 2 C5 2.66 5 3.32 5 4 C7.64 4 10.28 4 13 4 C13 4.33 13 4.66 13 5 C7.06 5 1.12 5 -5 5 C-4.67 4.34 -4.34 3.68 -4 3 C-3.01 3 -2.02 3 -1 3 C-0.67 2.01 -0.34 1.02 0 0 Z " fill="#E60F04" transform="translate(379,94)"/>
<path d="M0 0 C0.66 0.33 1.32 0.66 2 1 C-1.34090909 8.15909091 -1.34090909 8.15909091 -4 10 C-6.6875 10.1875 -6.6875 10.1875 -9 10 C-8.06409496 8.8944811 -7.12620142 7.79064547 -6.1875 6.6875 C-5.66542969 6.07261719 -5.14335937 5.45773438 -4.60546875 4.82421875 C-3.12827531 3.14575321 -1.59960869 1.56117966 0 0 Z " fill="#C71715" transform="translate(373,26)"/>
<path d="M0 0 C3.3 0.66 6.6 1.32 10 2 C10 2.66 10 3.32 10 4 C11.98 4 13.96 4 16 4 C16 4.66 16 5.32 16 6 C9.80481527 5.58411954 4.73310689 4.39748106 -1 2 C-0.67 1.34 -0.34 0.68 0 0 Z " fill="#131213" transform="translate(153,388)"/>
<path d="M0 0 C1.77174819 0.08723378 3.54247377 0.19541655 5.3125 0.3125 C6.29863281 0.37050781 7.28476562 0.42851563 8.30078125 0.48828125 C11.24384457 1.04622813 12.18182999 1.68540132 14 4 C13.34 4 12.68 4 12 4 C11.67 4.99 11.34 5.98 11 7 C10.34 7 9.68 7 9 7 C8.5875 6.525625 8.175 6.05125 7.75 5.5625 C5.34211572 3.41260332 3.14591416 3.34954602 0 3 C0 2.01 0 1.02 0 0 Z " fill="#380A06" transform="translate(380,61)"/>
<path d="M0 0 C-0.95043374 1.33897583 -1.91059147 2.67105427 -2.875 4 C-3.40867187 4.7425 -3.94234375 5.485 -4.4921875 6.25 C-4.98976563 6.8275 -5.48734375 7.405 -6 8 C-6.66 8 -7.32 8 -8 8 C-8.33 8.66 -8.66 9.32 -9 10 C-9 9.01 -9 8.02 -9 7 C-8.34 7 -7.68 7 -7 7 C-7.33 5.02 -7.66 3.04 -8 1 C-4.85571151 -0.9090323 -3.47925125 -1.04523725 0 0 Z " fill="#AF070E" transform="translate(378,41)"/>
<path d="M0 0 C5.0575847 0.47414857 9.01000797 3.00750598 13 6 C13.33 6.66 13.66 7.32 14 8 C3.90882638 4.90009699 3.90882638 4.90009699 0 2 C0 1.34 0 0.68 0 0 Z " fill="#292826" transform="translate(161,300)"/>
<path d="M0 0 C0 4.87716956 -0.16111701 8.71371274 -2.875 12.875 C-5 15 -5 15 -8 16 C-7.71125 15.44570312 -7.4225 14.89140625 -7.125 14.3203125 C-5.5354263 11.04181673 -4.29300311 7.64642226 -3 4.2421875 C-2 2 -2 2 0 0 Z " fill="#400202" transform="translate(261,167)"/>
<path d="M0 0 C0.66 0.33 1.32 0.66 2 1 C1.030625 1.2475 0.06125 1.495 -0.9375 1.75 C-1.948125 2.1625 -2.95875 2.575 -4 3 C-4.33 4.32 -4.66 5.64 -5 7 C-10.445 8.485 -10.445 8.485 -16 10 C-13.57531624 6.36297436 -10.80526815 5.10678747 -7 3.25 C-6.35804688 2.92128906 -5.71609375 2.59257812 -5.0546875 2.25390625 C-3.40188117 1.43441859 -1.70290275 0.70954281 0 0 Z " fill="#3D0103" transform="translate(292,144)"/>
<path d="M0 0 C0.99 0.33 1.98 0.66 3 1 C1.38405168 3.04119788 -0.2856382 5.04072937 -2 7 C-2.66 7 -3.32 7 -4 7 C-4.28875 7.61875 -4.5775 8.2375 -4.875 8.875 C-6 11 -6 11 -8 13 C-8.66 12.34 -9.32 11.68 -10 11 C-6.80830538 7.13636968 -3.54310259 3.54310259 0 0 Z " fill="#41090A" transform="translate(384,72)"/>
<path d="M0 0 C0.33 0.99 0.66 1.98 1 3 C0.01 3.99 -0.98 4.98 -2 6 C-1.01 6.33 -0.02 6.66 1 7 C-0.65 8.32 -2.3 9.64 -4 11 C-4.33 8.69 -4.66 6.38 -5 4 C-4.01 3.67 -3.02 3.34 -2 3 C-2 2.34 -2 1.68 -2 1 C-1.34 0.67 -0.68 0.34 0 0 Z " fill="#761F19" transform="translate(203,224)"/>
<path d="M0 0 C0.66 0.33 1.32 0.66 2 1 C2 1.99 2 2.98 2 4 C-1.14930893 5.04976964 -3.38814456 5.10131595 -6.6875 5.0625 C-7.68136719 5.05347656 -8.67523438 5.04445313 -9.69921875 5.03515625 C-10.83810547 5.01775391 -10.83810547 5.01775391 -12 5 C-11.67 4.34 -11.34 3.68 -11 3 C-7.35346727 1.88578167 -4.66708957 2.05703411 -1 3 C-0.67 2.01 -0.34 1.02 0 0 Z " fill="#0B090A" transform="translate(231,393)"/>
<path d="M0 0 C1.875 1.5 1.875 1.5 3 3 C-1.97063121 3.91297308 -6.02936879 3.91297308 -11 3 C-6.9330464 0.2886976 -4.91725407 -0.4014085 0 0 Z " fill="#121311" transform="translate(253,68)"/>
<path d="M0 0 C3.70982506 0.08123705 6.78808026 0.86523211 10.25 2.25 C7.60261084 3.7106285 6.35551666 4.25 3.25 4.25 C3.25 3.59 3.25 2.93 3.25 2.25 C0.28 2.25 -2.69 2.25 -5.75 2.25 C-3.75 0.25 -3.75 0.25 0 0 Z " fill="#454642" transform="translate(233.75,64.75)"/>
<path d="M0 0 C0.66 0.33 1.32 0.66 2 1 C2.625 4.0625 2.625 4.0625 3 7 C1.9171875 7.4021875 1.9171875 7.4021875 0.8125 7.8125 C-1.97590126 8.98982498 -4.44095724 10.39145884 -7 12 C-7 11.34 -7 10.68 -7 10 C-7.66 9.67 -8.32 9.34 -9 9 C-8.236875 8.9175 -7.47375 8.835 -6.6875 8.75 C-3.40717573 7.83456067 -2.6658786 6.91528755 -1 4 C-0.29485154 1.85266073 -0.29485154 1.85266073 0 0 Z " fill="#2D211B" transform="translate(292,182)"/>
<path d="M0 0 C3.5610865 1.48845413 5.6420874 3.5000687 8.1875 6.375 C8.88230469 7.14585937 9.57710938 7.91671875 10.29296875 8.7109375 C11.93496338 10.91278842 12.59001948 12.31982886 13 15 C8.42265886 10.56570077 4.07873675 5.89853248 0 1 C0 0.67 0 0.34 0 0 Z " fill="#838381" transform="translate(335,141)"/>
<path d="M0 0 C2.44801496 0.97920598 3.74781064 1.57968441 5.125 3.875 C5.41375 4.57625 5.7025 5.2775 6 6 C6.37125 6.7425 6.7425 7.485 7.125 8.25 C7.558125 9.11625 7.558125 9.11625 8 10 C5.625 9.3125 5.625 9.3125 3 8 C1.8125 5.4375 1.8125 5.4375 1 3 C0.34 2.67 -0.32 2.34 -1 2 C-1 2.66 -1 3.32 -1 4 C-1.99 3.67 -2.98 3.34 -4 3 C-2.68 2.01 -1.36 1.02 0 0 Z " fill="#282526" transform="translate(332,138)"/>
<path d="M0 0 C0.33 0 0.66 0 1 0 C1.33 5.61 1.66 11.22 2 17 C3.65 17 5.3 17 7 17 C4.35261084 18.4606285 3.10551666 19 0 19 C-1.09587955 14.75448144 -0.92865836 11.0407161 -0.5625 6.6875 C-0.46066406 5.43324219 -0.35882813 4.17898437 -0.25390625 2.88671875 C-0.17011719 1.93410156 -0.08632813 0.98148438 0 0 Z " fill="#BD2124" transform="translate(397,33)"/>
<path d="M0 0 C0.33 0.66 0.66 1.32 1 2 C0.06421005 4.35981813 -0.93347808 6.69631264 -2 9 C-1.34 9.33 -0.68 9.66 0 10 C-1.32 9.67 -2.64 9.34 -4 9 C-4 8.01 -4 7.02 -4 6 C-4.66 6 -5.32 6 -6 6 C-6 5.01 -6 4.02 -6 3 C-4.02 2.01 -2.04 1.02 0 0 Z " fill="#9F090B" transform="translate(234,207)"/>
<path d="M0 0 C1 2 1 2 0 5.375 C-0.91271472 8.68359085 -1.23058311 9.92354222 0 13 C-0.66 13 -1.32 13 -2 13 C-2.268125 11.865625 -2.53625 10.73125 -2.8125 9.5625 C-3.204375 8.386875 -3.59625 7.21125 -4 6 C-4.99 5.67 -5.98 5.34 -7 5 C-5.5459375 4.5978125 -5.5459375 4.5978125 -4.0625 4.1875 C-3.051875 3.795625 -2.04125 3.40375 -1 3 C-0.67 2.01 -0.34 1.02 0 0 Z " fill="#A61010" transform="translate(360,60)"/>
<path d="M0 0 C0.8353125 0.495 0.8353125 0.495 1.6875 1 C3.97233361 2.17980319 3.97233361 2.17980319 6.5625 1.9375 C9 2 9 2 10.8125 3.5 C11.204375 3.995 11.59625 4.49 12 5 C6.78020872 5.1799928 2.92737019 4.97094808 -2 3 C-1.34 2.01 -0.68 1.02 0 0 Z " fill="#0E0D0F" transform="translate(188,393)"/>
<path d="M0 0 C0.59425781 0.20882812 1.18851562 0.41765625 1.80078125 0.6328125 C0.53191161 1.76002686 -0.73939437 2.88449908 -2.01171875 4.0078125 C-2.71941406 4.63429687 -3.42710937 5.26078125 -4.15625 5.90625 C-6.19921875 7.6328125 -6.19921875 7.6328125 -9.19921875 9.6328125 C-8.99000232 5.97152498 -8.05063524 4.15332431 -5.38671875 1.7578125 C-2.19921875 -0.3671875 -2.19921875 -0.3671875 0 0 Z " fill="#2F0403" transform="translate(314.19921875,124.3671875)"/>
<path d="M0 0 C0.99 0.33 1.98 0.66 3 1 C2.67 1.33 2.34 1.66 2 2 C4.64 3.32 7.28 4.64 10 6 C10 6.66 10 7.32 10 8 C8.5410574 7.52269162 7.08286504 7.04308958 5.625 6.5625 C4.81289062 6.29566406 4.00078125 6.02882813 3.1640625 5.75390625 C1 5 1 5 -1 4 C-0.67 2.68 -0.34 1.36 0 0 Z " fill="#0B0909" transform="translate(139,380)"/>
<path d="M0 0 C1.32 0.33 2.64 0.66 4 1 C4 1.66 4 2.32 4 3 C6.475 3.99 6.475 3.99 9 5 C9 5.66 9 6.32 9 7 C5.2241456 6.47557578 2.77627845 5.67345333 0 3 C0 2.01 0 1.02 0 0 Z " fill="#A1A19F" transform="translate(126,351)"/>
<path d="M0 0 C0.99 0.33 1.98 0.66 3 1 C3.33 2.98 3.66 4.96 4 7 C4.99 7.33 5.98 7.66 7 8 C7.33 8.99 7.66 9.98 8 11 C5.77888714 10.61704951 4.19619717 10.13079812 2.3125 8.875 C0.36694189 6.09563127 0.31331211 3.32110837 0 0 Z " fill="#766563" transform="translate(289,108)"/>
<path d="M0 0 C-0.33 0.99 -0.66 1.98 -1 3 C-1.66 3 -2.32 3 -3 3 C-3 3.66 -3 4.32 -3 5 C-4.53125 6.5078125 -4.53125 6.5078125 -6.5 8.125 C-7.1496875 8.66382813 -7.799375 9.20265625 -8.46875 9.7578125 C-8.9740625 10.16773438 -9.479375 10.57765625 -10 11 C-10.33 10.01 -10.66 9.02 -11 8 C-9.54712339 6.66072279 -8.08752741 5.32873153 -6.625 4 C-5.81289063 3.2575 -5.00078125 2.515 -4.1640625 1.75 C-2 0 -2 0 0 0 Z " fill="#9E2129" transform="translate(312,129)"/>
<path d="M0 0 C0 3.50051525 -0.52511319 4.0126916 -2.75 6.5625 C-3.26046875 7.16191406 -3.7709375 7.76132813 -4.296875 8.37890625 C-6.08620137 10.08204947 -7.74733705 11.01568423 -10 12 C-10 10.68 -10 9.36 -10 8 C-7.25 6 -7.25 6 -4 4 C-2.63113049 2.70317626 -1.2830709 1.38176866 0 0 Z " fill="#36080C" transform="translate(348,109)"/>
<path d="M0 0 C2.75 0.125 2.75 0.125 6 1 C10 5.94736842 10 5.94736842 10 9 C9.01 8.67 8.02 8.34 7 8 C6.67 7.01 6.34 6.02 6 5 C3.99983534 3.79117904 3.99983534 3.79117904 2 3 C2 2.34 2 1.68 2 1 C1.34 0.67 0.68 0.34 0 0 Z " fill="#393937" transform="translate(128,351)"/>
<path d="M0 0 C0.66 0.66 1.32 1.32 2 2 C1.401875 2.4125 0.80375 2.825 0.1875 3.25 C-2.07622793 4.90892198 -2.07622793 4.90892198 -3.625 7.1875 C-4.305625 8.0846875 -4.305625 8.0846875 -5 9 C-5.66 9 -6.32 9 -7 9 C-6.3125 5.625 -6.3125 5.625 -5 2 C-2.375 0.5625 -2.375 0.5625 0 0 Z " fill="#B80104" transform="translate(240,204)"/>
<path d="M0 0 C1.32 0.33 2.64 0.66 4 1 C0.83047153 4.26008643 -2.39937989 7.22237877 -6 10 C-4.52307692 4.33846154 -4.52307692 4.33846154 -1.875 2.625 C-0.946875 2.315625 -0.946875 2.315625 0 2 C0 1.34 0 0.68 0 0 Z " fill="#860C0F" transform="translate(264,186)"/>
<path d="M0 0 C0 2 0 2 -1.64453125 3.65625 C-2.35996094 4.2646875 -3.07539063 4.873125 -3.8125 5.5 C-4.87404297 6.41265625 -4.87404297 6.41265625 -5.95703125 7.34375 C-8 9 -8 9 -11 11 C-9.08029626 6.46251842 -5.43285968 0 0 0 Z " fill="#5C030A" transform="translate(319,137)"/>
<path d="M0 0 C0.66 0 1.32 0 2 0 C1.67 1.98 1.34 3.96 1 6 C-1.31 6.33 -3.62 6.66 -6 7 C-5.04882866 5.8274869 -4.08882991 4.66212985 -3.125 3.5 C-2.59132813 2.8503125 -2.05765625 2.200625 -1.5078125 1.53125 C-0.76144531 0.77328125 -0.76144531 0.77328125 0 0 Z " fill="#5D090E" transform="translate(378,54)"/>
<path d="M0 0 C0.33 0.99 0.66 1.98 1 3 C0.01 3.33 -0.98 3.66 -2 4 C-2 4.99 -2 5.98 -2 7 C-0.35 7 1.3 7 3 7 C3 7.33 3 7.66 3 8 C0.36 8 -2.28 8 -5 8 C-4.45773019 4.20411134 -2.79872437 2.52788007 0 0 Z " fill="#CB2326" transform="translate(365,92)"/>
<path d="M0 0 C0.33 0.66 0.66 1.32 1 2 C1.99 2 2.98 2 4 2 C3.67 3.98 3.34 5.96 3 8 C2.01 7.67 1.02 7.34 0 7 C-1.17755913 4.05610218 -1.03348696 3.10046087 0 0 Z " fill="#342320" transform="translate(292,108)"/>
<path d="M0 0 C2.475 0.99 2.475 0.99 5 2 C4.2265625 2.37125 4.2265625 2.37125 3.4375 2.75 C0.22815849 4.39581616 -2.87585664 6.1976096 -6 8 C-4.55746343 4.63408134 -2.66735273 2.48952921 0 0 Z " fill="#190607" transform="translate(338,92)"/>
<path d="M0 0 C-0.55774272 3.23490776 -1.37211508 4.97855006 -4 7 C-4.99 7 -5.98 7 -7 7 C-3.86206897 0 -3.86206897 0 0 0 Z " fill="#BD1A1D" transform="translate(388,13)"/>
<path d="M0 0 C0.66 0.33 1.32 0.66 2 1 C0.90081184 1.98475214 -0.2045602 2.96260473 -1.3125 3.9375 C-1.92738281 4.48277344 -2.54226563 5.02804688 -3.17578125 5.58984375 C-5 7 -5 7 -8 8 C-8 7.01 -8 6.02 -8 5 C-6.3203125 3.578125 -6.3203125 3.578125 -4.125 2.25 C-3.40570313 1.80140625 -2.68640625 1.3528125 -1.9453125 0.890625 C-1.30335938 0.59671875 -0.66140625 0.3028125 0 0 Z " fill="#780106" transform="translate(289,148)"/>
<path d="M0 0 C2.31 0 4.62 0 7 0 C7 0.99 7 1.98 7 3 C4.69 3.33 2.38 3.66 0 4 C0 2.68 0 1.36 0 0 Z " fill="#201F1B" transform="translate(223,63)"/>
<path d="M0 0 C0.99 0.33 1.98 0.66 3 1 C0.69 3.64 -1.62 6.28 -4 9 C-5 7 -5 7 -4.8125 5.0625 C-3.74742748 2.35885438 -2.51556255 1.40575554 0 0 Z " fill="#9E0A0E" transform="translate(366,51)"/>
<path d="M0 0 C0.598125 0.20625 1.19625 0.4125 1.8125 0.625 C-1.1575 3.1 -1.1575 3.1 -4.1875 5.625 C-4.5175 4.305 -4.8475 2.985 -5.1875 1.625 C-2.1875 -0.375 -2.1875 -0.375 0 0 Z " fill="#84090D" transform="translate(256.1875,196.375)"/>
<path d="M0 0 C0.99 0.66 1.98 1.32 3 2 C2.34 3.32 1.68 4.64 1 6 C-0.65 5.67 -2.3 5.34 -4 5 C-2.68 3.35 -1.36 1.7 0 0 Z " fill="#4D382A" transform="translate(280,184)"/>
<path d="M0 0 C2.0625 0.4375 2.0625 0.4375 4 1 C3.01 1.495 3.01 1.495 2 2 C1.34227572 5.02934491 1.34227572 5.02934491 1 8 C0.34 8 -0.32 8 -1 8 C-1.04241723 5.66705225 -1.04092937 3.33297433 -1 1 C-0.67 0.67 -0.34 0.34 0 0 Z " fill="#0E0B0C" transform="translate(306,111)"/>
<path d="M0 0 C0.33 0 0.66 0 1 0 C1.03738281 0.69867188 1.07476562 1.39734375 1.11328125 2.1171875 C1.21189453 3.48230469 1.21189453 3.48230469 1.3125 4.875 C1.37050781 5.77992187 1.42851562 6.68484375 1.48828125 7.6171875 C1.7882039 10.36221601 1.7882039 10.36221601 5 12 C4.01 12 3.02 12 2 12 C1.67 12.99 1.34 13.98 1 15 C0.67 15 0.34 15 0 15 C0 10.05 0 5.1 0 0 Z " fill="#D41A14" transform="translate(345,70)"/>
<path d="M0 0 C0.66 0.33 1.32 0.66 2 1 C0.55373881 4.81287042 -1.30194812 6.32707177 -5 8 C-7.3125 7.6875 -7.3125 7.6875 -9 7 C-7.88625 6.38125 -7.88625 6.38125 -6.75 5.75 C-4.09828315 4.06254382 -2.13325986 2.29127911 0 0 Z " fill="#B61210" transform="translate(399,76)"/>
<path d="M0 0 C0.78375 0.04125 1.5675 0.0825 2.375 0.125 C0.75160195 1.83384005 -0.91819053 3.49946717 -2.625 5.125 C-3.285 5.125 -3.945 5.125 -4.625 5.125 C-4.955 5.785 -5.285 6.445 -5.625 7.125 C-4.53409091 0.21590909 -4.53409091 0.21590909 0 0 Z " fill="#2A0200" transform="translate(205.625,219.875)"/>
<path d="M0 0 C0.99 0.33 1.98 0.66 3 1 C2.67 1.99 2.34 2.98 2 4 C-1.0625 5.1875 -1.0625 5.1875 -4 6 C-3.67 4.68 -3.34 3.36 -3 2 C-2.34 2.33 -1.68 2.66 -1 3 C-0.67 2.01 -0.34 1.02 0 0 Z " fill="#C50B0D" transform="translate(236,210)"/>
<path d="M0 0 C4.95 0.99 4.95 0.99 10 2 C10 2.66 10 3.32 10 4 C6.53058454 3.54177532 3.32604951 3.10868317 0 2 C0 1.34 0 0.68 0 0 Z " fill="#1B1017" transform="translate(261,97)"/>
<path d="M0 0 C1 3 1 3 0.0625 5.1875 C-0.4634375 6.0846875 -0.4634375 6.0846875 -1 7 C-1.99 7 -2.98 7 -4 7 C-2.92598892 4.08482708 -2.22189824 2.22189824 0 0 Z " fill="#CE141B" transform="translate(404,72)"/>
<path d="M0 0 C3.125 -0.1875 3.125 -0.1875 6 0 C6 1.32 6 2.64 6 4 C5.34 4 4.68 4 4 4 C4 3.34 4 2.68 4 2 C2.02 2.33 0.04 2.66 -2 3 C-1.34 2.01 -0.68 1.02 0 0 Z " fill="#D7293F" transform="translate(389,10)"/>
<path d="M0 0 C-0.375 1.9375 -0.375 1.9375 -1 4 C-1.99 4.495 -1.99 4.495 -3 5 C-3 4.34 -3 3.68 -3 3 C-4.32 3.33 -5.64 3.66 -7 4 C-6.67 3.01 -6.34 2.02 -6 1 C-3 0 -3 0 0 0 Z " fill="#811B12" transform="translate(228,222)"/>
<path d="M0 0 C0 2.83967231 -0.40267181 5.23735711 -1 8 C-2.32 8.33 -3.64 8.66 -5 9 C-3.90931332 5.22454612 -3.0916909 2.52956528 0 0 Z " fill="#83010B" transform="translate(266,166)"/>
<path d="M0 0 C0.33 0.66 0.66 1.32 1 2 C1.99 2.33 2.98 2.66 4 3 C3.01 4.485 3.01 4.485 2 6 C0.68 5.34 -0.64 4.68 -2 4 C-1.34 2.68 -0.68 1.36 0 0 Z " fill="#2D0202" transform="translate(367,64)"/>
<path d="M0 0 C6.625 -0.25 6.625 -0.25 10 2 C6.30458414 2.95024979 3.69541586 2.95024979 0 2 C0 1.34 0 0.68 0 0 Z " fill="#0B0B0B" transform="translate(169,361)"/>
<path d="M0 0 C2.475 0.495 2.475 0.495 5 1 C5.33 3.31 5.66 5.62 6 8 C3 4.25 3 4.25 3 2 C2.01 2 1.02 2 0 2 C0 1.34 0 0.68 0 0 Z " fill="#611F12" transform="translate(233,219)"/>
<path d="M0 0 C0.66 0 1.32 0 2 0 C2 1.65 2 3.3 2 5 C2.66 5 3.32 5 4 5 C3.67 5.99 3.34 6.98 3 8 C2.01 7.67 1.02 7.34 0 7 C0 4.69 0 2.38 0 0 Z " fill="#0A0203" transform="translate(224,210)"/>
<path d="M0 0 C1.32 0.33 2.64 0.66 4 1 C1.36 2.98 -1.28 4.96 -4 7 C-2.73033708 1.92134831 -2.73033708 1.92134831 0 0 Z " fill="#B91E14" transform="translate(411,83)"/>
<path d="M0 0 C0.66 0.33 1.32 0.66 2 1 C0.35 2.65 -1.3 4.3 -3 6 C-3.66 5.67 -4.32 5.34 -5 5 C-4.1875 3.0625 -4.1875 3.0625 -3 1 C-2.01 0.67 -1.02 0.34 0 0 Z " fill="#A93C33" transform="translate(347,83)"/>
<path d="M0 0 C1.0625 1.8125 1.0625 1.8125 2 4 C1.67 4.99 1.34 5.98 1 7 C0.34 7 -0.32 7 -1 7 C-1 6.01 -1 5.02 -1 4 C-1.66 3.67 -2.32 3.34 -3 3 C-2.01 2.01 -1.02 1.02 0 0 Z " fill="#CC0813" transform="translate(379,36)"/>
<path d="M0 0 C2.475 0.99 2.475 0.99 5 2 C5 2.99 5 3.98 5 5 C4.67 4.67 4.34 4.34 4 4 C3.34 4.66 2.68 5.32 2 6 C0 3 0 3 0 0 Z " fill="#1A1414" transform="translate(59,307)"/>
<path d="M0 0 C2.475 0.99 2.475 0.99 5 2 C4.01 2.495 4.01 2.495 3 3 C2.67 3.99 2.34 4.98 2 6 C1.34 6 0.68 6 0 6 C0 4.02 0 2.04 0 0 Z " fill="#540805" transform="translate(389,62)"/>
<path d="M0 0 C1.98 0 3.96 0 6 0 C4.68 1.32 3.36 2.64 2 4 C2.99 4.33 3.98 4.66 5 5 C3.35 4.67 1.7 4.34 0 4 C0 2.68 0 1.36 0 0 Z " fill="#4A0E05" transform="translate(203,237)"/>
<path d="M0 0 C0.33 0.66 0.66 1.32 1 2 C-0.3125 4 -0.3125 4 -2 6 C-2.99 6 -3.98 6 -5 6 C-5 6.66 -5 7.32 -5 8 C-5.66 7.67 -6.32 7.34 -7 7 C-5.71034824 5.62437146 -4.37310707 4.29233607 -3 3 C-2.34 3 -1.68 3 -1 3 C-0.67 2.01 -0.34 1.02 0 0 Z " fill="#4C0402" transform="translate(225,227)"/>
<path d="M0 0 C2.31 0 4.62 0 7 0 C7.33 0.99 7.66 1.98 8 3 C5.6568787 2.74438677 3.32156597 2.40729228 1 2 C0.67 1.34 0.34 0.68 0 0 Z " fill="#1A0E10" transform="translate(281,103)"/>
<path d="M0 0 C1.32 0.33 2.64 0.66 4 1 C3.360625 1.103125 2.72125 1.20625 2.0625 1.3125 C1.0415625 1.6528125 1.0415625 1.6528125 0 2 C-0.33 2.99 -0.66 3.98 -1 5 C-3.0625 5.6875 -3.0625 5.6875 -5 6 C-3.35 4.02 -1.7 2.04 0 0 Z " fill="#C32024" transform="translate(371,86)"/>
<path d="M0 0 C2.97 0 5.94 0 9 0 C9.33 1.65 9.66 3.3 10 5 C9.649375 4.525625 9.29875 4.05125 8.9375 3.5625 C6.15836457 1.32126175 3.4855283 1.32882342 0 1 C0 0.67 0 0.34 0 0 Z " fill="#EA2128" transform="translate(425,54)"/>
<path d="M0 0 C0.66 0 1.32 0 2 0 C2.33 0.99 2.66 1.98 3 3 C2.34 3.66 1.68 4.32 1 5 C0.01 5 -0.98 5 -2 5 C-1.125 1.125 -1.125 1.125 0 0 Z " fill="#DD201A" transform="translate(359,39)"/>
</svg>