<?xml version="1.0" encoding="UTF-8"?>
<svg version="1.1" xmlns="http://www.w3.org/2000/svg" width="340" height="454">
<path d="M0 0 C33 0 66 0 100 0 C100 0.66 100 1.32 100 2 C100.55985596 1.98952637 101.11971191 1.97905273 101.6965332 1.96826172 C104.23514307 1.92666674 106.7736812 1.90066315 109.3125 1.875 C110.19357422 1.85824219 111.07464844 1.84148438 111.98242188 1.82421875 C112.82998047 1.81777344 113.67753906 1.81132812 114.55078125 1.8046875 C115.33106689 1.79421387 116.11135254 1.78374023 116.9152832 1.77294922 C119 2 119 2 122 4 C123.7574334 4.68145377 125.53030491 5.32371497 127.3125 5.9375 C134.50820347 8.51887588 140.68589791 11.35573181 146 17 C146 17.66 146 18.32 146 19 C146.66 19 147.32 19 148 19 C154.67635394 26.72549527 158.27272234 36.39149838 158.7265625 46.515625 C158.93359422 49.14973242 158.93359422 49.14973242 160.0024786 52.14343643 C161.06297151 56.24345706 161.27103679 59.99232109 161.23377991 64.18939209 C161.23478319 64.98678936 161.23578647 65.78418664 161.23682016 66.60574746 C161.23776901 69.26558642 161.22445288 71.92515783 161.21118164 74.58496094 C161.20897838 76.50009075 161.20767451 78.41522177 161.2071991 80.33035278 C161.2042656 84.45917875 161.19501365 88.58792547 161.18089485 92.71672821 C161.15845115 99.31165954 161.15050404 105.90656208 161.14439392 112.50152588 C161.13169938 124.20380178 161.10666445 135.90602754 161.07904053 147.60827637 C161.03288257 167.23674865 161.00083667 186.86524609 160.97695875 206.49375725 C160.97265675 209.85898302 160.96762883 213.22420714 160.96251297 216.58943176 C160.92216347 244.8242197 160.99755231 273.04562075 161.72901917 301.2723999 C161.98401535 311.54896745 162.03259601 321.78239973 161.66430664 332.05761719 C161.63335876 333.04587116 161.60241087 334.03412514 161.57052517 335.0523262 C161.23322299 342.81922349 159.84726977 349.1381572 156 356 C155.60167969 356.72574219 155.20335937 357.45148438 154.79296875 358.19921875 C148.64862714 367.64776823 137.53942427 375.05249926 126.69432068 377.52583313 C93.33586472 383.39650575 57.11219561 380.34332334 23.30133879 380.31367958 C17.15103976 380.30967538 11.00088569 380.3244749 4.85061973 380.3432439 C-1.17242911 380.36092958 -7.19541436 380.3668528 -13.21848816 380.36360615 C-16.77757219 380.36181411 -20.33651107 380.36422289 -23.89557076 380.37832069 C-27.8400468 380.39338446 -31.78426799 380.38386795 -35.72875977 380.37231445 C-36.87015411 380.37995819 -38.01154846 380.38760193 -39.18753052 380.39547729 C-53.65237266 380.30242638 -67.51593457 377.4776973 -78.6015625 367.70703125 C-91.33267084 354.31594906 -93.29583425 340.58494175 -93.625 322.9375 C-93.64401367 322.09037445 -93.66302734 321.2432489 -93.68261719 320.37045288 C-93.96712699 307.67201677 -94.02882517 294.97453695 -94.0234375 282.2734375 C-94.02316181 281.55402292 -94.02288612 280.83460835 -94.02260208 280.09339333 C-94.01857991 272.83715474 -94.00542308 265.58102363 -93.9725132 258.3248558 C-93.96354414 256.24701904 -93.95660433 254.16918566 -93.9503479 252.09133911 C-93.94199133 249.52424358 -93.92949892 246.95715705 -93.91220093 244.3901062 C-93.90894806 243.24019196 -93.90569519 242.09027771 -93.90234375 240.90551758 C-93.89710693 239.90555252 -93.89187012 238.90558746 -93.88647461 237.87532043 C-93.93341022 234.97802032 -93.93341022 234.97802032 -94.5322113 232.08314514 C-95.07472977 228.5074641 -94.86584353 225.3721075 -94.58227539 221.76416016 C-93.99357855 212.96263607 -93.85803525 204.16715765 -93.79467773 195.34912109 C-93.78674657 194.26468432 -93.78674657 194.26468432 -93.77865517 193.15833974 C-93.74612295 188.50909139 -93.72058508 183.85982081 -93.69667697 179.21052122 C-93.67448521 175.07673918 -93.64724828 170.94299004 -93.62062073 166.80923462 C-93.57663086 159.87511669 -93.53580137 152.94098652 -93.49731445 146.00683594 C-93.4433084 136.27699477 -93.38371433 126.54719386 -93.32291877 116.81739306 C-93.24141128 103.72730246 -93.16161523 90.63719819 -93.08810806 77.54706001 C-93.08019811 76.14761456 -93.07214287 74.74816991 -93.06391716 73.34872627 C-93.05257277 71.41098408 -93.04189715 69.47323801 -93.03123474 67.53549194 C-93.02324293 66.30486401 -93.01525112 65.07423607 -93.00701714 63.80631638 C-93.0020708 61.12326749 -93.01498427 58.44498066 -93.05031013 55.7625618 C-93.0572011 55.0546445 -93.06409207 54.34672719 -93.07119185 53.61735785 C-93.09160383 51.65210646 -93.12047207 49.68694808 -93.14991856 47.72181129 C-92.64205399 35.11379186 -87.72192243 24.40310367 -79.375 15.0625 C-78.59125 14.381875 -77.8075 13.70125 -77 13 C-76.278125 12.319375 -75.55625 11.63875 -74.8125 10.9375 C-54.05892866 -3.3594047 -23.81748441 0.55928077 0 1 C0 0.67 0 0.34 0 0 Z M6 28 C6.66 29.32 7.32 30.64 8 32 C11.11766637 32.63746698 13.83227716 32.87845547 17 33 C17.63270813 33.02572083 18.26541626 33.05144165 18.91729736 33.07794189 C24.29786871 33.28996022 29.67948585 33.42999337 35.0625 33.5625 C36.70769144 33.60577319 38.35287389 33.64939002 39.99804688 33.69335938 C43.99860506 33.79953838 47.99925663 33.90105517 52 34 C52.33 32.02 52.66 30.04 53 28 C37.49 28 21.98 28 6 28 Z M-61.24047852 35.48632812 C-66.02966395 42.32821147 -67.58564045 47.69940918 -67.43823242 56.04248047 C-67.43721024 57.01625641 -67.43618805 57.99003235 -67.43513489 58.99331665 C-67.42727703 62.20165854 -67.39126672 65.40904621 -67.35546875 68.6171875 C-67.34544597 70.87516526 -67.33736759 73.13315241 -67.33113098 75.3911438 C-67.31021581 81.34237788 -67.26622651 87.29320905 -67.21636963 93.2442627 C-67.14116723 102.70195809 -67.10232605 112.15987984 -67.06087685 121.61777115 C-67.04356618 124.87961484 -67.01733792 128.14127879 -66.98930359 131.40304565 C-66.90427175 143.48830837 -67.11467839 155.51678356 -67.72996044 167.58880424 C-67.77861405 168.61662073 -67.82726767 169.64443722 -67.87739563 170.70339966 C-67.92480046 171.60730501 -67.9722053 172.51121037 -68.02104664 173.44250679 C-67.99918762 176.09871646 -67.52244861 178.40048551 -67 181 C-66.90335038 183.15358538 -66.8583035 185.30975383 -66.84851074 187.46548462 C-66.84016708 188.77221634 -66.83182343 190.07894806 -66.82322693 191.42527771 C-66.81891801 192.86636328 -66.81469417 194.30744911 -66.81054688 195.74853516 C-66.80260052 197.2714816 -66.79421225 198.79442579 -66.78541565 200.31736755 C-66.76738611 203.59234588 -66.75236094 206.86731934 -66.73963928 210.14232254 C-66.71939518 215.31874018 -66.69174744 220.49510204 -66.66296387 225.67147827 C-66.59781333 237.5909403 -66.5423188 249.51044363 -66.48697662 261.42995453 C-66.4361391 272.36031931 -66.38327402 283.29066377 -66.32245111 294.22097814 C-66.29408542 299.369167 -66.27049605 304.5173492 -66.25052643 309.66557717 C-66.23715374 312.86371064 -66.21974109 316.06181275 -66.20121574 319.25992012 C-66.19345088 320.74543402 -66.18738516 322.2309579 -66.18312263 323.71648598 C-66.17708701 325.74050334 -66.16446869 327.76449792 -66.15148926 329.78848267 C-66.14633553 330.92224649 -66.14118179 332.05601032 -66.13587189 333.22413063 C-65.97655953 336.47889004 -65.62992218 338.35241646 -63.328125 340.71875 C-62.64234375 341.3065625 -61.9565625 341.894375 -61.25 342.5 C-60.57453125 343.0878125 -59.8990625 343.675625 -59.203125 344.28125 C-53.60841673 348.64591603 -49.86767101 349.45948417 -42.91015625 349.51171875 C-41.54541672 349.53878151 -41.54541672 349.53878151 -40.15310669 349.56639099 C-37.12294338 349.62186094 -34.09299403 349.65530547 -31.0625 349.6875 C-28.8994853 349.71986944 -26.73648075 349.75292401 -24.57348633 349.78662109 C-17.71583893 349.88548293 -10.85814357 349.94769732 -4 350 C-2.38188416 350.0129007 -2.38188416 350.0129007 -0.7310791 350.02606201 C14.86708523 350.14407229 30.46301086 350.1194168 46.06121826 350.02282715 C48.80687308 350.00691475 51.55248489 349.99268554 54.29815674 349.9810791 C62.71862057 349.94546592 71.13868116 349.89569621 79.5588274 349.81288338 C83.32281295 349.7759569 87.08659746 349.74488157 90.85073853 349.72955322 C94.39197603 349.71456704 97.93253103 349.6803211 101.47346306 349.63181686 C103.40127805 349.61004865 105.32928046 349.60752763 107.25721741 349.60562134 C115.98905539 349.45835428 122.0700305 347.8880603 128.875 342.125 C129.70644531 341.44824219 129.70644531 341.44824219 130.5546875 340.7578125 C133.86958844 336.72617622 134.25191538 331.889376 134.2784729 326.84301758 C134.28963638 325.62646988 134.30079987 324.40992218 134.31230164 323.1565094 C134.3146673 321.81918366 134.31684282 320.48185758 134.31884766 319.14453125 C134.32815967 317.72341856 134.33833021 316.30231127 134.34928894 314.88121033 C134.3766589 311.00662883 134.39179205 307.13208409 134.40471697 303.25743103 C134.42054007 299.11787004 134.44733239 294.97837837 134.4727478 290.83886719 C134.51436948 283.81073166 134.54874727 276.78259146 134.578125 269.75439453 C134.6182952 260.14786967 134.67142988 250.5414535 134.7274102 240.93500972 C134.89376312 212.0721711 135.01767094 183.2095566 134.99829102 154.34619141 C134.9977848 153.46181884 134.99727859 152.57744628 134.99675703 151.66627455 C134.99176463 143.17961571 134.98416929 134.69298477 134.96408051 126.20634711 C134.9168845 105.28660454 135.14622841 84.40039365 135.99543476 63.49422836 C136.34988282 53.50292162 135.88947882 42.87369009 129 35 C123.3963098 30.76864209 119.34985821 29.8522064 112.48828125 29.90234375 C111.76005661 29.9037587 111.03183197 29.90517365 110.28153992 29.90663147 C107.95848461 29.91222341 105.63552612 29.92477438 103.3125 29.9375 C101.73632952 29.94251604 100.16015752 29.94707877 98.58398438 29.95117188 C94.72261902 29.9621902 90.86132592 29.97944926 87 30 C86.8153418 30.74838135 86.63068359 31.4967627 86.44042969 32.26782227 C86.18680664 33.25322998 85.93318359 34.2386377 85.671875 35.25390625 C85.4253418 36.2291626 85.17880859 37.20441895 84.92480469 38.20922852 C82.87437868 44.39677331 78.62189549 48.08121438 72.98681641 51.16821289 C69.41168213 52.66495441 65.89800373 52.68561238 62.0625 52.75 C61.15588623 52.77819824 60.24927246 52.80639648 59.31518555 52.83544922 C55.87659839 52.92409105 52.43958347 52.96634627 49 53 C48.24146729 53.00753296 47.48293457 53.01506592 46.70141602 53.02282715 C40.57181064 53.0802865 34.44234567 53.10967939 28.3125 53.125 C27.44110382 53.12786011 26.56970764 53.13072021 25.67190552 53.13366699 C-3.43457362 53.20074444 -3.43457362 53.20074444 -14 46 C-17.11654534 42.68570432 -18.18827836 38.51305194 -19.58984375 34.26953125 C-19.85531006 33.46749268 -20.12077637 32.6654541 -20.39428711 31.83911133 C-20.59417236 31.23220459 -20.79405762 30.62529785 -21 30 C-25.53465657 29.80055642 -30.06670402 29.65631626 -34.60473633 29.56054688 C-36.14425166 29.52058876 -37.6834687 29.46619742 -39.22192383 29.39648438 C-47.94268475 29.0115368 -54.72409117 28.86493111 -61.24047852 35.48632812 Z " fill="#0D0D0D" transform="translate(140,27)"/>
<path d="M0 0 C0.69480469 0.22341064 1.38960937 0.44682129 2.10546875 0.67700195 C7.27620167 2.41048289 11.65103316 4.46017139 16 7.8125 C16 8.4725 16 9.1325 16 9.8125 C16.66 9.8125 17.32 9.8125 18 9.8125 C18 10.4725 18 11.1325 18 11.8125 C18.99 12.1425 19.98 12.4725 21 12.8125 C24 17.14583333 24 17.14583333 24 19.8125 C24.66 19.8125 25.32 19.8125 26 19.8125 C26.226875 19.090625 26.45375 18.36875 26.6875 17.625 C30.9104927 8.57572993 41.23402623 3.52874823 50 -0.1875 C59.5524302 -3.05593513 68.71058294 -2.97727592 78 0.8125 C88.47334877 7.08748051 93.75614031 16.22553245 97.2421875 27.6796875 C101.04194879 43.387979 97.31715566 56.58789884 89.12792969 70.05957031 C84.70084306 76.93976121 79.36801024 82.86375632 73.0859375 88.078125 C70.7192109 90.04596509 68.45844278 92.10998137 66.1875 94.1875 C60.03688506 99.7362199 53.61010519 104.92737495 47.140625 110.09765625 C41.95723442 114.27157435 37.11360502 118.52085889 32.55859375 123.37890625 C31 124.8125 31 124.8125 29 124.8125 C28.34 126.4625 27.68 128.1125 27 129.8125 C24 129.8125 24 129.8125 21.8125 127.9375 C20 125.8125 20 125.8125 20 123.8125 C19.34 123.8125 18.68 123.8125 18 123.8125 C18 123.1525 18 122.4925 18 121.8125 C17.01 121.4825 16.02 121.1525 15 120.8125 C13.85040713 119.69671868 12.70648441 118.57426967 11.59765625 117.41796875 C9.57286957 115.38328091 7.45233186 113.4756402 5.3125 111.5625 C4.54550781 110.87671875 3.77851563 110.1909375 2.98828125 109.484375 C1.10201336 107.76627855 1.10201336 107.76627855 -1 106.8125 C-1 106.1525 -1 105.4925 -1 104.8125 C-1.54527344 104.58433594 -2.09054688 104.35617187 -2.65234375 104.12109375 C-5.67393362 102.43684648 -8.05659138 100.22629825 -10.5625 97.875 C-11.0877124 97.38555908 -11.6129248 96.89611816 -12.15405273 96.3918457 C-13.77592044 94.87218121 -15.38873802 93.34339732 -17 91.8125 C-17.9384375 90.92820312 -18.876875 90.04390625 -19.84375 89.1328125 C-30.89583942 78.43007074 -45.95093928 63.66314066 -46.23828125 47.52734375 C-46.2689367 44.93495904 -46.29340946 42.34249567 -46.3125 39.75 C-46.34150391 38.46416016 -46.37050781 37.17832031 -46.40039062 35.85351562 C-46.47027298 25.32278199 -44.51520697 15.64084059 -37 7.8125 C-26.1397027 -1.65091124 -13.64695694 -4.49985219 0 0 Z M-27.09375 19.26171875 C-32.65107504 26.69805738 -34.32037992 34.65163401 -33 43.8125 C-31.77276823 48.06539535 -30.01207413 51.87668671 -28 55.8125 C-27.43023437 56.94945312 -26.86046875 58.08640625 -26.2734375 59.2578125 C-18.13615658 74.80177592 -5.22420556 85.94092018 8.40234375 96.6953125 C20.4895719 106.54685785 20.4895719 106.54685785 24 111.8125 C27.81122755 110.25977767 30.21565964 107.73111058 33 104.8125 C37.77799485 99.93381944 42.60700752 95.20327283 47.77734375 90.7421875 C64.04208032 76.621309 80.84055285 61.02087874 85.25 38.9375 C85.67913236 31.96974562 81.64939881 25.49473883 78 19.8125 C73.49402098 14.89564143 69.51112866 11.73101541 62.6875 11.375 C52.86536238 11.7691995 43.30303204 18.20103384 36.765625 25.20703125 C33.09663483 29.69671659 29.89008999 34.32735367 27.10546875 39.4140625 C26.74066406 39.87554687 26.37585938 40.33703125 26 40.8125 C25.01 40.8125 24.02 40.8125 23 40.8125 C22.59910156 39.99007812 22.19820312 39.16765625 21.78515625 38.3203125 C15.91967166 26.80215002 9.04935187 17.45217937 -3 11.8125 C-6.02614927 10.83362726 -8.82633306 10.64918953 -12 10.625 C-12.845625 10.61082031 -13.69125 10.59664062 -14.5625 10.58203125 C-20.44125579 11.13787515 -23.43255251 14.97893736 -27.09375 19.26171875 Z " fill="#CF1311" transform="translate(148,158.1875)"/>
<path d="M0 0 C0.69480469 0.22341064 1.38960937 0.44682129 2.10546875 0.67700195 C7.27620167 2.41048289 11.65103316 4.46017139 16 7.8125 C16 8.4725 16 9.1325 16 9.8125 C16.66 9.8125 17.32 9.8125 18 9.8125 C18 10.4725 18 11.1325 18 11.8125 C18.99 12.1425 19.98 12.4725 21 12.8125 C24 17.14583333 24 17.14583333 24 19.8125 C24.66 19.8125 25.32 19.8125 26 19.8125 C26.226875 19.090625 26.45375 18.36875 26.6875 17.625 C30.9104927 8.57572993 41.23402623 3.52874823 50 -0.1875 C59.5524302 -3.05593513 68.71058294 -2.97727592 78 0.8125 C88.47334877 7.08748051 93.75614031 16.22553245 97.2421875 27.6796875 C101.06799864 43.49566963 97.18611225 56.50370434 89.11425781 70.12060547 C87.29380583 72.8847887 85.18001349 75.32485394 83 77.8125 C82.0564559 75.27350862 81.83093975 74.20340725 82.92578125 71.671875 C83.38339844 70.97578125 83.84101563 70.2796875 84.3125 69.5625 C84.76238281 68.85609375 85.21226562 68.1496875 85.67578125 67.421875 C86.11277344 66.89078125 86.54976562 66.3596875 87 65.8125 C87.66 65.8125 88.32 65.8125 89 65.8125 C87.73053486 60.98807816 87.73053486 60.98807816 84 57.8125 C84 58.4725 84 59.1325 84 59.8125 C83.34 59.8125 82.68 59.8125 82 59.8125 C81.67 60.8025 81.34 61.7925 81 62.8125 C80.34 62.4825 79.68 62.1525 79 61.8125 C78.896875 62.451875 78.79375 63.09125 78.6875 63.75 C78.460625 64.430625 78.23375 65.11125 78 65.8125 C76.515 66.3075 76.515 66.3075 75 66.8125 C74.62875 68.235625 74.62875 68.235625 74.25 69.6875 C73 72.8125 73 72.8125 69.4375 74.5 C68.303125 74.933125 67.16875 75.36625 66 75.8125 C65.505 77.2975 65.505 77.2975 65 78.8125 C64.175 79.245625 63.35 79.67875 62.5 80.125 C59.66976425 81.63209514 59.66976425 81.63209514 59.1875 85 C59.125625 85.928125 59.06375 86.85625 59 87.8125 C57.9275 87.895 56.855 87.9775 55.75 88.0625 C51.7261549 88.86726902 50.51830747 89.68979874 48 92.8125 C47.34 92.4825 46.68 92.1525 46 91.8125 C46.4626123 91.3906543 46.92522461 90.96880859 47.40185547 90.53417969 C72.77519768 67.74878139 72.77519768 67.74878139 84.37890625 36.60546875 C83.69245508 31.54554516 81.12222041 27.21933688 78.6640625 22.81640625 C77 19.8125 77 19.8125 76 16.8125 C73.6569191 15.69164688 73.6569191 15.69164688 71 14.8125 C70.3709375 14.47089844 69.741875 14.12929687 69.09375 13.77734375 C64.80662017 11.80174474 60.15320357 12.17018843 55.6953125 13.5 C50.78830061 15.53751359 46.73522334 18.2892066 42.62890625 21.640625 C41 22.8125 41 22.8125 39 22.8125 C38.60941406 23.66714844 38.60941406 23.66714844 38.2109375 24.5390625 C36.89944765 27.00127893 35.37148389 29.01392835 33.625 31.1875 C30.89538269 34.63513773 28.37220793 38.11185563 26 41.8125 C24.19921875 41.68359375 24.19921875 41.68359375 22 40.8125 C20.39453125 38.22265625 20.39453125 38.22265625 18.8125 34.875 C14.16546054 25.81974109 8.40359311 18.21418188 -1 13.8125 C2.05263664 12.83129536 3.94736336 12.83129536 7 13.8125 C7.495 15.7925 7.495 15.7925 8 17.8125 C8.5775 17.93625 9.155 18.06 9.75 18.1875 C12.02335767 18.81898824 13.9253529 19.70108191 16 20.8125 C16 18.1725 16 15.5325 16 12.8125 C14.865625 12.68875 13.73125 12.565 12.5625 12.4375 C11.386875 12.23125 10.21125 12.025 9 11.8125 C8.505 10.8225 8.505 10.8225 8 9.8125 C8.33 8.8225 8.66 7.8325 9 6.8125 C7.02 7.4725 5.04 8.1325 3 8.8125 C2 7.8125 2 7.8125 1.9375 5.25 C1.958125 4.445625 1.97875 3.64125 2 2.8125 C1.01 2.8125 0.02 2.8125 -1 2.8125 C-1 2.1525 -1 1.4925 -1 0.8125 C-12.18993664 1.06029316 -12.18993664 1.06029316 -22 5.8125 C-22.99 6.1425 -23.98 6.4725 -25 6.8125 C-25.33 6.1525 -25.66 5.4925 -26 4.8125 C-28.91567804 5.95794495 -30.08356761 6.91885878 -32.0625 9.4375 C-32.701875 10.22125 -33.34125 11.005 -34 11.8125 C-34.99 11.8125 -35.98 11.8125 -37 11.8125 C-37.2475 12.781875 -37.495 13.75125 -37.75 14.75 C-38.1625 15.760625 -38.575 16.77125 -39 17.8125 C-41.125 18.6875 -41.125 18.6875 -43 18.8125 C-39.89970723 10.02833715 -35.09430556 5.30807504 -27 0.8125 C-17.73971016 -2.83510376 -9.3616941 -3.08685957 0 0 Z " fill="#DA040A" transform="translate(148,158.1875)"/>
<path d="M0 0 C3.875 1.875 3.875 1.875 5 3 C5.04063832 4.66617115 5.042721 6.33388095 5 8 C4.34 8 3.68 8 3 8 C2.71125 8.763125 2.4225 9.52625 2.125 10.3125 C1 13 1 13 -1 16 C-1.268125 16.94875 -1.53625 17.8975 -1.8125 18.875 C-3.25827044 22.67965906 -4.99524697 24.25652985 -8 27 C-9.2099434 28.2484416 -10.41811641 29.49860021 -11.625 30.75 C-15.52741343 34.65241343 -19.68861554 38.11921334 -24.00390625 41.5546875 C-26.15627015 43.31137563 -28.22325016 45.08146868 -30.27734375 46.9453125 C-36.2962505 52.35504304 -40.74988784 55.89998505 -49 57 C-49.33 57.99 -49.66 58.98 -50 60 C-51.33333333 60.33333333 -52.66666667 60.66666667 -54 61 C-54.33 61.99 -54.66 62.98 -55 64 C-55.99 64 -56.98 64 -58 64 C-57.505 64.99 -57.505 64.99 -57 66 C-58.98 66 -60.96 66 -63 66 C-63.33 65.34 -63.66 64.68 -64 64 C-64.66 63.731875 -65.32 63.46375 -66 63.1875 C-66.66 62.795625 -67.32 62.40375 -68 62 C-68.625 59.4375 -68.625 59.4375 -69 57 C-69.66 56.67 -70.32 56.34 -71 56 C-70.67 55.34 -70.34 54.68 -70 54 C-71.485 54.495 -71.485 54.495 -73 55 C-73 54.34 -73 53.68 -73 53 C-73.66 53 -74.32 53 -75 53 C-74.67 52.01 -74.34 51.02 -74 50 C-73.01 50 -72.02 50 -71 50 C-71 49.34 -71 48.68 -71 48 C-70.01 48 -69.02 48 -68 48 C-68 48.66 -68 49.32 -68 50 C-66.35 50.33 -64.7 50.66 -63 51 C-63 52.65 -63 54.3 -63 56 C-60.69 56.33 -58.38 56.66 -56 57 C-56 56.01 -56 55.02 -56 54 C-55.0409375 53.566875 -55.0409375 53.566875 -54.0625 53.125 C-51.84793921 52.17176549 -51.84793921 52.17176549 -51 50 C-50.34 50 -49.68 50 -49 50 C-49 49.01 -49 48.02 -49 47 C-48.01 46.34 -47.02 45.68 -46 45 C-44.97388051 43.34928604 -43.97691857 41.68029994 -43 40 C-40.34777337 36.28688272 -38.01162542 34.15257949 -34 32 C-32.7315625 31.195625 -32.7315625 31.195625 -31.4375 30.375 C-29.23088972 29.13024548 -27.47195376 28.45776922 -25 28 C-24.938125 27.21625 -24.87625 26.4325 -24.8125 25.625 C-24.544375 24.75875 -24.27625 23.8925 -24 23 C-22.34795544 22.29788106 -20.68076231 21.63028587 -19 21 C-18.11306697 18.95894361 -18.11306697 18.95894361 -18 17 C-15.69 16.34 -13.38 15.68 -11 15 C-10.67 13.02 -10.34 11.04 -10 9 C-8.68 8.67 -7.36 8.34 -6 8 C-5.67 6.02 -5.34 4.04 -5 2 C-4.01 2.99 -4.01 2.99 -3 4 C-2.67 3.34 -2.34 2.68 -2 2 C-1.34 2 -0.68 2 0 2 C0 1.34 0 0.68 0 0 Z " fill="#D4080F" transform="translate(232,216)"/>
<path d="M0 0 C0.69480469 0.22341064 1.38960937 0.44682129 2.10546875 0.67700195 C7.27620167 2.41048289 11.65103316 4.46017139 16 7.8125 C16 8.4725 16 9.1325 16 9.8125 C16.66 9.8125 17.32 9.8125 18 9.8125 C18 10.4725 18 11.1325 18 11.8125 C18.99 12.1425 19.98 12.4725 21 12.8125 C24 17.14583333 24 17.14583333 24 19.8125 C24.66 19.8125 25.32 19.8125 26 19.8125 C26 19.1525 26 18.4925 26 17.8125 C27.62626404 16.43017557 29.2925002 15.09312485 31 13.8125 C32.32 14.4725 33.64 15.1325 35 15.8125 C34.67 16.4725 34.34 17.1325 34 17.8125 C36.07553648 18.3659764 37.84365964 18.8125 40 18.8125 C40.33 18.1525 40.66 17.4925 41 16.8125 C41.99 16.8125 42.98 16.8125 44 16.8125 C44 16.1525 44 15.4925 44 14.8125 C44.99 14.8125 45.98 14.8125 47 14.8125 C47 14.1525 47 13.4925 47 12.8125 C62.42113323 7.61801302 62.42113323 7.61801302 69.875 9.5625 C72 10.8125 72 10.8125 72.8125 12.9375 C72.874375 13.55625 72.93625 14.175 73 14.8125 C72.195625 14.4825 71.39125 14.1525 70.5625 13.8125 C63.46504743 11.82023261 57.84212797 12.28927794 51.2109375 15.5234375 C48.14153695 17.31301733 45.37886837 19.39621148 42.62890625 21.640625 C41 22.8125 41 22.8125 39 22.8125 C38.60941406 23.66714844 38.60941406 23.66714844 38.2109375 24.5390625 C36.89944765 27.00127893 35.37148389 29.01392835 33.625 31.1875 C30.89538269 34.63513773 28.37220793 38.11185563 26 41.8125 C24.19921875 41.68359375 24.19921875 41.68359375 22 40.8125 C20.39453125 38.22265625 20.39453125 38.22265625 18.8125 34.875 C14.16546054 25.81974109 8.40359311 18.21418188 -1 13.8125 C2.05263664 12.83129536 3.94736336 12.83129536 7 13.8125 C7.495 15.7925 7.495 15.7925 8 17.8125 C8.5775 17.93625 9.155 18.06 9.75 18.1875 C12.02335767 18.81898824 13.9253529 19.70108191 16 20.8125 C16 18.1725 16 15.5325 16 12.8125 C14.865625 12.68875 13.73125 12.565 12.5625 12.4375 C11.386875 12.23125 10.21125 12.025 9 11.8125 C8.505 10.8225 8.505 10.8225 8 9.8125 C8.33 8.8225 8.66 7.8325 9 6.8125 C7.02 7.4725 5.04 8.1325 3 8.8125 C2 7.8125 2 7.8125 1.9375 5.25 C1.958125 4.445625 1.97875 3.64125 2 2.8125 C1.01 2.8125 0.02 2.8125 -1 2.8125 C-1 2.1525 -1 1.4925 -1 0.8125 C-12.18993664 1.06029316 -12.18993664 1.06029316 -22 5.8125 C-22.99 6.1425 -23.98 6.4725 -25 6.8125 C-25.33 6.1525 -25.66 5.4925 -26 4.8125 C-28.91567804 5.95794495 -30.08356761 6.91885878 -32.0625 9.4375 C-32.701875 10.22125 -33.34125 11.005 -34 11.8125 C-34.99 11.8125 -35.98 11.8125 -37 11.8125 C-37.2475 12.781875 -37.495 13.75125 -37.75 14.75 C-38.1625 15.760625 -38.575 16.77125 -39 17.8125 C-41.125 18.6875 -41.125 18.6875 -43 18.8125 C-39.89970723 10.02833715 -35.09430556 5.30807504 -27 0.8125 C-17.73971016 -2.83510376 -9.3616941 -3.08685957 0 0 Z " fill="#DF2325" transform="translate(148,158.1875)"/>
<path d="M0 0 C0.66 0.99 1.32 1.98 2 3 C4.02852466 4.09100611 6.09818996 4.95240846 8.22265625 5.83984375 C10.51579891 7.33668632 10.41053488 8.41782977 11 11 C11.99 11.33 12.98 11.66 14 12 C14 12.66 14 13.32 14 14 C14.99 14.33 15.98 14.66 17 15 C14.47211993 17.79872437 12.79588866 19.45773019 9 20 C9.99 20.99 10.98 21.98 12 23 C11.34 24.32 10.68 25.64 10 27 C9.16121545 25.71186658 8.32913217 24.41936744 7.5 23.125 C7.0359375 22.40570313 6.571875 21.68640625 6.09375 20.9453125 C5 19 5 19 5 17 C4.01 16.67 3.02 16.34 2 16 C1.505 13.525 1.505 13.525 1 11 C-5.89969609 9.3273464 -11.33657794 9.83072972 -17.88671875 12.34375 C-20 13 -20 13 -24 13 C-24 13.66 -24 14.32 -24 15 C-24.99 15 -25.98 15 -27 15 C-27 15.66 -27 16.32 -27 17 C-27.99 17 -28.98 17 -30 17 C-30.66 18.32 -31.32 19.64 -32 21 C-36.875 18.375 -36.875 18.375 -38 15 C-38.61875 15.309375 -39.2375 15.61875 -39.875 15.9375 C-41.25 16.625 -42.625 17.3125 -44 18 C-40.75643172 10.03851421 -31.70644895 4.2752408 -24 1 C-16.39421616 -0.3459317 -7.6545185 -0.94695074 0 0 Z " fill="#E90707" transform="translate(219,158)"/>
<path d="M0 0 C1.27230469 0.00902344 2.54460937 0.01804688 3.85546875 0.02734375 C5.31919922 0.04474609 5.31919922 0.04474609 6.8125 0.0625 C6.8125 0.7225 6.8125 1.3825 6.8125 2.0625 C7.8025 2.0625 8.7925 2.0625 9.8125 2.0625 C10.3075 4.5375 10.3075 4.5375 10.8125 7.0625 C12.7925 6.7325 14.7725 6.4025 16.8125 6.0625 C16.8125 7.3825 16.8125 8.7025 16.8125 10.0625 C19.4525 10.3925 22.0925 10.7225 24.8125 11.0625 C24.8125 14.0325 24.8125 17.0025 24.8125 20.0625 C20.51374217 20.0625 19.16061134 19.59620588 15.8125 17.0625 C15.16796875 14.953125 15.16796875 14.953125 14.8125 13.0625 C13.79929687 12.97162109 13.79929687 12.97162109 12.765625 12.87890625 C11.87359375 12.79511719 10.9815625 12.71132812 10.0625 12.625 C8.73992187 12.50318359 8.73992187 12.50318359 7.390625 12.37890625 C4.8125 12.0625 4.8125 12.0625 2.76953125 11.53515625 C0.54114008 10.99696197 -1.45965633 10.92974926 -3.75 10.9375 C-4.51441406 10.93492187 -5.27882812 10.93234375 -6.06640625 10.9296875 C-10.01913377 11.17718793 -12.33011756 12.77894304 -15.375 15.125 C-16.09042969 15.67285156 -16.80585937 16.22070312 -17.54296875 16.78515625 C-18.08566406 17.20667969 -18.62835938 17.62820312 -19.1875 18.0625 C-18.88070312 17.45921875 -18.57390625 16.8559375 -18.2578125 16.234375 C-17.10137937 13.88774427 -16.135366 11.4998697 -15.1875 9.0625 C-17.14644361 9.17556697 -17.14644361 9.17556697 -19.1875 10.0625 C-20.70914099 12.95361788 -21.1875 14.78073412 -21.1875 18.0625 C-21.8475 18.0625 -22.5075 18.0625 -23.1875 18.0625 C-23.5175 20.0425 -23.8475 22.0225 -24.1875 24.0625 C-27.51284757 25.17094919 -29.80932575 24.90704356 -33.1875 24.0625 C-33.1875 21.7525 -33.1875 19.4425 -33.1875 17.0625 C-32.5275 16.7325 -31.8675 16.4025 -31.1875 16.0625 C-30.7853125 14.886875 -30.7853125 14.886875 -30.375 13.6875 C-28.88496385 10.39373587 -27.28589319 9.80062301 -24.1875 8.0625 C-23.6925 7.36125 -23.1975 6.66 -22.6875 5.9375 C-21.1875 4.0625 -21.1875 4.0625 -18.5 3.3125 C-17.736875 3.23 -16.97375 3.1475 -16.1875 3.0625 C-16.5175 4.0525 -16.8475 5.0425 -17.1875 6.0625 C-16.71699219 5.71316406 -16.24648437 5.36382812 -15.76171875 5.00390625 C-15.13910156 4.54886719 -14.51648438 4.09382812 -13.875 3.625 C-13.26011719 3.17253906 -12.64523438 2.72007812 -12.01171875 2.25390625 C-8.09839571 -0.3019043 -4.54269032 -0.04167606 0 0 Z " fill="#DB0405" transform="translate(140.1875,158.9375)"/>
<path d="M0 0 C0.93585938 0.02255859 1.87171875 0.04511719 2.8359375 0.06835938 C5.14225674 0.12719405 7.44530838 0.20932854 9.75 0.3125 C9.75 0.6425 9.75 0.9725 9.75 1.3125 C1.335 1.8075 1.335 1.8075 -7.25 2.3125 C-7.91 3.9625 -8.57 5.6125 -9.25 7.3125 C-10.78201248 10.6691109 -12.34628415 14.009694 -13.91015625 17.3515625 C-15.29599294 20.27880734 -15.29599294 20.27880734 -16.25 23.3125 C-16.91 23.3125 -17.57 23.3125 -18.25 23.3125 C-18.27685938 25.45826637 -18.29633088 27.60412645 -18.3125 29.75 C-18.32410156 30.94496094 -18.33570312 32.13992187 -18.34765625 33.37109375 C-18.58901792 36.20123341 -18.58901792 36.20123341 -17.25 37.3125 C-17.01572222 39.32844582 -16.83663876 41.350974 -16.6875 43.375 C-16.60371094 44.47972656 -16.51992187 45.58445313 -16.43359375 46.72265625 C-16.37300781 47.57730469 -16.31242187 48.43195313 -16.25 49.3125 C-16.91 49.3125 -17.57 49.3125 -18.25 49.3125 C-18.25 48.6525 -18.25 47.9925 -18.25 47.3125 C-18.78625 47.621875 -19.3225 47.93125 -19.875 48.25 C-22.6484957 49.49077439 -25.25042837 49.9034675 -28.25 50.3125 C-30.13723273 46.30892412 -30.50698122 43.1000417 -30.515625 38.69140625 C-30.51820312 37.42619141 -30.52078125 36.16097656 -30.5234375 34.85742188 C-30.51570313 33.54322266 -30.50796875 32.22902344 -30.5 30.875 C-30.50773437 29.56466797 -30.51546875 28.25433594 -30.5234375 26.90429688 C-30.52085938 25.63779297 -30.51828125 24.37128906 -30.515625 23.06640625 C-30.51336914 21.91470947 -30.51111328 20.7630127 -30.50878906 19.57641602 C-30.23673348 16.14517912 -29.6453019 13.45891161 -28.25 10.3125 C-27.26 9.9825 -26.27 9.6525 -25.25 9.3125 C-24.125 14.0625 -24.125 14.0625 -25.25 16.3125 C-24.6725 16.126875 -24.095 15.94125 -23.5 15.75 C-21.04307475 15.27226454 -19.60602466 15.55520636 -17.25 16.3125 C-16.59 14.3325 -15.93 12.3525 -15.25 10.3125 C-14.59 10.3125 -13.93 10.3125 -13.25 10.3125 C-13.4975 9.590625 -13.745 8.86875 -14 8.125 C-14.25 5.3125 -14.25 5.3125 -12.90625 2.65625 C-8.88297401 -0.8936994 -5.17259109 -0.23544707 0 0 Z " fill="#D8080E" transform="translate(132.25,166.6875)"/>
<path d="M0 0 C3.875 1.875 3.875 1.875 5 3 C5.04063832 4.66617115 5.042721 6.33388095 5 8 C4.34 8 3.68 8 3 8 C2.731875 8.680625 2.46375 9.36125 2.1875 10.0625 C1.5996875 11.5165625 1.5996875 11.5165625 1 13 C0.38125 14.8253125 0.38125 14.8253125 -0.25 16.6875 C-2 20 -2 20 -5.125 21.25 C-6.07375 21.4975 -7.0225 21.745 -8 22 C-8.495 23.485 -8.495 23.485 -9 25 C-9.66 25 -10.32 25 -11 25 C-11 25.99 -11 26.98 -11 28 C-11.99 28 -12.98 28 -14 28 C-14 28.99 -14 29.98 -14 31 C-14.60328125 31.19335938 -15.2065625 31.38671875 -15.828125 31.5859375 C-16.62734375 31.84632813 -17.4265625 32.10671875 -18.25 32.375 C-19.03890625 32.63023437 -19.8278125 32.88546875 -20.640625 33.1484375 C-26.10727641 35.12150043 -30.39123257 37.87227533 -33.9375 42.5625 C-36.33296583 45.39350508 -38.62451076 46.54240237 -42 48 C-42.6875 46.3125 -42.6875 46.3125 -43 44 C-41.6875 41.25 -41.6875 41.25 -40 39 C-39.34 39 -38.68 39 -38 39 C-38 38.34 -38 37.68 -38 37 C-36.52634971 35.72283641 -35.04680972 34.45080444 -33.51953125 33.23828125 C-31.91375654 31.98796521 -31.91375654 31.98796521 -30.375 30.25 C-28.67357031 28.70324574 -27.23865805 28.38597553 -25 28 C-24.938125 27.21625 -24.87625 26.4325 -24.8125 25.625 C-24.544375 24.75875 -24.27625 23.8925 -24 23 C-22.34795544 22.29788106 -20.68076231 21.63028587 -19 21 C-18.11306697 18.95894361 -18.11306697 18.95894361 -18 17 C-15.69 16.34 -13.38 15.68 -11 15 C-10.67 13.02 -10.34 11.04 -10 9 C-8.68 8.67 -7.36 8.34 -6 8 C-5.67 6.02 -5.34 4.04 -5 2 C-4.34 2.66 -3.68 3.32 -3 4 C-2.67 3.34 -2.34 2.68 -2 2 C-1.34 2 -0.68 2 0 2 C0 1.34 0 0.68 0 0 Z " fill="#DE0308" transform="translate(232,216)"/>
<path d="M0 0 C2.125 1.25 2.125 1.25 2.9375 3.375 C2.999375 3.99375 3.06125 4.6125 3.125 5.25 C2.320625 4.92 1.51625 4.59 0.6875 4.25 C-6.40995257 2.25773261 -12.03287203 2.72677794 -18.6640625 5.9609375 C-21.73346305 7.75051733 -24.49613163 9.83371148 -27.24609375 12.078125 C-28.875 13.25 -28.875 13.25 -30.875 13.25 C-31.13539063 13.81976563 -31.39578125 14.38953125 -31.6640625 14.9765625 C-32.97555235 17.43877893 -34.50351611 19.45142835 -36.25 21.625 C-38.97961731 25.07263773 -41.50279207 28.54935563 -43.875 32.25 C-45.195 31.92 -46.515 31.59 -47.875 31.25 C-48.20982863 28.62518273 -48.5429277 26.00016613 -48.875 23.375 C-48.97039062 22.62863281 -49.06578125 21.88226563 -49.1640625 21.11328125 C-49.875 15.4765625 -49.875 15.4765625 -49.875 13.25 C-48.76125 12.8375 -47.6475 12.425 -46.5 12 C-43.21009473 10.60887773 -42.26920668 9.5746467 -40.875 6.25 C-38.75 5 -38.75 5 -36.875 4.25 C-36.215 4.91 -35.555 5.57 -34.875 6.25 C-35.205 6.91 -35.535 7.57 -35.875 8.25 C-33.79946352 8.8034764 -32.03134036 9.25 -29.875 9.25 C-29.545 8.59 -29.215 7.93 -28.875 7.25 C-27.885 7.25 -26.895 7.25 -25.875 7.25 C-25.875 6.59 -25.875 5.93 -25.875 5.25 C-24.885 5.25 -23.895 5.25 -22.875 5.25 C-22.875 4.59 -22.875 3.93 -22.875 3.25 C-7.45386677 -1.94448698 -7.45386677 -1.94448698 0 0 Z " fill="#E4060F" transform="translate(217.875,167.75)"/>
<path d="M0 0 C5.55063105 0.26482018 8.47880706 3.77975581 12.25 7.4375 C12.88679688 8.03626953 13.52359375 8.63503906 14.1796875 9.25195312 C18.83928571 13.67857143 18.83928571 13.67857143 20 16 C23.76648101 14.74450633 25.26593752 12.86329438 28 10 C33 5 33 5 38 0 C38.66 0.33 39.32 0.66 40 1 C39.401875 1.556875 38.80375 2.11375 38.1875 2.6875 C35.90405244 4.93000022 35.90405244 4.93000022 34.375 7.75 C33.92125 8.4925 33.4675 9.235 33 10 C32.34 10 31.68 10 31 10 C31 10.99 31 11.98 31 13 C30.34 13 29.68 13 29 13 C29 14.32 29 15.64 29 17 C27.35 17 25.7 17 24 17 C24 17.99 24 18.98 24 20 C21.69 19.67 19.38 19.34 17 19 C17 17.35 17 15.7 17 14 C14.525 13.505 14.525 13.505 12 13 C12 12.34 12 11.68 12 11 C11.01 11 10.02 11 9 11 C9 11.66 9 12.32 9 13 C8.01 13.33 7.02 13.66 6 14 C5.67 14.66 5.34 15.32 5 16 C6.175625 16.0928125 6.175625 16.0928125 7.375 16.1875 C8.24125 16.455625 9.1075 16.72375 10 17 C11.25 19.375 11.25 19.375 12 22 C12.66868314 25.11332248 12.66868314 25.11332248 15.0625 26.1875 C15.701875 26.455625 16.34125 26.72375 17 27 C17 27.66 17 28.32 17 29 C18.65 28.67 20.3 28.34 22 28 C22 27.01 22 26.02 22 25 C22.33 25.66 22.66 26.32 23 27 C23.66 27 24.32 27 25 27 C25 25.35 25 23.7 25 22 C26.65 22.33 28.3 22.66 30 23 C30.33 21.68 30.66 20.36 31 19 C32.98 19 34.96 19 37 19 C29.94975689 27.36628849 29.94975689 27.36628849 27 30 C26.34 30 25.68 30 25 30 C24.01 32.475 24.01 32.475 23 35 C20 35 20 35 17.8125 33.125 C16 31 16 31 16 29 C15.34 29 14.68 29 14 29 C14 28.34 14 27.68 14 27 C13.01 26.67 12.02 26.34 11 26 C9.85040713 24.88421868 8.70648441 23.76176967 7.59765625 22.60546875 C5.57286957 20.57078091 3.45233186 18.6631402 1.3125 16.75 C0.54550781 16.06421875 -0.22148437 15.3784375 -1.01171875 14.671875 C-2.89798664 12.95377855 -2.89798664 12.95377855 -5 12 C-5 11.34 -5 10.68 -5 10 C-3.35 10 -1.7 10 0 10 C0.66 8.02 1.32 6.04 2 4 C2.33 4.66 2.66 5.32 3 6 C3.66 6 4.32 6 5 6 C5 6.66 5 7.32 5 8 C5.99 8 6.98 8 8 8 C8 7.34 8 6.68 8 6 C6.68 5.67 5.36 5.34 4 5 C4 4.34 4 3.68 4 3 C2.68 2.67 1.36 2.34 0 2 C0 1.34 0 0.68 0 0 Z " fill="#D8040C" transform="translate(152,253)"/>
<path d="M0 0 C0.33 0 0.66 0 1 0 C0.99907821 0.68419069 0.99815641 1.36838139 0.99720669 2.07330513 C0.81823073 105.02943072 0.81823073 105.02943072 1.40571976 207.98317719 C1.43753032 211.25311676 1.46745549 214.52306938 1.49703979 217.79302979 C1.54342485 222.84280042 1.59547375 227.89247764 1.65287781 232.94213486 C1.6730771 234.75780573 1.69185569 236.57349306 1.70909119 238.38919449 C1.73287356 240.82367499 1.76280443 243.25799672 1.79467773 245.69238281 C1.80043288 246.3984926 1.80618803 247.10460239 1.81211758 247.83210945 C1.85765921 250.82723942 2.04450638 253.13351913 3 256 C3.66 256 4.32 256 5 256 C5.9360342 259.79267192 5.98276252 262.93674565 5.5625 266.8125 C5.40974609 268.27623047 5.40974609 268.27623047 5.25390625 269.76953125 C5.17011719 270.50558594 5.08632813 271.24164063 5 272 C3 271 3 271 2.17260742 268.88378906 C-0.21103241 259.82426115 -0.56001542 251.04502449 -0.6875 241.75 C-0.7214964 240.02171843 -0.75602014 238.29344717 -0.79101562 236.56518555 C-1.00448342 224.80592002 -1.02253739 213.04597968 -1.01953125 201.28515625 C-1.01937201 200.56539234 -1.01921276 199.84562843 -1.01904869 199.1040535 C-1.01633979 191.84397621 -1.00569428 184.58401373 -0.97279644 177.32400608 C-0.96378912 175.24631529 -0.956803 173.16862768 -0.95048523 171.09092712 C-0.94203896 168.52398422 -0.92949327 165.95705042 -0.91218567 163.39015198 C-0.90893784 162.24022263 -0.90569 161.09029327 -0.90234375 159.90551758 C-0.89710693 158.90555252 -0.89187012 157.90558746 -0.88647461 156.87532043 C-0.93285627 153.98051726 -0.93285627 153.98051726 -1.5322113 151.09889221 C-2.07672923 147.49170296 -1.86786618 144.12401233 -1.58227539 140.51220703 C-0.73010146 127.66374352 -0.77275921 114.7952834 -0.69667697 101.9241271 C-0.67448265 98.32871858 -0.64726108 94.7333478 -0.62062073 91.13796997 C-0.57113778 84.35997414 -0.52603847 77.58195687 -0.48259836 70.80391991 C-0.43284102 63.07448309 -0.37806845 55.3450842 -0.32291877 47.61568427 C-0.20978229 31.74382474 -0.10280039 15.87193005 0 0 Z " fill="#9E9C99" transform="translate(47,108)"/>
<path d="M0 0 C-8.877091 2.95358232 -17.59769257 3.75766826 -26.875 4.17578125 C-27.68132874 4.21527704 -28.48765747 4.25477283 -29.31842041 4.29546547 C-56.87657838 5.60926678 -84.51200879 5.26349662 -112.09445953 5.20059788 C-118.29675467 5.18712553 -124.49901477 5.1849005 -130.70132256 5.1855461 C-138.20975769 5.18622159 -145.71817187 5.17930858 -153.22660065 5.1700995 C-155.36296164 5.16798069 -157.49931921 5.1672602 -159.63568115 5.16686058 C-163.59828643 5.16566707 -167.56084593 5.15595043 -171.5234375 5.14526367 C-173.27327942 5.14594345 -173.27327942 5.14594345 -175.05847168 5.14663696 C-180.47846712 5.12524809 -185.6618749 4.96337899 -191 4 C-191 3.67 -191 3.34 -191 3 C-173.2203695 2.86804482 -155.44072859 2.73760187 -137.66107464 2.60884857 C-129.40140458 2.54900187 -121.14173833 2.48870223 -112.88208008 2.42724609 C-105.66364159 2.37353842 -98.44519687 2.32077228 -91.226744 2.26903296 C-87.42221656 2.2417333 -83.61769322 2.21403323 -79.81317711 2.18519592 C-58.20843859 2.02184164 -36.6053448 1.97190146 -15 2 C-15 1.34 -15 0.68 -15 0 C-13.06325815 -0.19517554 -11.12555991 -0.38087873 -9.1875 -0.5625 C-8.10855469 -0.66691406 -7.02960938 -0.77132813 -5.91796875 -0.87890625 C-3 -1 -3 -1 0 0 Z " fill="#989495" transform="translate(275,402)"/>
<path d="M0 0 C1.2065625 0.0309375 1.2065625 0.0309375 2.4375 0.0625 C0.31389635 4.44243253 -2.61791543 7.0419287 -6.265625 10.1171875 C-8.68900142 12.16963895 -11.03097477 14.29503108 -13.375 16.4375 C-21.09916072 23.40229623 -29.16535972 29.92705366 -37.5625 36.0625 C-39.9919516 32.4183226 -39.72429575 30.35008728 -39.5625 26.0625 C-38.5725 26.3925 -37.5825 26.7225 -36.5625 27.0625 C-32.69353232 24.69813086 -29.71846036 22.44800603 -26.9375 18.875 C-24.41781287 15.89115998 -23.2032068 15.18938544 -19.5625 14.0625 C-18.36625 13.52625 -17.17 12.99 -15.9375 12.4375 C-12.5625 11.0625 -12.5625 11.0625 -9.5625 11.0625 C-9.5625 10.0725 -9.5625 9.0825 -9.5625 8.0625 C-8.5725 8.0625 -7.5825 8.0625 -6.5625 8.0625 C-6.5625 7.0725 -6.5625 6.0825 -6.5625 5.0625 C-5.9025 5.0625 -5.2425 5.0625 -4.5625 5.0625 C-4.418125 4.423125 -4.27375 3.78375 -4.125 3.125 C-3.30589691 0.12162199 -3.19313651 0.07788138 0 0 Z " fill="#C90405" transform="translate(227.5625,235.9375)"/>
<path d="M0 0 C9.65500673 8.40031489 14.20603444 20.34583601 15.625 32.875 C16.08378017 41.75186291 14.2899423 50.76676284 9.6875 58.4375 C9.3575 58.4375 9.0275 58.4375 8.6875 58.4375 C9.1825 53.4875 9.1825 53.4875 9.6875 48.4375 C10.3475 48.4375 11.0075 48.4375 11.6875 48.4375 C11.6875 46.4575 11.6875 44.4775 11.6875 42.4375 C12.0175 42.4375 12.3475 42.4375 12.6875 42.4375 C12.92560401 35.35956814 12.92560401 35.35956814 11.6875 28.4375 C11.0275 27.7775 10.3675 27.1175 9.6875 26.4375 C9.23087847 24.24458918 8.867088 22.03164111 8.5625 19.8125 C8.31113281 18.02972656 8.31113281 18.02972656 8.0546875 16.2109375 C7.93351562 15.29570312 7.81234375 14.38046875 7.6875 13.4375 C6.6975 13.1075 5.7075 12.7775 4.6875 12.4375 C5.0175 11.1175 5.3475 9.7975 5.6875 8.4375 C5.11 8.14875 4.5325 7.86 3.9375 7.5625 C1.85416667 6.52083333 -0.22916667 5.47916667 -2.3125 4.4375 C-2.3125 3.7775 -2.3125 3.1175 -2.3125 2.4375 C-3.034375 2.169375 -3.75625 1.90125 -4.5 1.625 C-7.31016383 0.43848638 -9.79666557 -0.83735639 -12.3125 -2.5625 C-12.3125 -3.2225 -12.3125 -3.8825 -12.3125 -4.5625 C-22.7075 -4.0675 -22.7075 -4.0675 -33.3125 -3.5625 C-22.4026976 -9.0174012 -9.66103358 -7.20212594 0 0 Z " fill="#CB5B54" transform="translate(231.3125,162.5625)"/>
<path d="M0 0 C3.875 2.625 3.875 2.625 5 6 C5.1441942 7.99653512 5.2205659 9.99848106 5.25 12 C5.27578125 13.051875 5.3015625 14.10375 5.328125 15.1875 C5 18 5 18 3.484375 19.875 C2.99453125 20.24625 2.5046875 20.6175 2 21 C2.66 21 3.32 21 4 21 C3.505 22.485 3.505 22.485 3 24 C2.34 24 1.68 24 1 24 C0.896875 25.258125 0.79375 26.51625 0.6875 27.8125 C0.26631702 31.28573354 -0.26736864 32.7228072 -3 35 C-3.165 35.70125 -3.33 36.4025 -3.5 37.125 C-3.665 37.74375 -3.83 38.3625 -4 39 C-5.485 39.495 -5.485 39.495 -7 40 C-7.2475 40.94875 -7.495 41.8975 -7.75 42.875 C-9 46 -9 46 -12.5625 47.6875 C-13.696875 48.120625 -14.83125 48.55375 -16 49 C-16.33 49.99 -16.66 50.98 -17 52 C-17.825 52.433125 -18.65 52.86625 -19.5 53.3125 C-22.33023575 54.81959514 -22.33023575 54.81959514 -22.8125 58.1875 C-22.874375 59.115625 -22.93625 60.04375 -23 61 C-24.0725 61.0825 -25.145 61.165 -26.25 61.25 C-30.2738451 62.05476902 -31.48169253 62.87729874 -34 66 C-34.66 65.67 -35.32 65.34 -36 65 C-35.5373877 64.5781543 -35.07477539 64.15630859 -34.59814453 63.72167969 C-9.26222405 40.65931563 -9.26222405 40.65931563 2.1171875 9.2265625 C1.98302856 6.67754271 1.1848697 5.23196386 0 3 C0 2.01 0 1.02 0 0 Z " fill="#CC3B3F" transform="translate(230,185)"/>
<path d="M0 0 C33 0 66 0 100 0 C100 0.66 100 1.32 100 2 C104.62 2 109.24 2 114 2 C114 2.33 114 2.66 114 3 C69.78 3 25.56 3 -20 3 C-20 2.67 -20 2.34 -20 2 C-10.1 1.505 -10.1 1.505 0 1 C0 0.67 0 0.34 0 0 Z " fill="#9E9E9E" transform="translate(140,27)"/>
<path d="M0 0 C2.49361571 1.20381448 4.68143083 2.45428722 7 4 C7 5.32 7 6.64 7 8 C7.66 8.33 8.32 8.66 9 9 C9.62669199 11.16467461 10.15427374 13.35864524 10.625 15.5625 C11.01558594 17.35880859 11.01558594 17.35880859 11.4140625 19.19140625 C11.60742188 20.11824219 11.80078125 21.04507813 12 22 C12.66 21.34 13.32 20.68 14 20 C14.82351864 26.38226945 15.12086218 32.56744599 15 39 C14.34 38.67 13.68 38.34 13 38 C13 33.71 13 29.42 13 25 C12.01 24.67 11.02 24.34 10 24 C9.67 23.34 9.34 22.68 9 22 C8.34 24.31 7.68 26.62 7 29 C6.34 28.67 5.68 28.34 5 28 C4.59270772 25.67843403 4.25561323 23.3431213 4 21 C3.01 20.67 2.02 20.34 1 20 C0.814375 18.88625 0.814375 18.88625 0.625 17.75 C0.04513299 15.19858515 -0.73708739 13.2732427 -2 11 C-1.030625 10.731875 -0.06125 10.46375 0.9375 10.1875 C1.948125 9.795625 2.95875 9.40375 4 9 C4.33 8.01 4.66 7.02 5 6 C4.34 5.67 3.68 5.34 3 5 C3 4.34 3 3.68 3 3 C1.68 2.67 0.36 2.34 -1 2 C-0.67 1.34 -0.34 0.68 0 0 Z " fill="#D0070A" transform="translate(230,167)"/>
<path d="M0 0 C0.33 0 0.66 0 1 0 C1.33 52.14 1.66 104.28 2 158 C3.32 158.66 4.64 159.32 6 160 C7.28016835 161.00435972 8.53128122 162.04690261 9.75 163.125 C10.36359375 163.66382813 10.9771875 164.20265625 11.609375 164.7578125 C12.06828125 165.16773438 12.5271875 165.57765625 13 166 C9.25 167.125 9.25 167.125 7 166 C6.525625 165.195625 6.05125 164.39125 5.5625 163.5625 C4.10335955 160.7644028 4.10335955 160.7644028 1 159 C-0.10772984 155.67681047 -0.12306668 153.2180178 -0.12025452 149.71687317 C-0.12162918 148.40014114 -0.12300385 147.08340912 -0.12442017 145.72677612 C-0.12088099 144.26422096 -0.11724618 142.80166604 -0.11352539 141.33911133 C-0.11324337 139.80174257 -0.11340154 138.26437368 -0.1139679 136.727005 C-0.1142553 132.54961817 -0.10836778 128.37225994 -0.10139394 124.19487977 C-0.09515091 119.83066086 -0.09455585 115.46644132 -0.09336853 111.10221863 C-0.09025802 102.83622543 -0.0820484 94.57024543 -0.07201904 86.30425805 C-0.06084922 76.89445396 -0.05534526 67.48464925 -0.05032361 58.07484019 C-0.03986557 38.71655264 -0.02227153 19.35827738 0 0 Z " fill="#8C8C8D" transform="translate(73,208)"/>
<path d="M0 0 C0.33 0.66 0.66 1.32 1 2 C1.99 1.67 2.98 1.34 4 1 C6.5 2.3125 6.5 2.3125 9 4 C9.99 4.66 10.98 5.32 12 6 C11.34 6 10.68 6 10 6 C10.33 6.66 10.66 7.32 11 8 C11.99 8.33 12.98 8.66 14 9 C14 9.66 14 10.32 14 11 C15.32 11.33 16.64 11.66 18 12 C18 12.66 18 13.32 18 14 C17.01 14 16.02 14 15 14 C15 13.34 15 12.68 15 12 C11.88667752 12.66868314 11.88667752 12.66868314 10.8125 15.0625 C10.544375 15.701875 10.27625 16.34125 10 17 C6.01670864 16.76100252 2.80459086 16.25736136 -0.5 14 C-3.22935467 10.72477439 -3.35970697 10.30139335 -3 6.3125 C-2.49998531 3.21345061 -2.27061846 2.27061846 0 0 Z " fill="#DC0309" transform="translate(142,247)"/>
<path d="M0 0 C16.83 0 33.66 0 51 0 C51 2.31 51 4.62 51 7 C49.3859075 8.6140925 47.63523592 8.12734318 45.40429688 8.12939453 C43.93772644 8.13412277 43.93772644 8.13412277 42.44152832 8.13894653 C41.37801147 8.1369223 40.31449463 8.13489807 39.21875 8.1328125 C37.59302063 8.13424759 37.59302063 8.13424759 35.93444824 8.13571167 C33.6377761 8.13639365 31.34110205 8.13453811 29.04443359 8.13037109 C25.51525572 8.12502312 21.98620513 8.1303155 18.45703125 8.13671875 C16.23177055 8.13605797 14.00650993 8.13477682 11.78125 8.1328125 C10.71773315 8.13483673 9.65421631 8.13686096 8.55847168 8.13894653 C7.58075806 8.13579437 6.60304443 8.13264221 5.59570312 8.12939453 C4.73046021 8.12859894 3.86521729 8.12780334 2.97375488 8.12698364 C1 8 1 8 0 7 C0 4.69 0 2.38 0 0 Z M2 1 C2.66 2.32 3.32 3.64 4 5 C7.11766637 5.63746698 9.83227716 5.87845547 13 6 C13.63270813 6.02572083 14.26541626 6.05144165 14.91729736 6.07794189 C20.29786871 6.28996022 25.67948585 6.42999337 31.0625 6.5625 C32.70769144 6.60577319 34.35287389 6.64939002 35.99804688 6.69335938 C39.99860506 6.79953838 43.99925663 6.90105517 48 7 C48.33 5.02 48.66 3.04 49 1 C33.49 1 17.98 1 2 1 Z " fill="#DEDEDF" transform="translate(144,54)"/>
<path d="M0 0 C0.66 0.33 1.32 0.66 2 1 C1.6390625 1.59167969 1.278125 2.18335938 0.90625 2.79296875 C0.4421875 3.58316406 -0.021875 4.37335938 -0.5 5.1875 C-0.9640625 5.96480469 -1.428125 6.74210938 -1.90625 7.54296875 C-3.10729647 10.24103386 -3.20741043 12.0806982 -3 15 C-3.66 15 -4.32 15 -5 15 C-5.33 16.98 -5.66 18.96 -6 21 C-9.32534757 22.10844919 -11.62182575 21.84454356 -15 21 C-15 18.69 -15 16.38 -15 14 C-14.34 13.67 -13.68 13.34 -13 13 C-12.5978125 11.824375 -12.5978125 11.824375 -12.1875 10.625 C-10.69746385 7.33123587 -9.09839319 6.73812301 -6 5 C-4.98758315 3.67607028 -3.98560611 2.34400833 -3 1 C-2.01 0.67 -1.02 0.34 0 0 Z " fill="#E00206" transform="translate(122,162)"/>
<path d="M0 0 C2.31 0.33 4.62 0.66 7 1 C8.07525194 3.65228812 9.09456151 6.28368454 10 9 C12.00016466 10.20882096 12.00016466 10.20882096 14 11 C14 11.66 14 12.32 14 13 C15.65 12.67 17.3 12.34 19 12 C19 11.01 19 10.02 19 9 C19.33 9.66 19.66 10.32 20 11 C20.66 11 21.32 11 22 11 C22 9.35 22 7.7 22 6 C24.475 6.495 24.475 6.495 27 7 C27.33 5.68 27.66 4.36 28 3 C29.98 3 31.96 3 34 3 C26.94975689 11.36628849 26.94975689 11.36628849 24 14 C23.34 14 22.68 14 22 14 C21.34 15.65 20.68 17.3 20 19 C17 19 17 19 14.8125 17.125 C13 15 13 15 13 13 C12.34 13 11.68 13 11 13 C11 12.34 11 11.68 11 11 C10.01 10.67 9.02 10.34 8 10 C6.29115995 8.37660195 4.62553283 6.70680947 3 5 C2.401875 4.443125 1.80375 3.88625 1.1875 3.3125 C0 2 0 2 0 0 Z " fill="#D34F50" transform="translate(155,269)"/>
<path d="M0 0 C0.99 0 1.98 0 3 0 C3.33 1.65 3.66 3.3 4 5 C5.98 4.67 7.96 4.34 10 4 C10 5.32 10 6.64 10 8 C12.64 8.33 15.28 8.66 18 9 C18 11.97 18 14.94 18 18 C13.70124217 18 12.34811134 17.53370588 9 15 C8.1875 12.8125 8.1875 12.8125 8 11 C7.236875 10.87625 6.47375 10.7525 5.6875 10.625 C3 10 3 10 0 8 C0 7.34 0 6.68 0 6 C-0.99 6 -1.98 6 -3 6 C-1.125 1.125 -1.125 1.125 0 0 Z " fill="#E80408" transform="translate(147,161)"/>
<path d="M0 0 C4.78775956 3.53613714 9.46451416 7.14483704 14 11 C13.01 11.495 13.01 11.495 12 12 C10 11 8 10 6 9 C4.68 9 3.36 9 2 9 C1.34 11.64 0.68 14.28 0 17 C-4.52615993 13.32167983 -8.39424999 9.58913637 -12 5 C-9.1875 4.75 -9.1875 4.75 -6 5 C-4.125 7 -4.125 7 -3 9 C-2.34 7.68 -1.68 6.36 -1 5 C-0.34 5 0.32 5 1 5 C0.67 3.35 0.34 1.7 0 0 Z " fill="#D02B2B" transform="translate(139,240)"/>
<path d="M0 0 C2.31 0.33 4.62 0.66 7 1 C7 1.99 7 2.98 7 4 C6.67 4.33 6.34 4.66 6 5 C8.31 5.33 10.62 5.66 13 6 C13.33 7.65 13.66 9.3 14 11 C13.34 11 12.68 11 12 11 C11.87625 11.639375 11.7525 12.27875 11.625 12.9375 C11.41875 13.618125 11.2125 14.29875 11 15 C10.01 15.495 10.01 15.495 9 16 C8.79375 15.360625 8.5875 14.72125 8.375 14.0625 C7.10461791 11.65074923 7.10461791 11.65074923 3.875 11.25 C2.92625 11.1675 1.9775 11.085 1 11 C-1.42857143 3.57142857 -1.42857143 3.57142857 0 0 Z " fill="#D10C0B" transform="translate(126,234)"/>
<path d="M0 0 C0.66 0.33 1.32 0.66 2 1 C1.401875 1.556875 0.80375 2.11375 0.1875 2.6875 C-2.09594756 4.93000022 -2.09594756 4.93000022 -3.625 7.75 C-4.07875 8.4925 -4.5325 9.235 -5 10 C-5.66 10 -6.32 10 -7 10 C-7 10.99 -7 11.98 -7 13 C-7.66 13 -8.32 13 -9 13 C-9 14.32 -9 15.64 -9 17 C-10.65 17 -12.3 17 -14 17 C-14 17.99 -14 18.98 -14 20 C-16.31 19.67 -18.62 19.34 -21 19 C-21 17.35 -21 15.7 -21 14 C-22.65 13.67 -24.3 13.34 -26 13 C-25.67 12.34 -25.34 11.68 -25 11 C-24.01 11 -23.02 11 -22 11 C-19.8125 13.5 -19.8125 13.5 -18 16 C-14.23351899 14.74450633 -12.73406248 12.86329438 -10 10 C-5 5 -5 5 0 0 Z " fill="#D65150" transform="translate(190,253)"/>
<path d="M0 0 C2.125 1.25 2.125 1.25 2.9375 3.375 C2.999375 3.99375 3.06125 4.6125 3.125 5.25 C2.320625 4.92 1.51625 4.59 0.6875 4.25 C-6.40327278 2.25960764 -12.03337404 2.71945948 -18.65625 5.9609375 C-22.30458538 8.08056897 -25.61212625 10.58280075 -28.875 13.25 C-29.535 12.92 -30.195 12.59 -30.875 12.25 C-30.215 10.6 -29.555 8.95 -28.875 7.25 C-27.885 7.25 -26.895 7.25 -25.875 7.25 C-25.875 6.59 -25.875 5.93 -25.875 5.25 C-24.885 5.25 -23.895 5.25 -22.875 5.25 C-22.875 4.59 -22.875 3.93 -22.875 3.25 C-7.45386677 -1.94448698 -7.45386677 -1.94448698 0 0 Z " fill="#CF6052" transform="translate(217.875,167.75)"/>
<path d="M0 0 C2.4261613 1.94161634 4.77609432 3.92437756 7.0703125 6.01953125 C6.7403125 7.33953125 6.4103125 8.65953125 6.0703125 10.01953125 C5.6371875 9.54515625 5.2040625 9.07078125 4.7578125 8.58203125 C3.04721637 6.78266168 3.04721637 6.78266168 0.0703125 6.01953125 C0.0703125 5.35953125 0.0703125 4.69953125 0.0703125 4.01953125 C-0.6515625 3.75140625 -1.3734375 3.48328125 -2.1171875 3.20703125 C-4.92735133 2.02051763 -7.41385307 0.74467486 -9.9296875 -0.98046875 C-9.9296875 -1.64046875 -9.9296875 -2.30046875 -9.9296875 -2.98046875 C-20.3246875 -2.48546875 -20.3246875 -2.48546875 -30.9296875 -1.98046875 C-21.17341127 -6.85860686 -9.08492017 -6.14140604 0 0 Z " fill="#DE7167" transform="translate(228.9296875,160.98046875)"/>
<path d="M0 0 C0.86011221 2.9499161 1.08299706 5.49679601 1 8.5625 C0.92062137 11.50447059 1.04891491 13.14674472 2 16 C2.01578603 17.84802969 1.96681127 19.69696343 1.87890625 21.54296875 C1.83056641 22.61611328 1.78222656 23.68925781 1.73242188 24.79492188 C1.67634766 25.91447266 1.62027344 27.03402344 1.5625 28.1875 C1.51029297 29.31865234 1.45808594 30.44980469 1.40429688 31.61523438 C1.27456193 34.4104328 1.13959359 37.2052794 1 40 C-3.20054965 35.79945035 -2.16012821 30.29304014 -2.18554688 24.72070312 C-2.18546631 24.05820557 -2.18538574 23.39570801 -2.18530273 22.71313477 C-2.1874808 20.70519932 -2.20597276 18.69730326 -2.22460938 16.68945312 C-2.22654297 15.41392578 -2.22847656 14.13839844 -2.23046875 12.82421875 C-2.23457764 11.65979248 -2.23868652 10.49536621 -2.24291992 9.2956543 C-1.99228479 5.89532898 -1.21522785 3.17307822 0 0 Z " fill="#DD5956" transform="translate(104,177)"/>
<path d="M0 0 C-16.01258142 5.39406874 -33.32300522 4.14248221 -50 4 C-50 3.34 -50 2.68 -50 2 C-38.45 2 -26.9 2 -15 2 C-15 1.34 -15 0.68 -15 0 C-13.06325815 -0.19517554 -11.12555991 -0.38087873 -9.1875 -0.5625 C-8.10855469 -0.66691406 -7.02960938 -0.77132813 -5.91796875 -0.87890625 C-3 -1 -3 -1 0 0 Z " fill="#C3C1C1" transform="translate(275,402)"/>
<path d="M0 0 C2.70319191 2.44264329 4.38672851 5.13293834 6.25 8.25 C9.3193472 13.17797109 12.6735047 17.1469206 17 21 C13.98968256 21.93423645 13.13349732 22.04449911 10 21 C10 20.01 10 19.02 10 18 C9.236875 17.9175 8.47375 17.835 7.6875 17.75 C5 17 5 17 3.25 15.3125 C1.72541004 12.49200857 1.37435184 10.1819906 1 7 C0.814375 5.72125 0.62875 4.4425 0.4375 3.125 C0.293125 2.09375 0.14875 1.0625 0 0 Z " fill="#D1120F" transform="translate(122,218)"/>
<path d="M0 0 C0 0.66 0 1.32 0 2 C4.62 2 9.24 2 14 2 C14 2.33 14 2.66 14 3 C-5.70002592 3.13629608 -25.3156898 2.82659154 -45 2 C-45 1.67 -45 1.34 -45 1 C-40.84157169 0.85449758 -36.68304681 0.71226076 -32.52441406 0.57275391 C-31.11650752 0.52509873 -29.70862833 0.47662679 -28.30078125 0.42724609 C-18.86163259 0.09687589 -9.44624012 -0.06677099 0 0 Z " fill="#BCBBBC" transform="translate(240,27)"/>
<path d="M0 0 C0 3 0 3 -1.875 5.1875 C-4 7 -4 7 -6 7 C-6 7.66 -6 8.32 -6 9 C-6.45375 9.4125 -6.9075 9.825 -7.375 10.25 C-9.9870833 13.06301278 -10.75304625 16.51827753 -11.375 20.25 C-12 22 -12 22 -13.8125 23.3125 C-16.32299678 24.10151327 -17.55492066 23.87324262 -20 23 C-19.505 21.515 -19.505 21.515 -19 20 C-18.34 20 -17.68 20 -17 20 C-17 19.01 -17 18.02 -17 17 C-16.01 16.34 -15.02 15.68 -14 15 C-12.97388051 13.34928604 -11.97691857 11.68029994 -11 10 C-8.3497516 6.28965225 -5.97763331 4.19816578 -2 2 C-1.34 1.34 -0.68 0.68 0 0 Z " fill="#DD0A07" transform="translate(200,246)"/>
<path d="M0 0 C-0.99 0 -1.98 0 -3 0 C-3 0.66 -3 1.32 -3 2 C-3.99 2 -4.98 2 -6 2 C-6 2.66 -6 3.32 -6 4 C-6.5775 4.226875 -7.155 4.45375 -7.75 4.6875 C-10.21237796 5.93897766 -10.21237796 5.93897766 -12.0625 8.625 C-12.701875 9.40875 -13.34125 10.1925 -14 11 C-14.99 11 -15.98 11 -17 11 C-17.2475 11.969375 -17.495 12.93875 -17.75 13.9375 C-18.1625 14.948125 -18.575 15.95875 -19 17 C-21.125 17.875 -21.125 17.875 -23 18 C-19.85280397 9.08294459 -14.98163244 4.83694921 -7 0 C-3.86650268 -1.04449911 -3.01031744 -0.93423645 0 0 Z " fill="#D95452" transform="translate(128,159)"/>
<path d="M0 0 C1.2065625 0.0309375 1.2065625 0.0309375 2.4375 0.0625 C0.32183187 4.42606551 -2.5913519 7.02355271 -6.23046875 10.08203125 C-9.73801678 13.06080319 -13.08697284 16.2113533 -16.4609375 19.33984375 C-18.5625 21.0625 -18.5625 21.0625 -20.5625 21.0625 C-20.5625 19.7425 -20.5625 18.4225 -20.5625 17.0625 C-19.923125 16.77375 -19.28375 16.485 -18.625 16.1875 C-16.41043921 15.23426549 -16.41043921 15.23426549 -15.5625 13.0625 C-14.5725 13.0625 -13.5825 13.0625 -12.5625 13.0625 C-12.5625 12.4025 -12.5625 11.7425 -12.5625 11.0625 C-11.5725 11.0625 -10.5825 11.0625 -9.5625 11.0625 C-9.5625 10.0725 -9.5625 9.0825 -9.5625 8.0625 C-8.5725 8.0625 -7.5825 8.0625 -6.5625 8.0625 C-6.5625 7.0725 -6.5625 6.0825 -6.5625 5.0625 C-5.9025 5.0625 -5.2425 5.0625 -4.5625 5.0625 C-4.418125 4.423125 -4.27375 3.78375 -4.125 3.125 C-3.30589691 0.12162199 -3.19313651 0.07788138 0 0 Z " fill="#C04B4F" transform="translate(227.5625,235.9375)"/>
<path d="M0 0 C0.33 0 0.66 0 1 0 C1.02505615 0.62044189 1.0501123 1.24088379 1.07592773 1.88012695 C1.19196721 4.69112397 1.31465759 7.50179241 1.4375 10.3125 C1.47681641 11.28896484 1.51613281 12.26542969 1.55664062 13.27148438 C1.59853516 14.20927734 1.64042969 15.14707031 1.68359375 16.11328125 C1.72025146 16.97735596 1.75690918 17.84143066 1.79467773 18.73168945 C1.92747354 21.1647826 1.92747354 21.1647826 3 24 C3.66 24 4.32 24 5 24 C5.9360342 27.79267192 5.98276252 30.93674565 5.5625 34.8125 C5.46066406 35.78832031 5.35882813 36.76414062 5.25390625 37.76953125 C5.17011719 38.50558594 5.08632813 39.24164063 5 40 C3 39 3 39 2.1550293 36.77832031 C0.03957528 28.65529956 -0.36464581 21.11673267 -0.1875 12.75 C-0.17396484 11.51636719 -0.16042969 10.28273438 -0.14648438 9.01171875 C-0.11154967 6.00733396 -0.06250145 3.00391591 0 0 Z " fill="#797778" transform="translate(47,340)"/>
<path d="M0 0 C2.64 0.33 5.28 0.66 8 1 C8.33 2.32 8.66 3.64 9 5 C9.61875 5.12375 10.2375 5.2475 10.875 5.375 C13 6 13 6 15 8 C15 8.99 15 9.98 15 11 C15.66 11 16.32 11 17 11 C17.12375 12.175625 17.12375 12.175625 17.25 13.375 C17.71525923 16.14044802 17.71525923 16.14044802 20 17.1875 C20.66 17.455625 21.32 17.72375 22 18 C23.35439668 20.70879335 23.06501451 23.00933268 23 26 C20.31252213 24.65626106 20.1279405 23.29752639 18.9375 20.5625 C14.77791856 12.01020423 8.66135389 5.05425076 0 1 C0 0.67 0 0.34 0 0 Z " fill="#D35C61" transform="translate(147,171)"/>
<path d="M0 0 C0.97710937 -0.01417969 1.95421875 -0.02835937 2.9609375 -0.04296875 C5.625 0.1875 5.625 0.1875 8.625 2.1875 C8.625 3.1775 8.625 4.1675 8.625 5.1875 C3.675 5.1875 -1.275 5.1875 -6.375 5.1875 C-6.375 -0.67325015 -5.33354858 0.03499704 0 0 Z " fill="#9F9C96" transform="translate(174.375,386.8125)"/>
<path d="M0 0 C0.66 0 1.32 0 2 0 C2 0.66 2 1.32 2 2 C2.99 2.33 3.98 2.66 5 3 C2.47211993 5.79872437 0.79588866 7.45773019 -3 8 C-2.01 8.99 -1.02 9.98 0 11 C-0.66 12.32 -1.32 13.64 -2 15 C-2.83878455 13.71186658 -3.67086783 12.41936744 -4.5 11.125 C-4.9640625 10.40570313 -5.428125 9.68640625 -5.90625 8.9453125 C-7 7 -7 7 -7 5 C-7.99 4.67 -8.98 4.34 -10 4 C-10.33 3.01 -10.66 2.02 -11 1 C-8.03 1.495 -8.03 1.495 -5 2 C-5 2.66 -5 3.32 -5 4 C-3.02 3.67 -1.04 3.34 1 3 C0.67 2.01 0.34 1.02 0 0 Z " fill="#D9322F" transform="translate(231,170)"/>
<path d="M0 0 C0 0.66 0 1.32 0 2 C-1.06927734 2.03867188 -1.06927734 2.03867188 -2.16015625 2.078125 C-8.62693235 2.46108348 -12.61994025 3.4132935 -18 7 C-18.99 7.33 -19.98 7.66 -21 8 C-21.33 6.68 -21.66 5.36 -22 4 C-21.01 4 -20.02 4 -19 4 C-19 3.34 -19 2.68 -19 2 C-18.01 2 -17.02 2 -16 2 C-16 1.34 -16 0.68 -16 0 C-10.99691568 -1.66769477 -5.00308432 -1.66769477 0 0 Z " fill="#D34A42" transform="translate(144,157)"/>
<path d="M0 0 C0.99 0.99 1.98 1.98 3 3 C1.56023485 6.1503772 -0.2083515 8.67851605 -2.375 11.375 C-5.10461731 14.82263773 -7.62779207 18.29935563 -10 22 C-11.32 21.67 -12.64 21.34 -14 21 C-13.67 20.34 -13.34 19.68 -13 19 C-12.01 19 -11.02 19 -10 19 C-9.87625 18.360625 -9.7525 17.72125 -9.625 17.0625 C-9.41875 16.381875 -9.2125 15.70125 -9 15 C-8.34 14.67 -7.68 14.34 -7 14 C-7 12.02 -7 10.04 -7 8 C-5.68 8 -4.36 8 -3 8 C-3 7.34 -3 6.68 -3 6 C-2.34 6 -1.68 6 -1 6 C-1.020625 5.195625 -1.04125 4.39125 -1.0625 3.5625 C-1 1 -1 1 0 0 Z " fill="#DE767B" transform="translate(184,178)"/>
<path d="M0 0 C-0.56589844 0.33773437 -1.13179687 0.67546875 -1.71484375 1.0234375 C-2.44832031 1.46945313 -3.18179688 1.91546875 -3.9375 2.375 C-4.66839844 2.81585938 -5.39929688 3.25671875 -6.15234375 3.7109375 C-8.13772272 4.8773984 -8.13772272 4.8773984 -9 7 C-10.33333333 7.66666667 -11.66666667 8.33333333 -13 9 C-13.33 9.66 -13.66 10.32 -14 11 C-15.98246398 12.03432904 -17.98413316 13.03238392 -20 14 C-20.99 14.66 -21.98 15.32 -23 16 C-19.80045389 8.14656865 -11.88473877 3.89432185 -4.91015625 -0.23828125 C-3 -1 -3 -1 0 0 Z " fill="#E76D6B" transform="translate(198,160)"/>
<path d="M0 0 C2.125 0.375 2.125 0.375 4 1 C-11.15904139 15 -11.15904139 15 -14 15 C-14 13.35 -14 11.7 -14 10 C-12.68 10 -11.36 10 -10 10 C-10 9.34 -10 8.68 -10 8 C-9.34 8 -8.68 8 -8 8 C-8 7.01 -8 6.02 -8 5 C-6.02 4.67 -4.04 4.34 -2 4 C-2 3.34 -2 2.68 -2 2 C-1.34 1.34 -0.68 0.68 0 0 Z " fill="#C34C4E" transform="translate(203,257)"/>
<path d="M0 0 C1.5625 1.75 1.5625 1.75 3 4 C2.72330471 6.35190998 2.05656463 7.88687074 1 10 C1.66 10 2.32 10 3 10 C3.12375 10.639375 3.2475 11.27875 3.375 11.9375 C3.58125 12.618125 3.7875 13.29875 4 14 C4.66 14.33 5.32 14.66 6 15 C2 15 2 15 -0.8125 13.5625 C-3 11 -3 11 -3.1640625 8.80078125 C-2.58337034 2.58337034 -2.58337034 2.58337034 0 0 Z " fill="#DE0308" transform="translate(142,247)"/>
<path d="M0 0 C0 3 0 3 -1 6 C-1.825 6.433125 -2.65 6.86625 -3.5 7.3125 C-6.33023575 8.81959514 -6.33023575 8.81959514 -6.8125 12.1875 C-6.874375 13.115625 -6.93625 14.04375 -7 15 C-8.60875 15.12375 -8.60875 15.12375 -10.25 15.25 C-14.2738451 16.05476902 -15.48169253 16.87729874 -18 20 C-18.66 19.67 -19.32 19.34 -20 19 C-19.50072998 18.53102295 -19.00145996 18.0620459 -18.48706055 17.57885742 C-16.220076 15.44889856 -13.95378111 13.3182073 -11.6875 11.1875 C-10.90181641 10.44951172 -10.11613281 9.71152344 -9.30664062 8.95117188 C-8.54931641 8.23896484 -7.79199219 7.52675781 -7.01171875 6.79296875 C-6.31522217 6.1383667 -5.61872559 5.48376465 -4.90112305 4.80932617 C-3.24152511 3.22986292 -1.61108655 1.62871814 0 0 Z " fill="#E46866" transform="translate(214,231)"/>
<path d="M0 0 C0.33 0 0.66 0 1 0 C2.52388405 11.21798978 1.95425757 22.07623738 -4 32 C-4.33 32 -4.66 32 -5 32 C-4.67 28.7 -4.34 25.4 -4 22 C-3.34 22 -2.68 22 -2 22 C-2 20.02 -2 18.04 -2 16 C-1.67 16 -1.34 16 -1 16 C-0.67 10.72 -0.34 5.44 0 0 Z " fill="#DC7876" transform="translate(245,189)"/>
<path d="M0 0 C0.93585938 0.02255859 1.87171875 0.04511719 2.8359375 0.06835938 C5.14225674 0.12719405 7.44530838 0.20932854 9.75 0.3125 C9.75 0.6425 9.75 0.9725 9.75 1.3125 C1.335 1.8075 1.335 1.8075 -7.25 2.3125 C-7.91 3.9625 -8.57 5.6125 -9.25 7.3125 C-10.24 8.7975 -10.24 8.7975 -11.25 10.3125 C-11.91 10.3125 -12.57 10.3125 -13.25 10.3125 C-14 8.125 -14 8.125 -14.25 5.3125 C-11.00253876 -1.10690012 -6.37893561 -0.29035771 0 0 Z " fill="#C6100B" transform="translate(132.25,166.6875)"/>
<path d="M0 0 C2.31 0.33 4.62 0.66 7 1 C8.07525194 3.65228812 9.09456151 6.28368454 10 9 C12.00016466 10.20882096 12.00016466 10.20882096 14 11 C14 11.66 14 12.32 14 13 C14.66 13 15.32 13 16 13 C15.67 13.99 15.34 14.98 15 16 C14.34 15.67 13.68 15.34 13 15 C13 14.34 13 13.68 13 13 C12.34 13 11.68 13 11 13 C11 12.34 11 11.68 11 11 C10.01 10.67 9.02 10.34 8 10 C6.29115995 8.37660195 4.62553283 6.70680947 3 5 C2.401875 4.443125 1.80375 3.88625 1.1875 3.3125 C0 2 0 2 0 0 Z " fill="#C33E44" transform="translate(155,269)"/>
<path d="M0 0 C0.99 0 1.98 0 3 0 C5.25 2.3125 5.25 2.3125 7 5 C6.67 5.99 6.34 6.98 6 8 C4.02 8.33 2.04 8.66 0 9 C0.33 8.01 0.66 7.02 1 6 C0.01 6.33 -0.98 6.66 -2 7 C-2 6.34 -2 5.68 -2 5 C-2.66 5 -3.32 5 -4 5 C-3.67 4.01 -3.34 3.02 -3 2 C-2.01 2 -1.02 2 0 2 C0 1.34 0 0.68 0 0 Z " fill="#DA030C" transform="translate(161,264)"/>
<path d="M0 0 C2.97 0.99 5.94 1.98 9 3 C9 5.31 9 7.62 9 10 C10.32 10.66 11.64 11.32 13 12 C12.67 13.32 12.34 14.64 12 16 C10.37004698 14.0873614 8.74600485 12.17019858 7.125 10.25 C6.66480469 9.71117187 6.20460938 9.17234375 5.73046875 8.6171875 C3.35709185 5.79665263 1.66418323 3.32836646 0 0 Z " fill="#C53131" transform="translate(109,224)"/>
<path d="M0 0 C3.29150125 -0.08685287 6.5827096 -0.14033895 9.875 -0.1875 C10.81214844 -0.21263672 11.74929687 -0.23777344 12.71484375 -0.26367188 C13.61074219 -0.27333984 14.50664062 -0.28300781 15.4296875 -0.29296875 C16.25710449 -0.3086792 17.08452148 -0.32438965 17.93701172 -0.34057617 C18.61779785 -0.22818604 19.29858398 -0.1157959 20 0 C20.66 0.99 21.32 1.98 22 3 C20.7934375 2.7525 20.7934375 2.7525 19.5625 2.5 C13.55486218 1.65682276 7.17688521 0.80715954 1.95703125 4.41015625 C0.89548828 5.22806641 0.89548828 5.22806641 -0.1875 6.0625 C-0.90292969 6.61035156 -1.61835937 7.15820312 -2.35546875 7.72265625 C-2.89816406 8.14417969 -3.44085938 8.56570312 -4 9 C-3.71125 8.443125 -3.4225 7.88625 -3.125 7.3125 C-1.9586747 4.91505355 -0.9660119 2.48403061 0 0 Z " fill="#DA897C" transform="translate(125,168)"/>
<path d="M0 0 C3.875 2.625 3.875 2.625 5 6 C5.39806184 10.04317095 5.52305612 13.96579054 5 18 C2.5 20.75 2.5 20.75 0 22 C0.144375 21.41992188 0.28875 20.83984375 0.4375 20.2421875 C2.57514232 11.42924585 2.57514232 11.42924585 0 3 C0 2.01 0 1.02 0 0 Z " fill="#CD5B5A" transform="translate(230,185)"/>
<path d="M0 0 C0.99 0.33 1.98 0.66 3 1 C1.68552225 4.56425699 0.11594205 7.59724634 -2 10.75 C-2.515625 11.52859375 -3.03125 12.3071875 -3.5625 13.109375 C-5 15 -5 15 -7 16 C-6.52583422 11.02125936 -5.0900669 7.93281242 -2 4 C-1.34 4 -0.68 4 0 4 C0 2.68 0 1.36 0 0 Z " fill="#CD5255" transform="translate(237,220)"/>
<path d="M0 0 C0.66 0.33 1.32 0.66 2 1 C1.29445932 4.66881155 -0.27735506 7.70450534 -2 11 C-2.99 11 -3.98 11 -5 11 C-5.33 9.02 -5.66 7.04 -6 5 C-5.01 4.67 -4.02 4.34 -3 4 C-3 3.01 -3 2.02 -3 1 C-2.67 1.66 -2.34 2.32 -2 3 C-1.34 3 -0.68 3 0 3 C0 2.01 0 1.02 0 0 Z " fill="#C10E15" transform="translate(177,277)"/>
<path d="M0 0 C4.45673159 0.49871064 6.57687178 2.02004362 9.8125 5.0625 C10.60269531 5.79597656 11.39289063 6.52945312 12.20703125 7.28515625 C13.09455078 8.13400391 13.09455078 8.13400391 14 9 C13.01 9.495 13.01 9.495 12 10 C9.875 9.0625 9.875 9.0625 8 8 C8 7.34 8 6.68 8 6 C6.68 5.67 5.36 5.34 4 5 C4 4.34 4 3.68 4 3 C2.68 2.67 1.36 2.34 0 2 C0 1.34 0 0.68 0 0 Z " fill="#D25555" transform="translate(152,253)"/>
<path d="M0 0 C2.82378673 3.29441785 3.99994594 6.49235858 5.25 10.625 C5.60578125 11.77226562 5.9615625 12.91953125 6.328125 14.1015625 C7 17 7 17 6 19 C2.68502992 16.40567559 2.55615622 14.05199532 2 10 C1.649375 8.96875 1.29875 7.9375 0.9375 6.875 C0 4 0 4 0 0 Z " fill="#C4120B" transform="translate(118,210)"/>
<path d="M0 0 C3.75376152 1.25125384 4.24073289 2.5652404 6 6 C6 6.66 6 7.32 6 8 C6.66 8 7.32 8 8 8 C8.33 7.34 8.66 6.68 9 6 C9.33 6.99 9.66 7.98 10 9 C8.02 9.66 6.04 10.32 4 11 C1.54176828 7.31265242 0.98757384 4.30300029 0 0 Z " fill="#DE5757" transform="translate(166,170)"/>
<path d="M0 0 C0.33 0 0.66 0 1 0 C1.33 2.97 1.66 5.94 2 9 C1.01 9.33 0.02 9.66 -1 10 C-1 12.31 -1 14.62 -1 17 C-1.66 17.33 -2.32 17.66 -3 18 C-2.57045059 11.74892565 -1.98598493 5.95795479 0 0 Z " fill="#6B6966" transform="translate(50,59)"/>
<path d="M0 0 C2.97 0.33 5.94 0.66 9 1 C5.50663182 3.32891212 4.13992135 3.23551143 0.01953125 3.1953125 C-1.72553711 3.18564453 -1.72553711 3.18564453 -3.50585938 3.17578125 C-4.72080078 3.15902344 -5.93574219 3.14226563 -7.1875 3.125 C-8.41404297 3.11597656 -9.64058594 3.10695313 -10.90429688 3.09765625 C-13.93639295 3.07406017 -16.96809938 3.04113841 -20 3 C-20 2.67 -20 2.34 -20 2 C-10.1 1.505 -10.1 1.505 0 1 C0 0.67 0 0.34 0 0 Z " fill="#969696" transform="translate(140,27)"/>
<path d="M0 0 C0 3 0 3 -1.875 5.1875 C-4 7 -4 7 -6 7 C-6 7.66 -6 8.32 -6 9 C-7.3125 10.4375 -7.3125 10.4375 -9 12 C-9.556875 12.556875 -10.11375 13.11375 -10.6875 13.6875 C-11.120625 14.120625 -11.55375 14.55375 -12 15 C-12.33 14.01 -12.66 13.02 -13 12 C-10.31083469 7.55175664 -6.56176138 4.40759628 -2 2 C-1.34 1.34 -0.68 0.68 0 0 Z " fill="#CF2526" transform="translate(200,246)"/>
<path d="M0 0 C0.66 0 1.32 0 2 0 C2 0.66 2 1.32 2 2 C2.66 2 3.32 2 4 2 C4 2.99 4 3.98 4 5 C4.66 5.33 5.32 5.66 6 6 C6 6.66 6 7.32 6 8 C5.01 8.33 4.02 8.66 3 9 C1.35 7.35 -0.3 5.7 -2 4 C-1.34 3.67 -0.68 3.34 0 3 C0 2.01 0 1.02 0 0 Z " fill="#D30A07" transform="translate(120,226)"/>
<path d="M0 0 C2.50719458 2.32649587 4.32183601 4.82681521 6.1875 7.6875 C6.71730469 8.49574219 7.24710938 9.30398437 7.79296875 10.13671875 C8.39044922 11.05904297 8.39044922 11.05904297 9 12 C8.67 12.66 8.34 13.32 8 14 C7.01 13.67 6.02 13.34 5 13 C5 12.34 5 11.68 5 11 C4.34 11 3.68 11 3 11 C2.49632243 9.54293274 1.99717444 8.08429904 1.5 6.625 C1.2215625 5.81289062 0.943125 5.00078125 0.65625 4.1640625 C0 2 0 2 0 0 Z " fill="#CD6454" transform="translate(122,218)"/>
<path d="M0 0 C0.80824219 0.38027344 1.61648437 0.76054687 2.44921875 1.15234375 C3.06410156 1.45269531 3.67898437 1.75304687 4.3125 2.0625 C2.625 3.625 2.625 3.625 0.3125 5.0625 C-2.4375 4.75 -2.4375 4.75 -4.6875 4.0625 C-5.0175 3.0725 -5.3475 2.0825 -5.6875 1.0625 C-6.3475 0.4025 -7.0075 -0.2575 -7.6875 -0.9375 C-4.04589192 -2.15136936 -3.35584531 -1.6049695 0 0 Z " fill="#DD0E13" transform="translate(149.6875,249.9375)"/>
<path d="M0 0 C0.33 0 0.66 0 1 0 C1.07347656 1.16015625 1.07347656 1.16015625 1.1484375 2.34375 C1.58747623 8.46001367 2.30007536 14.10692791 4 20 C3.34 20.33 2.68 20.66 2 21 C1.690625 19.865625 1.38125 18.73125 1.0625 17.5625 C0.37075469 14.21224901 0.37075469 14.21224901 -1 13 C-1.09894455 11.5653041 -1.12970735 10.12559603 -1.125 8.6875 C-1.12757812 7.90761719 -1.13015625 7.12773437 -1.1328125 6.32421875 C-1.00499912 4.08748461 -0.61913869 2.14733021 0 0 Z " fill="#C96A6D" transform="translate(114,190)"/>
<path d="M0 0 C-6.87581298 2.1591338 -12.78528371 3.35482211 -20 3 C-20 2.67 -20 2.34 -20 2 C-18.35 2 -16.7 2 -15 2 C-15 1.34 -15 0.68 -15 0 C-13.06325815 -0.19517554 -11.12555991 -0.38087873 -9.1875 -0.5625 C-8.10855469 -0.66691406 -7.02960938 -0.77132813 -5.91796875 -0.87890625 C-3 -1 -3 -1 0 0 Z " fill="#A6A5A1" transform="translate(275,402)"/>
<path d="M0 0 C2.475 0.495 2.475 0.495 5 1 C5 2.65 5 4.3 5 6 C5.66 6 6.32 6 7 6 C7 6.66 7 7.32 7 8 C7.66 8 8.32 8 9 8 C8.67 8.99 8.34 9.98 8 11 C3.48709197 7.66437233 1.31793186 5.66710699 0 0 Z " fill="#3F3F3F" transform="translate(272,51)"/>
<path d="M0 0 C1.65 0 3.3 0 5 0 C5 0.66 5 1.32 5 2 C3.38542921 3.43581474 1.70780925 4.80144783 0 6.125 C-0.928125 6.84945313 -1.85625 7.57390625 -2.8125 8.3203125 C-3.534375 8.87460937 -4.25625 9.42890625 -5 10 C-5.66 9.67 -6.32 9.34 -7 9 C-6.67 7.68 -6.34 6.36 -6 5 C-4.35 4.67 -2.7 4.34 -1 4 C-0.67 2.68 -0.34 1.36 0 0 Z " fill="#696967" transform="translate(285,389)"/>
<path d="M0 0 C3.3 0 6.6 0 10 0 C10 0.99 10 1.98 10 3 C6.37 3 2.74 3 -1 3 C-0.67 2.01 -0.34 1.02 0 0 Z " fill="#EBE8DF" transform="translate(170,388)"/>
<path d="M0 0 C2.31 0.66 4.62 1.32 7 2 C6.67 2.66 6.34 3.32 6 4 C4.68 3.67 3.36 3.34 2 3 C2 3.66 2 4.32 2 5 C1.01 5 0.02 5 -1 5 C-0.67 3.35 -0.34 1.7 0 0 Z M-4 5 C-3.01 5.33 -2.02 5.66 -1 6 C-1.99 6.99 -2.98 7.98 -4 9 C-4.66 8.34 -5.32 7.68 -6 7 C-5.34 7 -4.68 7 -4 7 C-4 6.34 -4 5.68 -4 5 Z " fill="#D2141B" transform="translate(159,261)"/>
<path d="M0 0 C0.33 0.66 0.66 1.32 1 2 C1.66 2 2.32 2 3 2 C4.32229189 4.64458379 4.09677194 6.67761301 4.0625 9.625 C4.05347656 10.62789062 4.04445312 11.63078125 4.03515625 12.6640625 C4.02355469 13.43492187 4.01195312 14.20578125 4 15 C3.67 15 3.34 15 3 15 C2.87625 14.21625 2.7525 13.4325 2.625 12.625 C2.20882007 9.85942178 2.20882007 9.85942178 0 8 C-0.26991906 5.31160615 -0.08737357 2.70858064 0 0 Z " fill="#BE3A35" transform="translate(241,181)"/>
<path d="M0 0 C2 2 2 2 2 5 C2.87398438 5.39832031 2.87398438 5.39832031 3.765625 5.8046875 C6.06174228 7.03302996 7.80356018 8.40314939 9.75 10.125 C10.67039062 10.93324219 10.67039062 10.93324219 11.609375 11.7578125 C12.06828125 12.16773438 12.5271875 12.57765625 13 13 C9.25 14.125 9.25 14.125 7 13 C6.525625 12.195625 6.05125 11.39125 5.5625 10.5625 C4.10335955 7.7644028 4.10335955 7.7644028 1 6 C0.3125 2.875 0.3125 2.875 0 0 Z " fill="#868586" transform="translate(73,361)"/>
<path d="M0 0 C1.32 0 2.64 0 4 0 C3.731875 0.66 3.46375 1.32 3.1875 2 C1.74294953 5.64939067 0.37128822 9.32245433 -1 13 C-1.33 13 -1.66 13 -2 13 C-2.19294408 8.17639811 -1.75747614 4.50353262 0 0 Z " fill="#DD716D" transform="translate(117,177)"/>
<path d="M0 0 C0.33 0.66 0.66 1.32 1 2 C1.66 2.33 2.32 2.66 3 3 C2.67 3.99 2.34 4.98 2 6 C0.02 6.33 -1.96 6.66 -4 7 C-3.43628586 3.73045798 -2.50037734 2.17424117 0 0 Z " fill="#D94145" transform="translate(219,225)"/>
<path d="M0 0 C0.66 0 1.32 0 2 0 C2 0.66 2 1.32 2 2 C2.639375 2.28875 3.27875 2.5775 3.9375 2.875 C6 4 6 4 7 6 C7.039992 7.99960012 7.04346799 10.00047242 7 12 C4.06185997 10.53092999 3.6713774 8.40552194 2.375 5.4375 C1.92898437 4.42558594 1.48296875 3.41367188 1.0234375 2.37109375 C0.68570313 1.58863281 0.34796875 0.80617187 0 0 Z " fill="#D67375" transform="translate(163,185)"/>
<path d="M0 0 C0.66 0.33 1.32 0.66 2 1 C1.401875 1.556875 0.80375 2.11375 0.1875 2.6875 C-1.9863446 4.98556429 -3.46898083 7.24416549 -5 10 C-6.32 9.67 -7.64 9.34 -9 9 C-6.03 6.03 -3.06 3.06 0 0 Z " fill="#E07979" transform="translate(190,253)"/>
<path d="M0 0 C0.99 0 1.98 0 3 0 C1.55922954 3.36179774 -0.24750021 5.59156268 -3 8 C-3.66 8 -4.32 8 -5 8 C-5 6.68 -5 5.36 -5 4 C-4.360625 3.71125 -3.72125 3.4225 -3.0625 3.125 C-0.84793921 2.17176549 -0.84793921 2.17176549 0 0 Z " fill="#B74449" transform="translate(212,249)"/>
<path d="M0 0 C0.99 0 1.98 0 3 0 C3 0.66 3 1.32 3 2 C3.66 2.33 4.32 2.66 5 3 C3.515 5.475 3.515 5.475 2 8 C0.4375 6.25 0.4375 6.25 -1 4 C-0.6875 1.75 -0.6875 1.75 0 0 Z " fill="#D70605" transform="translate(134,242)"/>
<path d="M0 0 C0.99 0.99 1.98 1.98 3 3 C2.67 3.33 2.34 3.66 2 4 C2.99 4.99 3.98 5.98 5 7 C4.01 7.495 4.01 7.495 3 8 C0.69 6.35 -1.62 4.7 -4 3 C-3.34 2.67 -2.68 2.34 -2 2 C-1.34 2.33 -0.68 2.66 0 3 C0 2.01 0 1.02 0 0 Z " fill="#616161" transform="translate(66,392)"/>
<path d="M0 0 C0.66 0 1.32 0 2 0 C4 2 4 2 5 4 C5.66 4 6.32 4 7 4 C7.33 5.98 7.66 7.96 8 10 C4.71211176 6.88983545 2.16264012 3.98381075 0 0 Z " fill="#646362" transform="translate(54,384)"/>
<path d="M0 0 C4.45280788 -0.17461992 8.08594062 -0.30238787 12 2 C12.8125 4.125 12.8125 4.125 13 6 C10.0625 5.1875 10.0625 5.1875 7 4 C6.67 3.01 6.34 2.02 6 1 C4.02 1 2.04 1 0 1 C0 0.67 0 0.34 0 0 Z " fill="#DA5244" transform="translate(208,167)"/>
<path d="M0 0 C1.14926266 0.95421808 2.29430541 1.91352045 3.4375 2.875 C4.07558594 3.40867188 4.71367187 3.94234375 5.37109375 4.4921875 C7 6 7 6 8 8 C5.69 7.67 3.38 7.34 1 7 C1 6.01 1 5.02 1 4 C0.6937566 2.66018514 0.36548445 1.32488113 0 0 Z " fill="#D66052" transform="translate(131,232)"/>
<path d="M0 0 C1.98 0 3.96 0 6 0 C6.12375 0.639375 6.2475 1.27875 6.375 1.9375 C6.684375 2.9584375 6.684375 2.9584375 7 4 C7.66 4.33 8.32 4.66 9 5 C5 5 5 5 2.25 2.5 C1.5075 1.675 0.765 0.85 0 0 Z " fill="#D04243" transform="translate(139,257)"/>
<path d="M0 0 C2.99220268 1.36370299 5.29026529 2.94908083 7.75 5.125 C8.67039063 5.93324219 8.67039063 5.93324219 9.609375 6.7578125 C10.06828125 7.16773438 10.5271875 7.57765625 11 8 C10.01 8.495 10.01 8.495 9 9 C4.49415979 6.98422938 2.50123051 4.16871752 0 0 Z " fill="#E27C78" transform="translate(142,243)"/>
<path d="M0 0 C0 3 0 3 -1 6 C-2.95597184 7.39712274 -4.95436401 8.73779907 -7 10 C-7.66 9.67 -8.32 9.34 -9 9 C-6.03 6.03 -3.06 3.06 0 0 Z " fill="#E07D78" transform="translate(214,231)"/>
<path d="M0 0 C0 0.66 0 1.32 0 2 C-0.99 2 -1.98 2 -3 2 C-3 2.66 -3 3.32 -3 4 C-4.98 4.33 -6.96 4.66 -9 5 C-9 4.34 -9 3.68 -9 3 C-5.63316085 0.56839395 -4.26649636 0 0 0 Z " fill="#DB1717" transform="translate(202,159)"/>
<path d="M0 0 C0.66 0.33 1.32 0.66 2 1 C1.43457996 2.32031595 0.84693528 3.6311301 0.25 4.9375 C-0.23726562 6.03384766 -0.23726562 6.03384766 -0.734375 7.15234375 C-2 9 -2 9 -4.140625 9.75390625 C-5.06101563 9.87572266 -5.06101563 9.87572266 -6 10 C-4.6302836 6.00499382 -2.74277578 3.19990508 0 0 Z " fill="#5D5B5C" transform="translate(61,41)"/>
<path d="M0 0 C2.0625 0.4375 2.0625 0.4375 4 1 C4 1.99 4 2.98 4 4 C1.69 4.33 -0.62 4.66 -3 5 C-1.125 1.125 -1.125 1.125 0 0 Z " fill="#CC0B0D" transform="translate(185,268)"/>
<path d="M0 0 C0.66 0 1.32 0 2 0 C2 0.99 2 1.98 2 3 C2.66 3.33 3.32 3.66 4 4 C3.67 4.66 3.34 5.32 3 6 C3.66 6 4.32 6 5 6 C5.33 5.34 5.66 4.68 6 4 C5.67 5.32 5.34 6.64 5 8 C3.68 7.67 2.36 7.34 1 7 C0.67 4.69 0.34 2.38 0 0 Z " fill="#B50E1B" transform="translate(169,190)"/>
<path d="M0 0 C1.32 0 2.64 0 4 0 C3.4409112 3.24271506 2.5867822 4.93057424 0 7 C-0.66 7 -1.32 7 -2 7 C-2 5.68 -2 4.36 -2 3 C-1.34 3 -0.68 3 0 3 C0 2.01 0 1.02 0 0 Z " fill="#CE0A12" transform="translate(174,189)"/>
<path d="M0 0 C0.99 0.33 1.98 0.66 3 1 C2.67 2.98 2.34 4.96 2 7 C1.01 7 0.02 7 -1 7 C-0.7525 6.1028125 -0.7525 6.1028125 -0.5 5.1875 C0.1114124 2.88655664 0.1114124 2.88655664 0 0 Z " fill="#313130" transform="translate(276,393)"/>
<path d="M0 0 C1 3 1 3 0.22265625 5.04296875 C-0.16019531 5.75066406 -0.54304688 6.45835937 -0.9375 7.1875 C-1.31777344 7.90292969 -1.69804687 8.61835938 -2.08984375 9.35546875 C-2.54037109 10.16951172 -2.54037109 10.16951172 -3 11 C-3.66 9.68 -4.32 8.36 -5 7 C-4.01 6.67 -3.02 6.34 -2 6 C-0.77479736 2.99152582 -0.77479736 2.99152582 0 0 Z " fill="#8C8C8C" transform="translate(298,373)"/>
<path d="M0 0 C0.33 0 0.66 0 1 0 C1 3.3 1 6.6 1 10 C0.34 10 -0.32 10 -1 10 C-1.33 10.66 -1.66 11.32 -2 12 C-2 10.02 -2 8.04 -2 6 C-1.34 6 -0.68 6 0 6 C0 4.02 0 2.04 0 0 Z " fill="#333333" transform="translate(299,363)"/>
<path d="M0 0 C1.98 0.99 3.96 1.98 6 3 C6 3.66 6 4.32 6 5 C6.66 5 7.32 5 8 5 C7.67 5.99 7.34 6.98 7 8 C6.34 7.67 5.68 7.34 5 7 C5 6.34 5 5.68 5 5 C4.34 5 3.68 5 3 5 C3 4.34 3 3.68 3 3 C2.01 2.67 1.02 2.34 0 2 C0 1.34 0 0.68 0 0 Z " fill="#D48686" transform="translate(163,277)"/>
<path d="M0 0 C2.475 0.99 2.475 0.99 5 2 C5 2.99 5 3.98 5 5 C5.66 5.33 6.32 5.66 7 6 C6.67 6.99 6.34 7.98 6 9 C4.02 6.03 2.04 3.06 0 0 Z " fill="#CC6563" transform="translate(109,224)"/>
<path d="M0 0 C3 2 3 2 3.8125 4 C3.874375 4.66 3.93625 5.32 4 6 C3.34 6.66 2.68 7.32 2 8 C0.4375 6.25 0.4375 6.25 -1 4 C-0.6875 1.75 -0.6875 1.75 0 0 Z " fill="#D24F4D" transform="translate(106,215)"/>
<path d="M0 0 C2.475 0.99 2.475 0.99 5 2 C5 2.66 5 3.32 5 4 C5.66 4 6.32 4 7 4 C7 4.66 7 5.32 7 6 C6.01 6.33 5.02 6.66 4 7 C3.67 5.68 3.34 4.36 3 3 C2.01 3 1.02 3 0 3 C0 2.01 0 1.02 0 0 Z " fill="#DC756D" transform="translate(159,164)"/>
<path d="M0 0 C0.53625 0.226875 1.0725 0.45375 1.625 0.6875 C0.635 0.6875 -0.355 0.6875 -1.375 0.6875 C-1.375 1.3475 -1.375 2.0075 -1.375 2.6875 C-2.365 2.6875 -3.355 2.6875 -4.375 2.6875 C-4.375 3.3475 -4.375 4.0075 -4.375 4.6875 C-5.695 4.0275 -7.015 3.3675 -8.375 2.6875 C-2.95961538 -0.38942308 -2.95961538 -0.38942308 0 0 Z " fill="#DE7871" transform="translate(126.375,158.3125)"/>
<path d="M0 0 C1.32 0 2.64 0 4 0 C3.34 1.65 2.68 3.3 2 5 C1.01 5 0.02 5 -1 5 C-1.33 4.01 -1.66 3.02 -2 2 C-1.34 2 -0.68 2 0 2 C0 1.34 0 0.68 0 0 Z " fill="#C56F71" transform="translate(173,283)"/>
<path d="M0 0 C1.485 0.99 1.485 0.99 3 2 C3 3.32 3 4.64 3 6 C1.68 6 0.36 6 -1 6 C-1.042721 4.33388095 -1.04063832 2.66617115 -1 1 C-0.67 0.67 -0.34 0.34 0 0 Z " fill="#D60D13" transform="translate(140,251)"/>
<path d="M0 0 C0.99 0 1.98 0 3 0 C3.3125 2.25 3.3125 2.25 3 5 C0.5 7.3125 0.5 7.3125 -2 9 C-1.34 6.03 -0.68 3.06 0 0 Z " fill="#E05D62" transform="translate(232,198)"/>
<path d="M0 0 C1.65 0.33 3.3 0.66 5 1 C3.35 2.65 1.7 4.3 0 6 C-0.66 5.67 -1.32 5.34 -2 5 C-1.34 3.35 -0.68 1.7 0 0 Z " fill="#D8615C" transform="translate(189,175)"/>
<path d="M0 0 C-5.41538462 4.06153846 -5.41538462 4.06153846 -8.375 3.75 C-8.91125 3.5025 -9.4475 3.255 -10 3 C-3.375 -1.125 -3.375 -1.125 0 0 Z " fill="#EE8886" transform="translate(198,160)"/>
<path d="M0 0 C1.65 0 3.3 0 5 0 C5.33 1.65 5.66 3.3 6 5 C4 4 2 3 0 2 C0 1.34 0 0.68 0 0 Z " fill="#D7575B" transform="translate(147,263)"/>
<path d="M0 0 C2.11180592 2.57089417 3.66306057 4.63060567 4 8 C3.34 8.66 2.68 9.32 2 10 C0.68373308 6.38026598 0 3.90432869 0 0 Z " fill="#C95B52" transform="translate(118,210)"/>
<path d="M0 0 C0.99 0.99 1.98 1.98 3 3 C2.67 3.99 2.34 4.98 2 6 C1.01 6 0.02 6 -1 6 C-1.042721 4.33388095 -1.04063832 2.66617115 -1 1 C-0.67 0.67 -0.34 0.34 0 0 Z " fill="#DE3E39" transform="translate(184,178)"/>
<path d="M0 0 C2.64 0.33 5.28 0.66 8 1 C8.33 1.99 8.66 2.98 9 4 C5.17902761 3.46930939 2.93828597 2.50298434 0 0 Z " fill="#D4544C" transform="translate(147,171)"/>
<path d="M0 0 C0.66 0 1.32 0 2 0 C1.6875 2.375 1.6875 2.375 1 5 C0.01 5.66 -0.98 6.32 -2 7 C-1.125 1.125 -1.125 1.125 0 0 Z " fill="#C24B50" transform="translate(232,229)"/>
<path d="M0 0 C0.66 0.33 1.32 0.66 2 1 C1.67 2.65 1.34 4.3 1 6 C0.01 6.33 -0.98 6.66 -2 7 C-2.125 4.625 -2.125 4.625 -2 2 C-1.34 1.34 -0.68 0.68 0 0 Z " fill="#CF150E" transform="translate(107,210)"/>
<path d="M0 0 C2.97 0 5.94 0 9 0 C9 0.33 9 0.66 9 1 C6.03 1 3.06 1 0 1 C0 0.67 0 0.34 0 0 Z " fill="#FFFFFF" transform="translate(118,27)"/>
<path d="M0 0 C2.31 0 4.62 0 7 0 C7 0.33 7 0.66 7 1 C4.69 1 2.38 1 0 1 C0 0.67 0 0.34 0 0 Z " fill="#FFFFFF" transform="translate(188,26)"/>
<path d="M0 0 C3 1 3 1 3 1 Z " fill="#FFFFFF" transform="translate(197,26)"/>
<path d="" fill="#FFFFFF" transform="translate(0,0)"/>
<path d="" fill="#FFFFFF" transform="translate(0,0)"/>
<path d="" fill="#FFFFFF" transform="translate(0,0)"/>
<path d="" fill="#FFFFFF" transform="translate(0,0)"/>
</svg>