<?xml version="1.0" encoding="UTF-8"?>
<svg version="1.1" xmlns="http://www.w3.org/2000/svg" width="476" height="432">
<path d="M0 0 C3.37919638 -0.00692458 6.74164272 -0.07160107 10.1171875 -0.21484375 C15.65948027 -0.32987247 18.62277988 0.76315204 22.61417103 4.51885605 C24.76726048 8.37367868 24.40263019 12.09687205 24.36076355 16.44049072 C24.36332682 17.40762678 24.3658901 18.37476284 24.36853105 19.37120605 C24.37348271 22.62036025 24.35695294 25.86905248 24.34057617 29.11816406 C24.3397302 31.44384754 24.34020446 33.76953183 24.34190369 36.09521484 C24.34276623 42.41716025 24.32509845 48.73893573 24.30418181 55.06084156 C24.28735434 60.99579695 24.28431399 66.93074564 24.2812262 72.86572167 C24.27466026 84.62112521 24.25469525 96.37646631 24.22631836 108.13183594 C24.19878147 119.55110359 24.17754608 130.97035428 24.16479492 142.38964844 C24.16400675 143.0935285 24.16321858 143.79740856 24.16240653 144.52261832 C24.15849142 148.0537765 24.15470029 151.58493479 24.15097082 155.11609316 C24.11987048 184.41076904 24.0668078 213.70538386 24 243 C24.62648438 243.17015625 25.25296875 243.3403125 25.8984375 243.515625 C27.12433594 243.87914062 27.12433594 243.87914062 28.375 244.25 C29.59316406 244.59804688 29.59316406 244.59804688 30.8359375 244.953125 C33.45785454 246.2214892 33.99382318 247.32423308 35 250 C34.34 250 33.68 250 33 250 C33.185625 250.804375 33.37125 251.60875 33.5625 252.4375 C33.706875 253.283125 33.85125 254.12875 34 255 C33 256 33 256 29.75 256.25 C25.29079891 257.14184022 23.93840886 258.64181844 21 262 C18.61779974 263.19110013 17.22990987 263.10051765 14.57421875 263.0625 C13.64577148 263.05428223 12.71732422 263.04606445 11.76074219 263.03759766 C10.74657227 263.02519043 9.73240234 263.0127832 8.6875 263 C-2.41277661 262.90940643 -13.46625648 263.25082708 -24.55200195 263.8203125 C-26.31290161 263.89765625 -26.31290161 263.89765625 -28.109375 263.9765625 C-29.67123535 264.05511475 -29.67123535 264.05511475 -31.26464844 264.13525391 C-34.11545456 263.99429116 -35.56635803 263.41299692 -38 262 C-39.73813388 261.57336714 -41.48988665 261.19923141 -43.25 260.875 C-44.14203125 260.70742188 -45.0340625 260.53984375 -45.953125 260.3671875 C-46.62859375 260.24601562 -47.3040625 260.12484375 -48 260 C-47.67 259.01 -47.34 258.02 -47 257 C-47.66 256.67 -48.32 256.34 -49 256 C-48.34 256 -47.68 256 -47 256 C-46.94597726 253.89611431 -46.90719744 251.79183286 -46.875 249.6875 C-46.85179687 248.51574219 -46.82859375 247.34398437 -46.8046875 246.13671875 C-46.74679382 242.83606339 -46.74679382 242.83606339 -49 240 C-49.17162025 237.31405085 -49.23224552 234.73455099 -49.1953125 232.05078125 C-49.1924826 231.27816452 -49.18965271 230.50554779 -49.18673706 229.70951843 C-49.17554878 227.24368757 -49.15044703 224.77822094 -49.125 222.3125 C-49.11496843 220.63997921 -49.10584289 218.96745272 -49.09765625 217.29492188 C-49.07561392 213.19647441 -49.04109363 209.09829894 -49 205 C-49.33 205 -49.66 205 -50 205 C-50.11105457 158.42406706 -50.0880833 111.85006777 -49.65256882 65.27570343 C-49.62509917 62.19860848 -49.60122543 59.12150519 -49.57839966 56.04437256 C-49.54183841 51.17949388 -49.49562581 46.31479863 -49.44199944 41.45007896 C-49.42374226 39.67277611 -49.40849317 37.89543914 -49.39663887 36.11808205 C-49.20900709 9.1961461 -49.20900709 9.1961461 -45 1 C-41.93511127 -0.02162958 -39.62165401 -0.19895211 -36.40625 -0.31640625 C-34.735625 -0.37924805 -34.735625 -0.37924805 -33.03125 -0.44335938 C-31.8659375 -0.48267578 -30.700625 -0.52199219 -29.5 -0.5625 C-28.365625 -0.60568359 -27.23125 -0.64886719 -26.0625 -0.69335938 C-6.82424468 -1.38831929 -6.82424468 -1.38831929 0 0 Z M-28 19 C-27.34 20.32 -26.68 21.64 -26 23 C-26.66 23 -27.32 23 -28 23 C-28.02488901 28.2469855 -28.04294884 33.49393592 -28.05493164 38.7409668 C-28.05993201 40.52254842 -28.06673446 42.30412599 -28.07543945 44.08569336 C-28.08769464 46.6600037 -28.09327142 49.23425936 -28.09765625 51.80859375 C-28.10281754 52.59334579 -28.10797882 53.37809784 -28.11329651 54.18663025 C-28.11365926 57.83716186 -27.99043282 61.36816173 -27.50219727 64.98706055 C-26.60142659 72.40928058 -26.856634 79.93311559 -26.8671875 87.3984375 C-26.86651295 89.0823264 -26.86554167 90.7662152 -26.86428833 92.45010376 C-26.86282089 95.96169979 -26.86493673 99.47327024 -26.86962891 102.98486328 C-26.87535212 107.48739827 -26.87202486 111.98987398 -26.86605644 116.49240685 C-26.86244752 119.96160328 -26.86359049 123.43078559 -26.86618423 126.89998245 C-26.86685122 128.56099072 -26.86603305 130.22200028 -26.86370468 131.88300705 C-26.86116989 134.19726738 -26.86502926 136.51143052 -26.87060547 138.82568359 C-26.87140106 140.14200775 -26.87219666 141.45833191 -26.87301636 142.81454468 C-27 146 -27 146 -28 149 C-28.05996848 150.66544033 -28.05890523 152.33340679 -28.02172852 153.99951172 C-28.00163223 155.01842499 -27.98153595 156.03733826 -27.96083069 157.08712769 C-27.93379562 158.19017242 -27.90676056 159.29321716 -27.87890625 160.4296875 C-27.84348976 162.14165817 -27.84348976 162.14165817 -27.80735779 163.88821411 C-27.73070882 167.55060221 -27.64689064 171.21278282 -27.5625 174.875 C-27.48302174 178.50152763 -27.40505788 182.12808184 -27.32835388 185.75466919 C-27.28018918 188.0109568 -27.2302301 190.26720714 -27.17811584 192.52340698 C-27.14324318 194.0990593 -27.14324318 194.0990593 -27.10766602 195.70654297 C-27.08463409 196.73551697 -27.06160217 197.76449097 -27.03787231 198.824646 C-26.98539874 203.22422361 -27.07664931 207.6204709 -27.18638611 212.01882935 C-26.98110422 215.30223036 -26.07759186 217.90580167 -25 221 C-25.097174 224.56304667 -25.50256507 228.02249371 -25.90625 231.5625 C-26.00529946 235.19431364 -25.34720025 237.65241149 -24 241 C-19.04649325 242.05476879 -14.62160651 241.95554228 -9.625 241.5625 C-8.88894531 241.51029297 -8.15289062 241.45808594 -7.39453125 241.40429688 C-5.59589371 241.27582277 -3.79787091 241.13879051 -2 241 C-2.16371094 240.4225 -2.32742188 239.845 -2.49609375 239.25 C-2.98481462 237.06780447 -3.10166473 235.22803826 -3.0625 233 C-3.05347656 232.34 -3.04445313 231.68 -3.03515625 231 C-3.02355469 230.34 -3.01195312 229.68 -3 229 C-3 227.68 -3 226.36 -3 225 C-2.67 224.01 -2.34 223.02 -2 222 C-1.59896089 215.53674178 -1.81417329 210.1203148 -4 204 C-3.66666667 202 -3.33333333 200 -3 198 C-2.87693122 195.1237466 -2.90501995 192.25323212 -2.9375 189.375 C-2.94201172 188.62476563 -2.94652344 187.87453125 -2.95117188 187.1015625 C-2.96379347 185.06768237 -2.98165879 183.03383659 -3 181 C-3 177 -3 177 -2.49023438 175.25561523 C-1.74274069 171.81632533 -2.01591032 168.40386949 -2.15625 164.91015625 C-2.195224 163.73784706 -2.195224 163.73784706 -2.23498535 162.54185486 C-2.34598601 159.20702993 -2.47006429 155.87272324 -2.59326172 152.53833008 C-2.68146345 150.09990991 -2.76277436 147.66132538 -2.84375 145.22265625 C-2.87392212 144.47355484 -2.90409424 143.72445343 -2.93518066 142.95265198 C-3.06145148 139.12262811 -2.81554083 135.73537286 -2 132 C-2.495 131.505 -2.495 131.505 -3 131 C-3.22091421 126.46179102 -3.18578599 121.91781339 -3.18530273 117.37475586 C-3.18746137 115.1031542 -3.20552935 112.83206066 -3.22460938 110.56054688 C-3.27093492 98.3361735 -3.27093492 98.3361735 -2 93.19921875 C-0.24295591 85.79771944 -0.74218994 78.05707211 -0.79418945 70.49755859 C-0.81236397 67.77041143 -0.81469904 65.04360756 -0.81445312 62.31640625 C0.41451148 46.18099031 0.41451148 46.18099031 -3 32 C-2.58335431 27.66688485 -1.80210791 23.96463741 0 20 C-3.27626375 19.0178006 -6.22788119 18.88419086 -9.640625 18.90234375 C-11.24550781 18.90717773 -11.24550781 18.90717773 -12.8828125 18.91210938 C-13.99398437 18.92048828 -15.10515625 18.92886719 -16.25 18.9375 C-17.37664062 18.94201172 -18.50328125 18.94652344 -19.6640625 18.95117188 C-22.44276217 18.96294603 -25.22135409 18.9793916 -28 19 Z M-49 192 C-48 196 -48 196 -48 196 Z " fill="#020202" transform="translate(384,131)"/>
<path d="M0 0 C0 0.66 0 1.32 0 2 C5.94 1.67 11.88 1.34 18 1 C18.495 1.99 18.495 1.99 19 3 C20.3921875 2.9690625 20.3921875 2.9690625 21.8125 2.9375 C25 3 25 3 28 4 C29.84993852 6.84412317 30.32984478 9.40490751 30.625 12.75 C30.73714844 13.94882813 30.73714844 13.94882813 30.8515625 15.171875 C30.90054688 15.77515625 30.94953125 16.3784375 31 17 C30.34 17 29.68 17 29 17 C29.01252808 17.60260651 29.02505615 18.20521301 29.03796387 18.82608032 C29.17044195 25.22010045 29.29969342 31.61418055 29.42724609 38.00830078 C29.47495669 40.38006164 29.52343256 42.75180725 29.57275391 45.12353516 C29.81552715 56.8212421 30.03152352 68.51047057 29.96875 80.2109375 C29.93370838 87.56448169 30.12762851 94.87787291 30.48046875 102.22265625 C31.14905702 116.45900194 31.25748598 130.69237535 31.29516602 144.94165039 C31.30414676 147.96593616 31.32535752 150.98978037 31.35668945 154.01391602 C31.39525559 157.73748965 31.41393653 161.46066894 31.41844749 165.18443489 C31.42326904 166.58095342 31.43475373 167.97746772 31.45348549 169.37386894 C31.55574924 177.46947842 31.18629925 183.93098254 27 191 C25.76435303 191.02505615 24.52870605 191.0501123 23.25561523 191.07592773 C18.65037514 191.17043852 14.04527061 191.27055089 9.44018555 191.37231445 C7.4509601 191.41549871 5.46170152 191.4571847 3.47241211 191.49731445 C0.60520463 191.55541898 -2.2618386 191.61899555 -5.12890625 191.68359375 C-6.45276085 191.70866249 -6.45276085 191.70866249 -7.80335999 191.73423767 C-12.61643188 191.84847412 -17.23448919 192.25209513 -22 193 C-24.43626634 193.08802663 -26.87464953 193.13023706 -29.3125 193.125 C-30.52550781 193.12757813 -31.73851562 193.13015625 -32.98828125 193.1328125 C-36 193 -36 193 -38 192 C-38 191.34 -38 190.68 -38 190 C-38.66 190 -39.32 190 -40 190 C-41.125 185.25 -41.125 185.25 -40 183 C-39.95977609 180.6670134 -39.95679753 178.33293334 -40 176 C-40.66 175.67 -41.32 175.34 -42 175 C-41.99555878 174.33538254 -41.99111755 173.67076508 -41.98654175 172.98600769 C-41.94205988 166.02593144 -41.91203097 159.06589604 -41.89013672 152.10571289 C-41.88012159 149.51324827 -41.86650561 146.92079482 -41.84912109 144.32836914 C-41.82467485 140.58737417 -41.81347164 136.84652945 -41.8046875 133.10546875 C-41.79436493 131.95918503 -41.78404236 130.81290131 -41.77340698 129.63188171 C-41.77267297 124.28546288 -42.02577566 119.35658748 -43.13720703 114.1184082 C-44.10387192 109.41235392 -43.48556229 106.60910958 -42 102 C-41.72257673 98.21811167 -41.79076425 94.44627366 -41.83984375 90.65625 C-41.8454985 89.54969559 -41.85115326 88.44314117 -41.85697937 87.30305481 C-41.86951886 84.9311477 -41.8862534 82.55925972 -41.90679932 80.18740845 C-41.95845528 73.98309571 -41.97301599 67.77871158 -41.98828125 61.57421875 C-41.99180603 60.33568649 -41.99533081 59.09715424 -41.9989624 57.8210907 C-42.01956005 47.48400844 -41.92740996 37.1531079 -41.68362427 26.81884766 C-41.64473747 25.15633092 -41.60944257 23.49372604 -41.57785034 21.83105469 C-41.53334796 19.54974936 -41.47603905 17.26917029 -41.4140625 14.98828125 C-41.36693115 13.09396362 -41.36693115 13.09396362 -41.31884766 11.16137695 C-41.01955386 8.19387664 -40.65624817 6.44979044 -39 4 C-31.97804381 0.4890219 -21.28384061 1.66566107 -13.55664062 1.39453125 C-12.13834961 1.33845703 -12.13834961 1.33845703 -10.69140625 1.28125 C-9.83748291 1.25095703 -8.98355957 1.22066406 -8.10375977 1.18945312 C-4.93696655 0.90426901 -3.46262542 0 0 0 Z M-20.84765625 24.5234375 C-21.22792969 25.34070313 -21.60820312 26.15796875 -22 27 C-21.34 27.66 -20.68 28.32 -20 29 C-19.8046875 31.11621094 -19.8046875 31.11621094 -19.875 33.734375 C-19.89167725 34.69472656 -19.90835449 35.65507812 -19.92553711 36.64453125 C-19.95010986 37.66933594 -19.97468262 38.69414062 -20 39.75 C-20.11457473 47.74669648 -19.8746142 55.19805536 -18.33984375 63.0625 C-17.93530811 66.55917588 -18.43952981 69.53281542 -19 73 C-19.35453475 81.10216183 -18.84808211 89.13054551 -18.12109375 97.19921875 C-18 100 -18 100 -19 102 C-19.06170612 103.58858088 -19.05804068 105.179923 -19.02172852 106.76928711 C-19.00163223 107.76049057 -18.98153595 108.75169403 -18.96083069 109.77293396 C-18.93379562 110.84688919 -18.90676056 111.92084442 -18.87890625 113.02734375 C-18.85529526 114.12720108 -18.83168427 115.22705841 -18.80735779 116.36024475 C-18.73060665 119.88612409 -18.64667957 123.41179092 -18.5625 126.9375 C-18.50928403 129.31183821 -18.4565436 131.68618714 -18.40429688 134.06054688 C-18.28892278 139.29197523 -18.16885562 144.5232743 -18.04469299 149.75450134 C-18.00989759 151.50271812 -18 153.25143698 -18 155 C-17.34 155 -16.68 155 -16 155 C-16 156.32 -16 157.64 -16 159 C-16.66 159 -17.32 159 -18 159 C-18 160.98 -18 162.96 -18 165 C-17.34 165 -16.68 165 -16 165 C-16.33 167.31 -16.66 169.62 -17 172 C-13.95388345 173.19105428 -13.95388345 173.19105428 -10.375 173 C-9.26125 173 -8.1475 173 -7 173 C-6.67 173.33 -6.34 173.66 -6 174 C-4.47480724 173.91062197 -2.95318071 173.75462854 -1.4375 173.5625 C-0.61121094 173.46066406 0.21507812 173.35882813 1.06640625 173.25390625 C1.70449219 173.17011719 2.34257812 173.08632813 3 173 C2.34 171.68 1.68 170.36 1 169 C1.33 168.67 1.66 168.34 2 168 C2.26600329 165.57641444 2.46934413 163.18097839 2.625 160.75 C2.70234375 159.74646484 2.70234375 159.74646484 2.78125 158.72265625 C3.22418029 152.23968185 3.22418029 152.23968185 0.93652344 146.32470703 C-0.39359112 143.02299931 0.05002711 140.00332597 0.3671875 136.5390625 C1.0557281 127.35548533 1.15270382 118.2184435 1.13037109 109.01220703 C1.12493425 106.34271759 1.13039641 103.67339114 1.13671875 101.00390625 C1.13605904 99.28124963 1.13478011 97.55859312 1.1328125 95.8359375 C1.13483673 95.05044525 1.13686096 94.264953 1.13894653 93.45565796 C1.11957837 88.8754273 0.68107176 84.53909832 0 80 C-0.00585938 77.72412109 -0.00585938 77.72412109 0.15625 75.7734375 C0.20910156 75.0515625 0.26195312 74.3296875 0.31640625 73.5859375 C0.40728516 72.49152344 0.40728516 72.49152344 0.5 71.375 C0.88311866 66.71236439 0.94181236 62.59918367 0 58 C0.29419004 56.32598055 0.62770641 54.65839874 1 53 C1.01880962 51.39580833 0.99557049 49.79075062 0.9375 48.1875 C0.85947915 41.83313508 1.69850434 35.68544055 2.5625 29.40625 C3.06369693 26.0764458 3.06369693 26.0764458 3 23 C-2.46161872 22.32333927 -7.93863474 21.85272402 -13.4375 21.625 C-14.92056641 21.55152344 -14.92056641 21.55152344 -16.43359375 21.4765625 C-19.2528495 21.75195104 -19.2528495 21.75195104 -20.84765625 24.5234375 Z M-23 24 C-22 26 -22 26 -22 26 Z M-19 168 C-18 170 -18 170 -18 170 Z M-20 171 C-19 173 -19 173 -19 173 Z " fill="#030303" transform="translate(280,202)"/>
<path d="M0 0 C3.46214738 3.8949158 4.2506558 6.70562173 4.2746582 11.90136719 C4.28419022 13.03644714 4.29372223 14.1715271 4.30354309 15.34100342 C4.30217598 17.17540985 4.30217598 17.17540985 4.30078125 19.046875 C4.30506638 20.30961243 4.3093515 21.57234985 4.31376648 22.87335205 C4.31951145 25.5465687 4.32094415 28.21939954 4.31567383 30.89257812 C4.3098983 34.29973611 4.32676639 37.70634708 4.3500185 41.11341476 C4.36840033 44.38289675 4.3645681 47.65235071 4.36328125 50.921875 C4.372491 52.1367157 4.38170074 53.3515564 4.39118958 54.60321045 C4.3556443 61.15262086 4.02859669 66.37490438 1 72.25 C-0.485 72.745 -0.485 72.745 -2 73.25 C-2 73.91 -2 74.57 -2 75.25 C-5.80997174 76.51999058 -7.99812551 76.92828381 -12 76.25 C-16.55897212 71.3051906 -19.03220231 66.0623741 -19.31640625 59.36328125 C-19.35830078 58.42548828 -19.40019531 57.48769531 -19.44335938 56.52148438 C-19.48267578 55.54501953 -19.52199219 54.56855469 -19.5625 53.5625 C-19.60568359 52.57443359 -19.64886719 51.58636719 -19.69335938 50.56835938 C-19.79941654 48.12904454 -19.90147714 45.68962887 -20 43.25 C-21.32 43.91 -22.64 44.57 -24 45.25 C-24 46.24 -24 47.23 -24 48.25 C-25.50390625 49.79296875 -25.50390625 49.79296875 -27.5625 51.4375 C-31.33847454 54.57632075 -34.45463404 57.9467259 -37.5546875 61.74609375 C-38.03164063 62.24238281 -38.50859375 62.73867187 -39 63.25 C-39.66 63.25 -40.32 63.25 -41 63.25 C-41.37125 64.10851562 -41.37125 64.10851562 -41.75 64.984375 C-43.19316199 67.60010611 -44.88216222 69.39773456 -47 71.5 C-47.70125 72.20640625 -48.4025 72.9128125 -49.125 73.640625 C-51 75.25 -51 75.25 -53 75.25 C-53 75.91 -53 76.57 -53 77.25 C-53.66 77.25 -54.32 77.25 -55 77.25 C-55 77.91 -55 78.57 -55 79.25 C-55.66 79.25 -56.32 79.25 -57 79.25 C-57 79.91 -57 80.57 -57 81.25 C-57.66 81.25 -58.32 81.25 -59 81.25 C-59.66 82.57 -60.32 83.89 -61 85.25 C-61.66 85.25 -62.32 85.25 -63 85.25 C-63 85.91 -63 86.57 -63 87.25 C-64.35546875 88.58203125 -64.35546875 88.58203125 -66.1875 90.0625 C-69.85947869 93.04648268 -73.1352572 96.34033889 -76.43920898 99.72387695 C-82.7762247 106.21086905 -89.12931404 112.36324659 -96.25 118.00390625 C-99.30168007 120.49640062 -102.18219644 123.12638968 -105.0625 125.8125 C-110.17203009 130.56649126 -115.49366668 134.96517564 -121 139.25 C-121.87785156 139.98347656 -122.75570312 140.71695313 -123.66015625 141.47265625 C-126 143.25 -126 143.25 -128 143.25 C-128 143.91 -128 144.57 -128 145.25 C-130.05135994 146.85528019 -132.10391139 148.34330392 -134.25 149.8125 C-135.55428955 150.72266406 -136.85766177 151.63414396 -138.16015625 152.546875 C-138.81387207 153.00384766 -139.46758789 153.46082031 -140.14111328 153.93164062 C-142.70309203 155.74864683 -145.19417217 157.65271698 -147.6875 159.5625 C-155.14331078 165.19689123 -162.90023038 170.39028068 -170.63671875 175.62866211 C-173.04264563 177.27925719 -175.41463456 178.97246088 -177.7890625 180.66796875 C-183.58929795 184.73973178 -189.65082245 188.33542315 -195.75 191.9375 C-197.93309952 193.23171118 -200.11541691 194.52724276 -202.296875 195.82421875 C-203.30427734 196.42282715 -204.31167969 197.02143555 -205.34960938 197.63818359 C-207.39248615 198.88054473 -209.3689756 200.15266775 -211.328125 201.51953125 C-213.77886255 203.10677794 -216.1774415 204.23296724 -218.875 205.32958984 C-223.86321663 207.49015702 -228.65712048 210.0977488 -233.5 212.5625 C-241.98645329 216.85345665 -250.42290254 220.89247706 -259.33984375 224.19921875 C-262.16226786 225.20634761 -262.16226786 225.20634761 -265 227.25 C-265.66 226.92 -266.32 226.59 -267 226.25 C-267.33 226.91 -267.66 227.57 -268 228.25 C-269.32 228.25 -270.64 228.25 -272 228.25 C-272 228.91 -272 229.57 -272 230.25 C-272.6290625 230.43175781 -273.258125 230.61351562 -273.90625 230.80078125 C-280.52716243 232.74517571 -286.93495105 234.90858169 -293.2578125 237.67578125 C-297.00781662 239.28869698 -300.81705987 240.64474956 -304.6875 241.9375 C-305.66299805 242.27491211 -305.66299805 242.27491211 -306.65820312 242.61914062 C-309.99689054 243.73884313 -312.4303804 244.25 -316 244.25 C-316 244.91 -316 245.57 -316 246.25 C-320.95 247.24 -320.95 247.24 -326 248.25 C-327.32 246.27 -328.64 244.29 -330 242.25 C-327.36217332 240.49144888 -325.01314452 239.31158974 -322.1171875 238.0703125 C-321.1276709 237.64242432 -320.1381543 237.21453613 -319.11865234 236.77368164 C-318.04824707 236.3121167 -316.9778418 235.85055176 -315.875 235.375 C-286.26097161 222.45879028 -257.78634436 207.80880691 -230.12988281 191.12939453 C-227.30238051 189.43156982 -224.46391428 187.75516286 -221.6171875 186.08984375 C-209.02266594 178.69684607 -196.95088776 170.63986574 -185 162.25 C-184.18192871 161.67572266 -183.36385742 161.10144531 -182.52099609 160.50976562 C-173.98684173 154.49059142 -165.65010663 148.28764672 -157.5456543 141.70068359 C-153.07478731 138.07404152 -148.50300834 134.6106027 -143.875 131.1875 C-133.57208241 123.53578537 -123.96244253 115.22107862 -114.51171875 106.54296875 C-111.60174837 103.8864328 -108.64011351 101.29560635 -105.65625 98.72265625 C-103.9638578 97.26146552 -103.9638578 97.26146552 -102.40625 95.55859375 C-101 94.25 -101 94.25 -99 94.25 C-99 93.59 -99 92.93 -99 92.25 C-97.57958984 90.85522461 -97.57958984 90.85522461 -95.5859375 89.21484375 C-89.76272286 84.26549627 -84.51266052 78.77639476 -79.18359375 73.30664062 C-78.41402344 72.52611328 -77.64445313 71.74558594 -76.8515625 70.94140625 C-76.15885254 70.23185791 -75.46614258 69.52230957 -74.75244141 68.79125977 C-73 67.25 -73 67.25 -71 67.25 C-70.74130127 66.6624292 -70.48260254 66.0748584 -70.21606445 65.46948242 C-68.90596021 63.07836465 -67.52301428 61.60338466 -65.54296875 59.73828125 C-64.84816406 59.07062744 -64.15335937 58.40297363 -63.4375 57.71508789 C-62.695 57.00473389 -61.9525 56.29437988 -61.1875 55.5625 C-52.72832083 47.31137773 -43.34995884 37.94991768 -38 27.25 C-38.66 27.58 -39.32 27.91 -40 28.25 C-45.32124341 28.77563502 -50.65936954 29.00588425 -56 29.25 C-57.01102783 29.30317383 -57.01102783 29.30317383 -58.04248047 29.35742188 C-59.9231397 29.44955115 -61.80541149 29.50673441 -63.6875 29.5625 C-64.78449219 29.59988281 -65.88148438 29.63726562 -67.01171875 29.67578125 C-70.72631899 29.14651141 -72.33761331 27.8356332 -75 25.25 C-76.75055329 21.74889342 -76.53726675 18.07056356 -76 14.25 C-72.8751694 9.04194899 -67.80763838 7.78161787 -62.23046875 6.21875 C-52.9427073 3.97711221 -43.43765318 2.68305897 -34 1.25 C-33.01676758 1.09611816 -32.03353516 0.94223633 -31.02050781 0.78369141 C-28.22336994 0.34619521 -25.4247359 -0.07948129 -22.625 -0.5 C-21.3884668 -0.69154663 -21.3884668 -0.69154663 -20.12695312 -0.88696289 C-5.21926986 -3.04457409 -5.21926986 -3.04457409 0 0 Z " fill="#E3090B" transform="translate(379,17.75)"/>
<path d="M0 0 C1.66648913 0.33421981 3.33310353 0.66781776 5 1 C5 1.66 5 2.32 5 3 C5.99 2.67 6.98 2.34 8 2 C10.10814178 5.16221267 10.24505974 5.85312485 10.21118164 9.453125 C10.20617393 10.82199608 10.20617393 10.82199608 10.20106506 12.21852112 C10.18756516 13.21890915 10.17406525 14.21929718 10.16015625 15.25 C10.15459213 16.30771103 10.14902802 17.36542206 10.14329529 18.45518494 C10.13080758 20.75993338 10.11410909 23.0646619 10.09375 25.36935425 C10.04046575 31.55995423 10.02115634 37.750615 10.00390625 43.94140625 C9.99996857 45.23639542 9.99603088 46.53138458 9.99197388 47.86561584 C9.96519662 62.89253978 10.22068873 77.91362761 10.5 92.9375 C10.53614914 94.90843628 10.53614914 94.90843628 10.57302856 96.91918945 C10.70887221 104.27959249 10.8505592 111.63986051 11 119 C11.33 119 11.66 119 12 119 C12.25 121.75 12.25 121.75 12 125 C10 127.375 10 127.375 8 129 C7.01 128.67 6.02 128.34 5 128 C4.67 128.66 4.34 129.32 4 130 C-3.47573274 130.11600357 -10.95127049 130.20476984 -18.42772198 130.25906086 C-21.89964849 130.28512227 -25.37095792 130.32045387 -28.8425293 130.37719727 C-32.83648499 130.44206834 -36.82979558 130.46620862 -40.82421875 130.48828125 C-42.06709152 130.51408768 -43.30996429 130.5398941 -44.59049988 130.56648254 C-54.19435793 130.569607 -54.19435793 130.569607 -57.26098633 127.65698242 C-62.72500196 119.30869067 -61.23234472 106.37342838 -61.5546875 96.7109375 C-61.59673309 95.46234955 -61.63877869 94.2137616 -61.68209839 92.92733765 C-62.0885784 79.81032474 -62.15158953 66.6970052 -62.13037109 53.57421875 C-62.12675617 50.91626755 -62.12586545 48.25851569 -62.13037109 45.60058594 C-62.14468864 37.06611209 -62.10955066 28.53382763 -62 20 C-61.99206421 19.12323608 -61.98412842 18.24647217 -61.97595215 17.34313965 C-61.94732487 15.21355746 -61.88596502 13.08905796 -61.8046875 10.9609375 C-61.77101074 9.89407715 -61.73733398 8.8272168 -61.70263672 7.72802734 C-60.73779241 3.981964 -58.96922297 2.40856665 -56 0 C-53.19744943 -1.09610717 -50.42458217 -1.17675908 -47.4296875 -1.31640625 C-46.54200684 -1.35854248 -45.65432617 -1.40067871 -44.73974609 -1.4440918 C-43.79437988 -1.4831665 -42.84901367 -1.52224121 -41.875 -1.5625 C-40.89740723 -1.6035083 -39.91981445 -1.6445166 -38.91259766 -1.68676758 C-12.60164115 -2.71877927 -12.60164115 -2.71877927 0 0 Z M-41 18 C-37 19 -37 19 -37 19 Z M-40 21 C-39.83734146 21.98335831 -39.67468292 22.96671661 -39.50709534 23.97987366 C-38.92289727 28.09302362 -38.86636358 32.17374164 -38.88647461 36.32202148 C-38.88632858 37.12283646 -38.88618256 37.92365143 -38.8860321 38.74873352 C-38.88672395 41.37288199 -38.894482 43.99695781 -38.90234375 46.62109375 C-38.90421052 48.44954896 -38.9056332 50.27800468 -38.90663147 52.10646057 C-38.91043626 56.90190021 -38.92024903 61.69730922 -38.93133545 66.49273682 C-38.94159351 71.39294012 -38.94613848 76.29314841 -38.95117188 81.19335938 C-38.96187323 90.79558849 -38.97945341 100.3977869 -39 110 C-31.41 110 -23.82 110 -16 110 C-16.01571045 106.39010132 -16.01571045 106.39010132 -16.03173828 102.70727539 C-16.06496162 94.7325496 -16.087003 86.75782066 -16.10362434 78.78304386 C-16.11403644 73.95062138 -16.12814841 69.11827015 -16.15087891 64.28588867 C-16.17269936 59.61746462 -16.18458797 54.94910887 -16.18975449 50.28063774 C-16.19343377 48.50456099 -16.2006183 46.72848773 -16.21146011 44.95244026 C-16.22609755 42.45397146 -16.22797287 39.95578056 -16.22705078 37.45727539 C-16.23424133 36.73222305 -16.24143188 36.00717072 -16.24884033 35.26014709 C-16.22786835 29.96691175 -15.31572037 25.11998981 -14 20 C-17.75598459 18.1220077 -22.30473982 18.81524238 -26.4375 18.8125 C-27.40494141 18.80025391 -28.37238281 18.78800781 -29.36914062 18.77539062 C-30.29791016 18.77345703 -31.22667969 18.77152344 -32.18359375 18.76953125 C-33.03493896 18.76542236 -33.88628418 18.76131348 -34.76342773 18.75708008 C-37.28543098 18.85689924 -37.28543098 18.85689924 -40 21 Z " fill="#020202" transform="translate(203,265)"/>
<path d="M0 0 C1.04671875 -0.01224609 2.0934375 -0.02449219 3.171875 -0.03710938 C9.52138764 -0.04901471 15.10879937 0.56226594 21.25 2.1875 C21.25 2.8475 21.25 3.5075 21.25 4.1875 C22.013125 4.1875 22.77625 4.1875 23.5625 4.1875 C26.25 5.1875 26.25 5.1875 28.125 8.625 C29.13789383 11.81486489 29.29098709 14.1461213 28.79296875 17.4375 C27.93104203 24.86853968 28.39915644 32.29496346 28.6875 39.75 C28.87440203 44.81794225 29.04540383 49.88588176 29.18426514 54.9553833 C29.22932157 56.48533569 29.28130885 58.01509514 29.33917236 59.5446167 C29.42432335 61.87209683 29.48247052 64.19892922 29.53515625 66.52734375 C29.56653183 67.23717911 29.59790741 67.94701447 29.63023376 68.67835999 C29.68126984 72.08363025 29.50338703 73.85299668 27.41967773 76.60375977 C23.92186763 79.15696041 21.17130806 79.30269459 16.97167969 79.2409668 C15.89335876 79.2273259 14.81503784 79.213685 13.70404053 79.19963074 C12.5384259 79.17886978 11.37281128 79.15810883 10.171875 79.13671875 C8.97193909 79.1178511 7.77200317 79.09898346 6.53570557 79.07954407 C3.9936462 79.0376319 1.45163214 78.99289154 -1.09033203 78.94555664 C-4.97028691 78.87553622 -8.85025542 78.82107961 -12.73046875 78.76757812 C-15.20053751 78.72491301 -17.6705905 78.6813232 -20.140625 78.63671875 C-21.2981427 78.62203049 -22.4556604 78.60734222 -23.64825439 78.59220886 C-37.64156024 78.29593976 -37.64156024 78.29593976 -40.75 75.1875 C-40.84939223 73.15325573 -40.87799549 71.11552789 -40.87939453 69.07885742 C-40.88254669 67.77047409 -40.88569885 66.46209076 -40.88894653 65.11405945 C-40.8871562 63.67369554 -40.88510511 62.23333194 -40.8828125 60.79296875 C-40.88348577 59.32424402 -40.88445599 57.85551939 -40.88571167 56.38679504 C-40.88718894 53.30236759 -40.88503408 50.21796903 -40.88037109 47.13354492 C-40.87468878 43.18240893 -40.87794308 39.23134109 -40.88394356 35.28020763 C-40.8875612 32.24416086 -40.88640478 29.20813017 -40.88381577 26.1720829 C-40.88314905 24.71565048 -40.88396602 23.25921659 -40.88629532 21.80278587 C-40.88883984 19.7632996 -40.8842728 17.7238082 -40.87939453 15.68432617 C-40.87859894 14.52374191 -40.87780334 13.36315765 -40.87698364 12.16740417 C-40.76837243 9.61864268 -40.65758381 7.5628806 -39.75 5.1875 C-35.01969993 1.98522576 -30.70310543 1.69737943 -25.1875 1.5625 C-23.70691534 1.51104615 -22.22643639 1.45643846 -20.74609375 1.3984375 C-20.09825928 1.38087402 -19.4504248 1.36331055 -18.78295898 1.34521484 C-16.67346303 1.22512053 -16.67346303 1.22512053 -14.33911133 0.68481445 C-9.60660591 -0.22420144 -4.80454272 0.00291538 0 0 Z M-19.75 23.1875 C-20.01653946 26.1670099 -20.09767784 28.9363582 -20.04296875 31.9140625 C-20.03872391 32.77687836 -20.03447906 33.63969421 -20.03010559 34.52865601 C-20.01328392 37.29025197 -19.97562598 40.05112383 -19.9375 42.8125 C-19.92245764 44.68228114 -19.90876846 46.5520737 -19.89648438 48.421875 C-19.8659179 53.01092151 -19.80720487 57.59839826 -19.75 62.1875 C-7.375 61.6925 -7.375 61.6925 5.25 61.1875 C6.52385127 57.3659462 6.37353188 53.7806553 6.34765625 49.80078125 C6.3462413 48.98377243 6.34482635 48.16676361 6.34336853 47.32499695 C6.33777294 44.71662732 6.32522129 42.10834366 6.3125 39.5 C6.30748443 37.73112103 6.30292162 35.96224072 6.29882812 34.19335938 C6.28780496 29.85803981 6.27054338 25.52278448 6.25 21.1875 C2.47923111 21.12950876 -1.29142334 21.09390694 -5.0625 21.0625 C-6.13435547 21.04574219 -7.20621094 21.02898437 -8.31054688 21.01171875 C-9.85258789 21.00205078 -9.85258789 21.00205078 -11.42578125 20.9921875 C-12.37364502 20.98171387 -13.32150879 20.97124023 -14.2980957 20.96044922 C-17.00689249 21.01526125 -17.00689249 21.01526125 -19.75 23.1875 Z " fill="#030303" transform="translate(89.75,314.8125)"/>
<path d="M0 0 C0 3.28176588 -0.47835901 5.10888212 -2 8 C-4.125 8.8125 -4.125 8.8125 -6 9 C-5.67 10.32 -5.34 11.64 -5 13 C-3.35 13.33 -1.7 13.66 0 14 C-0.33 15.32 -0.66 16.64 -1 18 C0.32 18 1.64 18 3 18 C3.33 17.34 3.66 16.68 4 16 C6.64860427 15.40644386 9.29197322 15.25790731 12 15 C12 14.34 12 13.68 12 13 C12.66 13 13.32 13 14 13 C14 12.34 14 11.68 14 11 C14.66 11 15.32 11 16 11 C16 10.34 16 9.68 16 9 C18.375 7.3125 18.375 7.3125 21 6 C21.99 6.495 21.99 6.495 23 7 C5.79841897 23 5.79841897 23 2 23 C2 23.66 2 24.32 2 25 C-0.05135994 26.60528019 -2.10391139 28.09330392 -4.25 29.5625 C-5.55428955 30.47266406 -6.85766177 31.38414396 -8.16015625 32.296875 C-8.81387207 32.75384766 -9.46758789 33.21082031 -10.14111328 33.68164062 C-12.70309203 35.49864683 -15.19417217 37.40271698 -17.6875 39.3125 C-25.14331078 44.94689123 -32.90023038 50.14028068 -40.63671875 55.37866211 C-43.04264563 57.02925719 -45.41463456 58.72246088 -47.7890625 60.41796875 C-53.58929795 64.48973178 -59.65082245 68.08542315 -65.75 71.6875 C-67.93309952 72.98171118 -70.11541691 74.27724276 -72.296875 75.57421875 C-73.30427734 76.17282715 -74.31167969 76.77143555 -75.34960938 77.38818359 C-77.39248615 78.63054473 -79.3689756 79.90266775 -81.328125 81.26953125 C-83.77886255 82.85677794 -86.1774415 83.98296724 -88.875 85.07958984 C-93.86321663 87.24015702 -98.65712048 89.8477488 -103.5 92.3125 C-111.98645329 96.60345665 -120.42290254 100.64247706 -129.33984375 103.94921875 C-132.16226786 104.95634761 -132.16226786 104.95634761 -135 107 C-135.99 106.505 -135.99 106.505 -137 106 C-137.33 106.66 -137.66 107.32 -138 108 C-139.32 108 -140.64 108 -142 108 C-142 108.66 -142 109.32 -142 110 C-142.6290625 110.18175781 -143.258125 110.36351562 -143.90625 110.55078125 C-150.52716243 112.49517571 -156.93495105 114.65858169 -163.2578125 117.42578125 C-167.00781662 119.03869698 -170.81705987 120.39474956 -174.6875 121.6875 C-175.66299805 122.02491211 -175.66299805 122.02491211 -176.65820312 122.36914062 C-179.99689054 123.48884313 -182.4303804 124 -186 124 C-186 124.66 -186 125.32 -186 126 C-190.95 126.99 -190.95 126.99 -196 128 C-197.32 126.02 -198.64 124.04 -200 122 C-197.36217332 120.24144888 -195.01314452 119.06158974 -192.1171875 117.8203125 C-191.1276709 117.39242432 -190.1381543 116.96453613 -189.11865234 116.52368164 C-188.04824707 116.0621167 -186.9778418 115.60055176 -185.875 115.125 C-156.26097161 102.20879028 -127.78634436 87.55880691 -100.12988281 70.87939453 C-97.30238051 69.18156982 -94.46391428 67.50516286 -91.6171875 65.83984375 C-79.02266594 58.44684607 -66.95088776 50.38986574 -55 42 C-54.18192871 41.42572266 -53.36385742 40.85144531 -52.52099609 40.25976562 C-43.99230787 34.24444672 -35.66174588 28.04474066 -27.56103516 21.46386719 C-22.29763381 17.19593831 -16.90167162 13.1229191 -11.45263672 9.09545898 C-7.52289357 6.18234312 -3.72941335 3.16626618 0 0 Z " fill="#E30C0D" transform="translate(249,138)"/>
<path d="M0 0 C0.495 0.99 0.495 0.99 1 2 C-0.32 2.33 -1.64 2.66 -3 3 C-3.185625 3.928125 -3.185625 3.928125 -3.375 4.875 C-4 7 -4 7 -6 9 C-6.99 8.505 -6.99 8.505 -8 8 C-8.33 8.99 -8.66 9.98 -9 11 C-9.66 11 -10.32 11 -11 11 C-11.33 12.98 -11.66 14.96 -12 17 C-11.34 17 -10.68 17 -10 17 C-10 17.66 -10 18.32 -10 19 C-9.01 19 -8.02 19 -7 19 C-7 18.34 -7 17.68 -7 17 C-6.34 17 -5.68 17 -5 17 C-5.495 15.515 -5.495 15.515 -6 14 C0.07439825 9.09846827 0.07439825 9.09846827 3.9375 8.6875 C4.618125 8.790625 5.29875 8.89375 6 9 C6 9.99 6 10.98 6 12 C6.39832031 11.51917969 6.79664063 11.03835937 7.20703125 10.54296875 C9.43450247 8.62608175 10.78834669 8.52258357 13.6875 8.3125 C14.89986328 8.21388672 14.89986328 8.21388672 16.13671875 8.11328125 C16.75160156 8.07589844 17.36648437 8.03851563 18 8 C15.08977147 10.32241915 12.18511957 11.9993799 8.82421875 13.59375 C7.83099609 14.06683594 6.83777344 14.53992188 5.81445312 15.02734375 C4.78255859 15.51332031 3.75066406 15.99929687 2.6875 16.5 C1.66720703 16.98597656 0.64691406 17.47195312 -0.40429688 17.97265625 C-5.56301907 20.4202982 -10.73779254 22.7843337 -16 25 C-16.66 25.33 -17.32 25.66 -18 26 C-18.66 25.67 -19.32 25.34 -20 25 C-20.33 25.66 -20.66 26.32 -21 27 C-22.32 27 -23.64 27 -25 27 C-25 27.66 -25 28.32 -25 29 C-25.6290625 29.18175781 -26.258125 29.36351562 -26.90625 29.55078125 C-33.52716243 31.49517571 -39.93495105 33.65858169 -46.2578125 36.42578125 C-50.00781662 38.03869698 -53.81705987 39.39474956 -57.6875 40.6875 C-58.33783203 40.91244141 -58.98816406 41.13738281 -59.65820312 41.36914062 C-62.99689054 42.48884313 -65.4303804 43 -69 43 C-69 43.66 -69 44.32 -69 45 C-72.3 45.66 -75.6 46.32 -79 47 C-80.32 45.02 -81.64 43.04 -83 41 C-80.36217332 39.24144888 -78.01314452 38.06158974 -75.1171875 36.8203125 C-74.1276709 36.39242432 -73.1381543 35.96453613 -72.11865234 35.52368164 C-71.04824707 35.0621167 -69.9778418 34.60055176 -68.875 34.125 C-45.41699868 23.89375214 -22.14579672 12.86276412 0 0 Z " fill="#E7151F" transform="translate(132,219)"/>
<path d="M0 0 C0.28875 0.969375 0.5775 1.93875 0.875 2.9375 C1.64214682 6.10664203 1.64214682 6.10664203 4 7 C4.33 6.01 4.66 5.02 5 4 C5 4.66 5 5.32 5 6 C5.99 6.495 5.99 6.495 7 7 C6.34 7.99 5.68 8.98 5 10 C4.01 10 3.02 10 2 10 C2 10.66 2 11.32 2 12 C-3.2734375 15.22265625 -3.2734375 15.22265625 -5 16 C-5.99 15.505 -5.99 15.505 -7 15 C-6.67 14.34 -6.34 13.68 -6 13 C-8.87596323 14.0908826 -9.88594777 14.80991296 -11.5 17.5 C-13.14459211 20.24098686 -14.15310724 20.76634647 -17 22 C-17.33 22.66 -17.66 23.32 -18 24 C-18.99 24.33 -19.98 24.66 -21 25 C-21 25.99 -21 26.98 -21 28 C-25.32107973 31.68133546 -30.79847727 33.88086111 -36 36 C-36.9075 36.53625 -37.815 37.0725 -38.75 37.625 C-43.3942277 39.58986557 -48.00186214 39.74208897 -53 40 C-53.33 40.99 -53.66 41.98 -54 43 C-54.66 43 -55.32 43 -56 43 C-56 42.01 -56 41.02 -56 40 C-60.48599743 41.25190626 -63.59347128 42.79385533 -67 46 C-67 46.66 -67 47.32 -67 48 C-67.66 48 -68.32 48 -69 48 C-69 48.66 -69 49.32 -69 50 C-69.99 50 -70.98 50 -72 50 C-72 49.34 -72 48.68 -72 48 C-72.66 48 -73.32 48 -74 48 C-73.39130435 42.52173913 -73.39130435 42.52173913 -71.6875 40.25 C-70 39 -70 39 -67.875 38 C-65.6469565 37.08797022 -65.6469565 37.08797022 -65 34 C-62.9375 33.3125 -62.9375 33.3125 -61 33 C-61 32.34 -61 31.68 -61 31 C-57.7 31.33 -54.4 31.66 -51 32 C-51 31.34 -51 30.68 -51 30 C-48.35261084 28.5393715 -47.10551666 28 -44 28 C-44.33 26.68 -44.66 25.36 -45 24 C-44.01 23.67 -43.02 23.34 -42 23 C-41.0409375 22.01 -41.0409375 22.01 -40.0625 21 C-37.88507842 18.88856089 -36.87461509 18.57492302 -34 18 C-33.34 17.34 -32.68 16.68 -32 16 C-28.98413546 14.894183 -27.03916514 15.02312549 -24 16 C-24 15.01 -24 14.02 -24 13 C-22.36062899 10.84293288 -21.10541876 10.04054568 -18.5625 9.0625 C-15.60039244 7.83430906 -14.06407045 6.43265446 -12 4 C-11.67 3.01 -11.34 2.02 -11 1 C-10.01 1.33 -9.02 1.66 -8 2 C-1.46666667 0 -1.46666667 0 0 0 Z M1 7 C2 9 2 9 2 9 Z " fill="#E70A14" transform="translate(194,188)"/>
<path d="M0 0 C0.66 0.33 1.32 0.66 2 1 C0 4 0 4 -3 5 C-2.67 5.99 -2.34 6.98 -2 8 C-3.65 8.33 -5.3 8.66 -7 9 C-6.67 9.99 -6.34 10.98 -6 12 C-6.639375 12.103125 -7.27875 12.20625 -7.9375 12.3125 C-8.618125 12.539375 -9.29875 12.76625 -10 13 C-10.33 13.99 -10.66 14.98 -11 16 C-14.32091002 17.70533217 -16.18492784 18 -20 18 C-20 18.66 -20 19.32 -20 20 C-23.3 20.66 -26.6 21.32 -30 22 C-31.32 20.02 -32.64 18.04 -34 16 C-31.17932786 14.11955191 -28.55047007 12.85018784 -25.44921875 11.50390625 C-24.35802734 11.02759766 -23.26683594 10.55128906 -22.14257812 10.06054688 C-21.00240234 9.56619141 -19.86222656 9.07183594 -18.6875 8.5625 C-16.44078709 7.58605881 -14.19467381 6.60823656 -11.94921875 5.62890625 C-10.95237061 5.19650635 -9.95552246 4.76410645 -8.9284668 4.31860352 C-6.83569687 3.37629002 -4.77954352 2.35090694 -2.75317383 1.27319336 C-1.84462646 0.85303955 -0.9360791 0.43288574 0 0 Z " fill="#DA1D29" transform="translate(83,244)"/>
<path d="M0 0 C-3.71608478 1.79845167 -7.43315973 3.59483924 -11.15112305 5.3894043 C-12.41310879 5.99887781 -13.67483303 6.60889312 -14.9362793 7.21948242 C-16.76020202 8.10221194 -18.58508843 8.98292213 -20.41015625 9.86328125 C-21.50465088 10.39219971 -22.59914551 10.92111816 -23.72680664 11.46606445 C-27.12271668 13.05750943 -30.5491232 14.53243998 -34 16 C-34.99 16.495 -34.99 16.495 -36 17 C-36.66 16.67 -37.32 16.34 -38 16 C-38.33 16.66 -38.66 17.32 -39 18 C-40.32 18 -41.64 18 -43 18 C-43 18.66 -43 19.32 -43 20 C-43.6290625 20.18175781 -44.258125 20.36351562 -44.90625 20.55078125 C-51.59073269 22.51384469 -58.05129177 24.71329095 -64.4375 27.5 C-68.55949961 29.23557878 -72.74266557 30.63881144 -77 32 C-77 31.01 -77 30.02 -77 29 C-75.75264433 28.3490741 -74.50198168 27.70448331 -73.25 27.0625 C-72.55390625 26.70285156 -71.8578125 26.34320313 -71.140625 25.97265625 C-69.08072395 25.03667931 -67.19847734 24.50470881 -65 24 C-63.53722422 23.53457134 -62.07895141 23.05480285 -60.625 22.5625 C-59.83867188 22.29695313 -59.05234375 22.03140625 -58.2421875 21.7578125 C-57.50226563 21.50773437 -56.76234375 21.25765625 -56 21 C-54.9275 20.649375 -53.855 20.29875 -52.75 19.9375 C-45.30299671 17.86373162 -45.30299671 17.86373162 -40 13 C-39.278125 13.0825 -38.55625 13.165 -37.8125 13.25 C-34.82496612 13.25165483 -34.82496612 13.25165483 -32.5 10.9375 C-30 9 -30 9 -27.1875 9.25 C-26.465625 9.4975 -25.74375 9.745 -25 10 C-25 9.34 -25 8.68 -25 8 C-24.34 8 -23.68 8 -23 8 C-23.495 6.515 -23.495 6.515 -24 5 C-17.92560175 0.09846827 -17.92560175 0.09846827 -14.0625 -0.3125 C-13.381875 -0.209375 -12.70125 -0.10625 -12 0 C-12 0.99 -12 1.98 -12 3 C-11.608125 2.525625 -11.21625 2.05125 -10.8125 1.5625 C-7.36561865 -1.40894944 -4.16664724 -1.16772279 0 0 Z " fill="#BB1819" transform="translate(150,228)"/>
<path d="M0 0 C0.66 0.33 1.32 0.66 2 1 C1.67 1.66 1.34 2.32 1 3 C0.01 3 -0.98 3 -2 3 C-2.0928125 3.8353125 -2.0928125 3.8353125 -2.1875 4.6875 C-3.36633498 8.04264572 -5.30209714 9.74129063 -8 12 C-9.32 12 -10.64 12 -12 12 C-12.33 12.99 -12.66 13.98 -13 15 C-13.66 15 -14.32 15 -15 15 C-15 15.99 -15 16.98 -15 18 C-15.7425 17.95875 -16.485 17.9175 -17.25 17.875 C-21.21633419 18.05528792 -23.22157405 19.22157405 -26 22 C-26.99 22.12375 -27.98 22.2475 -29 22.375 C-32.0805493 22.65938856 -32.0805493 22.65938856 -33.3125 24.875 C-33.539375 25.57625 -33.76625 26.2775 -34 27 C-35 30 -35 30 -36.875 31.1875 C-39 32 -39 32 -42 32 C-42 32.66 -42 33.32 -42 34 C-44.97 33.67 -47.94 33.34 -51 33 C-48.28550567 30.28550567 -46.06729526 28.70623145 -42.80078125 26.77734375 C-41.76356934 26.16101074 -40.72635742 25.54467773 -39.65771484 24.90966797 C-38.55379395 24.25885254 -37.44987305 23.60803711 -36.3125 22.9375 C-34.03973431 21.58569453 -31.76759893 20.23282876 -29.49609375 18.87890625 C-28.3860498 18.21777832 -27.27600586 17.55665039 -26.13232422 16.87548828 C-22.02183817 14.41432275 -17.93877202 11.9124306 -13.875 9.375 C-13.26825439 8.99851318 -12.66150879 8.62202637 -12.03637695 8.23413086 C-7.90332826 5.64289055 -3.94703549 2.86235398 0 0 Z " fill="#D70D18" transform="translate(185,186)"/>
<path d="M0 0 C0.99 0 1.98 0 3 0 C3 0.66 3 1.32 3 2 C2.34 2 1.68 2 1 2 C1 2.66 1 3.32 1 4 C0.34 4 -0.32 4 -1 4 C-1 4.66 -1 5.32 -1 6 C-1.66 6 -2.32 6 -3 6 C-3.66 7.32 -4.32 8.64 -5 10 C-5.66 10 -6.32 10 -7 10 C-7 10.66 -7 11.32 -7 12 C-8.35546875 13.33203125 -8.35546875 13.33203125 -10.1875 14.8125 C-13.85947869 17.79648268 -17.1352572 21.09033889 -20.43920898 24.47387695 C-27.63112281 31.83599979 -34.92355245 38.60561068 -43 45 C-45.35255873 46.9789412 -47.67680038 48.98656033 -50 51 C-50 50.01 -50 49.02 -50 48 C-49.34 48 -48.68 48 -48 48 C-48.495 46.515 -48.495 46.515 -49 45 C-47 44 -45 43 -43 42 C-43 41.01 -43 40.02 -43 39 C-42.401875 38.855625 -41.80375 38.71125 -41.1875 38.5625 C-39.43849596 38.1127561 -37.71322977 37.57107659 -36 37 C-35.67 35.35 -35.34 33.7 -35 32 C-34.34 32 -33.68 32 -33 32 C-33.33 30.68 -33.66 29.36 -34 28 C-32.68 28 -31.36 28 -30 28 C-28.65835921 27.7018576 -27.32148827 27.37756808 -26 27 C-26 25.68 -26 24.36 -26 23 C-25.34 23 -24.68 23 -24 23 C-24 22.01 -24 21.02 -24 20 C-22.57421875 18.46484375 -22.57421875 18.46484375 -20.6875 16.9375 C-20.07261719 16.43089844 -19.45773437 15.92429687 -18.82421875 15.40234375 C-17.26414544 14.20305827 -15.63728268 13.09152179 -14 12 C-13.67 11.01 -13.34 10.02 -13 9 C-11.68 9 -10.36 9 -9 9 C-9 8.34 -9 7.68 -9 7 C-7.88625 6.6596875 -7.88625 6.6596875 -6.75 6.3125 C-3.48900462 4.75611584 -2.21026104 2.79966399 0 0 Z " fill="#D6110F" transform="translate(323,93)"/>
<path d="M0 0 C-0.66 1.65 -1.32 3.3 -2 5 C-7.12583611 5.10251672 -11.94997778 5.03590199 -17 4 C-17 4.66 -17 5.32 -17 6 C-17.99 6.33 -18.98 6.66 -20 7 C-20 7.66 -20 8.32 -20 9 C-21.093125 9.0825 -22.18625 9.165 -23.3125 9.25 C-27.03276664 9.63689209 -27.03276664 9.63689209 -28.9375 12.0625 C-29.288125 12.701875 -29.63875 13.34125 -30 14 C-28.35 14.33 -26.7 14.66 -25 15 C-26.8125 17.5 -26.8125 17.5 -29 20 C-29.99 20 -30.98 20 -32 20 C-31.67 20.66 -31.34 21.32 -31 22 C-28.29400158 22.47597366 -25.66404596 22.84093629 -22.9375 23.125 C-22.17888672 23.21136719 -21.42027344 23.29773438 -20.63867188 23.38671875 C-18.76003014 23.59939517 -16.88011364 23.80075459 -15 24 C-15 24.33 -15 24.66 -15 25 C-17.22595848 25.27711526 -19.45611221 25.52066929 -21.6875 25.75 C-22.92886719 25.88921875 -24.17023438 26.0284375 -25.44921875 26.171875 C-29.67697543 25.96723111 -31.07522834 24.97360829 -34 22 C-35.75055329 18.49889342 -35.53726675 14.82056356 -35 11 C-31.24160049 4.73600082 -23.66020435 3.68249633 -17 2 C-11.24272093 0.59054164 -5.92987626 -0.25782071 0 0 Z " fill="#CF0A0B" transform="translate(338,21)"/>
<path d="M0 0 C0.495 0.99 0.495 0.99 1 2 C-0.32 2.33 -1.64 2.66 -3 3 C-3.185625 3.928125 -3.185625 3.928125 -3.375 4.875 C-4 7 -4 7 -6 9 C-6.66 8.67 -7.32 8.34 -8 8 C-8.33 8.99 -8.66 9.98 -9 11 C-9.66 11 -10.32 11 -11 11 C-11 11.66 -11 12.32 -11 13 C-11.7425 13.103125 -12.485 13.20625 -13.25 13.3125 C-16.03470084 13.80403856 -16.03470084 13.80403856 -17.9375 15.5625 C-20.69729715 17.48599498 -22.71355915 17.22407551 -26 17 C-26.33 17.99 -26.66 18.98 -27 20 C-28.63671875 21.0625 -28.63671875 21.0625 -30.6875 22 C-31.40679687 22.33515625 -32.12609375 22.6703125 -32.8671875 23.015625 C-33.92292969 23.50289062 -33.92292969 23.50289062 -35 24 C-36.6396875 24.86625 -36.6396875 24.86625 -38.3125 25.75 C-41 27 -41 27 -44 27 C-44 26.34 -44 25.68 -44 25 C-44.66 24.67 -45.32 24.34 -46 24 C-45.10394043 23.55720703 -44.20788086 23.11441406 -43.28466797 22.65820312 C-39.88668246 20.97762865 -36.49155663 19.29134148 -33.09716797 17.60351562 C-31.64153419 16.8806564 -30.18517929 16.15924708 -28.72802734 15.43945312 C-18.95404541 10.60979745 -9.39982678 5.52428024 0 0 Z " fill="#DC1724" transform="translate(132,219)"/>
<path d="M0 0 C0 3 0 3 -1.5 4.875 C-3.31754972 7.4498621 -3.25692834 8.91685988 -3 12 C-3.8971875 12.3403125 -3.8971875 12.3403125 -4.8125 12.6875 C-7.14912405 13.84688749 -7.14912405 13.84688749 -8.25 16.1875 C-9.94739732 18.91545997 -11.375186 20.2868007 -13.8125 22.3125 C-17.38806781 25.30966713 -20.04328015 28.46140285 -22.67578125 32.30078125 C-24 34 -24 34 -27 36 C-29.6875 36.125 -29.6875 36.125 -32 36 C-31.67 35.34 -31.34 34.68 -31 34 C-30.34 34 -29.68 34 -29 34 C-28.74347656 33.41532959 -28.48695313 32.83065918 -28.22265625 32.22827148 C-26.8870682 29.7941836 -25.44328486 28.26049628 -23.4375 26.34765625 C-22.727146 25.65921631 -22.01679199 24.97077637 -21.28491211 24.26147461 C-20.15388062 23.17298218 -20.15388062 23.17298218 -19 22.0625 C-11.92905624 15.14671568 -5.71480881 8.07374709 0 0 Z " fill="#CA101B" transform="translate(337,51)"/>
<path d="M0 0 C0.99 0.33 1.98 0.66 3 1 C-4.04656835 6.46232816 -11.44364813 11.27977781 -19 16 C-20.39835083 16.8820813 -20.39835083 16.8820813 -21.82495117 17.78198242 C-22.70771729 18.32830322 -23.5904834 18.87462402 -24.5 19.4375 C-25.2940625 19.93121094 -26.088125 20.42492187 -26.90625 20.93359375 C-29 22 -29 22 -32 22 C-31.505 20.515 -31.505 20.515 -31 19 C-30.01 19 -29.02 19 -28 19 C-28 17.68 -28 16.36 -28 15 C-26.35 15 -24.7 15 -23 15 C-22.79375 14.05125 -22.5875 13.1025 -22.375 12.125 C-21 9 -21 9 -17.875 7.625 C-16.92625 7.41875 -15.9775 7.2125 -15 7 C-14.67 7.66 -14.34 8.32 -14 9 C-12.02 8.34 -10.04 7.68 -8 7 C-8 6.34 -8 5.68 -8 5 C-5.67807281 3.45204854 -3.47761092 2.23880546 -1 1 C-0.67 0.67 -0.34 0.34 0 0 Z " fill="#DD0E12" transform="translate(204,193)"/>
<path d="M0 0 C0.66 0.33 1.32 0.66 2 1 C-6.31236471 9.53177738 -14.62545153 17.63537927 -24 25 C-26.35322515 26.97819277 -28.67677805 28.98654098 -31 31 C-31 30.01 -31 29.02 -31 28 C-30.34 28 -29.68 28 -29 28 C-29.33 27.01 -29.66 26.02 -30 25 C-27 23.5 -27 23.5 -24 22 C-24 21.01 -24 20.02 -24 19 C-23.401875 18.855625 -22.80375 18.71125 -22.1875 18.5625 C-20.43849596 18.1127561 -18.71322977 17.57107659 -17 17 C-16.67 15.35 -16.34 13.7 -16 12 C-15.34 12 -14.68 12 -14 12 C-14.33 10.68 -14.66 9.36 -15 8 C-13.68 8 -12.36 8 -11 8 C-6.00653447 6.68593012 -3.43299849 3.67251001 0 0 Z " fill="#B80F09" transform="translate(304,113)"/>
<path d="M0 0 C0 3 0 3 -1.22167969 4.51464844 C-1.78274414 5.0409082 -2.34380859 5.56716797 -2.921875 6.109375 C-3.53546875 6.69976562 -4.1490625 7.29015625 -4.78125 7.8984375 C-6.07766094 9.11768112 -7.37452447 10.33644371 -8.671875 11.5546875 C-12.69193023 15.42399066 -15.470107 19.01687742 -18 24 C-18.99 24 -19.98 24 -21 24 C-21.391875 24.928125 -21.78375 25.85625 -22.1875 26.8125 C-24.21213974 30.37307334 -25.40265171 31.20132585 -29 33 C-30.22976677 33.74901561 -31.45891117 34.49905381 -32.6875 35.25 C-33.780625 35.8275 -34.87375 36.405 -36 37 C-36.66 36.67 -37.32 36.34 -38 36 C-36.42173185 34.53618641 -34.83717771 33.07914837 -33.25 31.625 C-32.36828125 30.81289062 -31.4865625 30.00078125 -30.578125 29.1640625 C-28.40197479 27.3374152 -26.59179881 26.10212006 -24 25 C-24 24.34 -24 23.68 -24 23 C-22.54882812 21.57006836 -22.54882812 21.57006836 -20.53125 19.90234375 C-15.95144237 16.00809374 -11.72332288 11.83665918 -7.5 7.5625 C-6.77296875 6.83095703 -6.0459375 6.09941406 -5.296875 5.34570312 C-3.52890501 3.56610176 -1.76333622 1.78419082 0 0 Z " fill="#C7101A" transform="translate(304,87)"/>
<path d="M0 0 C0.66 0.66 1.32 1.32 2 2 C-1.02075427 5.65007808 -3.90232536 6.90425846 -8.29296875 8.2890625 C-10.2062056 8.86762549 -10.2062056 8.86762549 -11 11 C-13.0625 11.625 -13.0625 11.625 -15 12 C-16.32 10.02 -17.64 8.04 -19 6 C-16.3139714 4.20931427 -14.3373411 3.33944209 -11.3125 2.375 C-10.50425781 2.11460937 -9.69601563 1.85421875 -8.86328125 1.5859375 C-8.24839844 1.39257812 -7.63351563 1.19921875 -7 1 C-7 1.66 -7 2.32 -7 3 C-4.69 2.01 -2.38 1.02 0 0 Z " fill="#F52D37" transform="translate(68,254)"/>
<path d="M0 0 C-2.84561376 1.4960545 -5.70277224 2.9686297 -8.5625 4.4375 C-9.36236328 4.85837891 -10.16222656 5.27925781 -10.98632812 5.71289062 C-15.74276002 8.13964159 -19.66247107 9.60595424 -25 10 C-25 9.34 -25 8.68 -25 8 C-24.34 8 -23.68 8 -23 8 C-23.33 7.01 -23.66 6.02 -24 5 C-17.92560175 0.09846827 -17.92560175 0.09846827 -14.0625 -0.3125 C-13.381875 -0.209375 -12.70125 -0.10625 -12 0 C-12 0.99 -12 1.98 -12 3 C-11.608125 2.525625 -11.21625 2.05125 -10.8125 1.5625 C-7.36561865 -1.40894944 -4.16664724 -1.16772279 0 0 Z " fill="#E71018" transform="translate(150,228)"/>
<path d="M0 0 C0 7.92 0 15.84 0 24 C-0.33 24 -0.66 24 -1 24 C-1.33 17.07 -1.66 10.14 -2 3 C-3.98 3.99 -3.98 3.99 -6 5 C-6 5.99 -6 6.98 -6 8 C-7.50390625 9.578125 -7.50390625 9.578125 -9.5625 11.25 C-13.60594654 14.63035014 -17.32727213 18.22397665 -21 22 C-21 19.37886292 -20.68707555 17.49064888 -20 15 C-18.68 15 -17.36 15 -16 15 C-15.67 14.01 -15.34 13.02 -15 12 C-14.34 12 -13.68 12 -13 12 C-13.103125 11.236875 -13.20625 10.47375 -13.3125 9.6875 C-13.209375 8.800625 -13.10625 7.91375 -13 7 C-10.75 5.375 -10.75 5.375 -8 4 C-7.29875 3.46375 -6.5975 2.9275 -5.875 2.375 C-4.03192655 1.0234128 -2.38826682 0 0 0 Z " fill="#BC130E" transform="translate(361,58)"/>
<path d="M0 0 C0.66 0.33 1.32 0.66 2 1 C-15.20158103 17 -15.20158103 17 -19 17 C-19 17.66 -19 18.32 -19 19 C-20.65 19.66 -22.3 20.32 -24 21 C-23.47731534 18.23723823 -22.89130413 15.6739124 -22 13 C-20.67696283 12.6278958 -19.34262065 12.29369827 -18 12 C-17.67 11.34 -17.34 10.68 -17 10 C-14.35139573 9.40644386 -11.70802678 9.25790731 -9 9 C-9 8.34 -9 7.68 -9 7 C-8.34 7 -7.68 7 -7 7 C-7 6.34 -7 5.68 -7 5 C-6.34 5 -5.68 5 -5 5 C-5 4.34 -5 3.68 -5 3 C-2.625 1.3125 -2.625 1.3125 0 0 Z " fill="#CE1210" transform="translate(270,144)"/>
<path d="M0 0 C0.66 0.33 1.32 0.66 2 1 C2 5 2 5 0.6875 6.6875 C-1 8 -1 8 -4 9 C-4.70381157 10.98723268 -5.3711811 12.98777953 -6 15 C-6.99 15.495 -6.99 15.495 -8 16 C-8.28617187 16.59296875 -8.57234375 17.1859375 -8.8671875 17.796875 C-10.24175741 20.47017647 -11.96931843 22.16385654 -14.125 24.25 C-14.84945313 24.95640625 -15.57390625 25.6628125 -16.3203125 26.390625 C-16.87460937 26.92171875 -17.42890625 27.4528125 -18 28 C-18.66 27.67 -19.32 27.34 -20 27 C-19.01 25.515 -19.01 25.515 -18 24 C-17.34 24 -16.68 24 -16 24 C-16 22.68 -16 21.36 -16 20 C-15.01 19.67 -14.02 19.34 -13 19 C-12.9175 18.2575 -12.835 17.515 -12.75 16.75 C-11.85190201 13.45697405 -10.61583926 12.14023212 -8 10 C-7.34 10 -6.68 10 -6 10 C-6 9.01 -6 8.02 -6 7 C-4.7934375 6.2884375 -4.7934375 6.2884375 -3.5625 5.5625 C-0.8421105 4.26644144 -0.8421105 4.26644144 -0.1875 1.8125 C-0.0946875 0.9153125 -0.0946875 0.9153125 0 0 Z " fill="#E2140F" transform="translate(346,65)"/>
<path d="M0 0 C-1.125 2 -1.125 2 -3 4 C-6.1875 4.25 -6.1875 4.25 -9 4 C-9 4.66 -9 5.32 -9 6 C-10.65 6.33 -12.3 6.66 -14 7 C-13.34 6.67 -12.68 6.34 -12 6 C-12 5.34 -12 4.68 -12 4 C-13.45823212 3.9729957 -14.91660675 3.95360213 -16.375 3.9375 C-17.59316406 3.92009766 -17.59316406 3.92009766 -18.8359375 3.90234375 C-21.04937142 3.85533666 -21.04937142 3.85533666 -23 5 C-25.37402501 5.07116382 -27.75000677 5.08409085 -30.125 5.0625 C-31.40632813 5.05347656 -32.68765625 5.04445313 -34.0078125 5.03515625 C-35.48894531 5.01775391 -35.48894531 5.01775391 -37 5 C-37 4.67 -37 4.34 -37 4 C-32.52237431 3.32270451 -28.04269063 2.66009777 -23.5625 2 C-21.67241211 1.71382812 -21.67241211 1.71382812 -19.74414062 1.421875 C-13.08547616 0.44828437 -6.72922871 -0.23431482 0 0 Z " fill="#C01012" transform="translate(375,16)"/>
<path d="M0 0 C0.66 0.33 1.32 0.66 2 1 C1.67 1.66 1.34 2.32 1 3 C0.01 3 -0.98 3 -2 3 C-2.0928125 3.8353125 -2.0928125 3.8353125 -2.1875 4.6875 C-3.39439206 8.12250048 -5.1474715 9.78136672 -8 12 C-11.3125 11.8125 -11.3125 11.8125 -14 11 C-14 11.66 -14 12.32 -14 13 C-14.99 13 -15.98 13 -17 13 C-17 13.66 -17 14.32 -17 15 C-20.47307692 17.10865385 -20.47307692 17.10865385 -23.140625 16.55859375 C-23.75421875 16.37425781 -24.3678125 16.18992188 -25 16 C-24.03320312 15.43152344 -23.06640625 14.86304688 -22.0703125 14.27734375 C-14.49768751 9.7961029 -7.10852251 5.20176588 0 0 Z " fill="#BF0F19" transform="translate(185,186)"/>
<path d="M0 0 C0.99 0.99 1.98 1.98 3 3 C2.6875 5.6875 2.6875 5.6875 2 8 C1.01 8.33 0.02 8.66 -1 9 C-1 8.34 -1 7.68 -1 7 C-2.15628906 7.45052734 -2.15628906 7.45052734 -3.3359375 7.91015625 C-4.33882812 8.29042969 -5.34171875 8.67070312 -6.375 9.0625 C-7.37273437 9.44535156 -8.37046875 9.82820312 -9.3984375 10.22265625 C-12 11 -12 11 -14 10 C-9.38 6.7 -4.76 3.4 0 0 Z " fill="#CF1116" transform="translate(201,175)"/>
<path d="M0 0 C0.66 0.33 1.32 0.66 2 1 C0.625 2.5 0.625 2.5 -1 4 C-1.66 4 -2.32 4 -3 4 C-2.85904936 5.6254308 -2.71207913 7.25034051 -2.5625 8.875 C-2.44068359 10.23238281 -2.44068359 10.23238281 -2.31640625 11.6171875 C-2.13010715 14.01110861 -2.13010715 14.01110861 -1 16 C1.70599842 16.47597366 4.33595404 16.84093629 7.0625 17.125 C7.82111328 17.21136719 8.57972656 17.29773438 9.36132812 17.38671875 C11.23996986 17.59939517 13.11988636 17.80075459 15 18 C15 18.33 15 18.66 15 19 C12.77404152 19.27711526 10.54388779 19.52066929 8.3125 19.75 C7.07113281 19.88921875 5.82976562 20.0284375 4.55078125 20.171875 C0.32302457 19.96723111 -1.07522834 18.97360829 -4 16 C-5.73392465 12.5321507 -5.61299548 8.78231256 -5 5 C-2.5 1.9375 -2.5 1.9375 0 0 Z " fill="#AB1416" transform="translate(308,27)"/>
<path d="M0 0 C0.33 0.99 0.66 1.98 1 3 C0.360625 3.268125 -0.27875 3.53625 -0.9375 3.8125 C-3.33131686 4.88667752 -3.33131686 4.88667752 -4 8 C-4.99 8 -5.98 8 -7 8 C-7 9.65 -7 11.3 -7 13 C-10.6208201 14.01382963 -14.27811418 14.49897691 -18 15 C-14.31911357 11.15274582 -10.43814081 7.88614275 -6.1875 4.6875 C-5.59001953 4.23310547 -4.99253906 3.77871094 -4.37695312 3.31054688 C-2.92052412 2.20366083 -1.46062183 1.10134736 0 0 Z " fill="#C01012" transform="translate(221,160)"/>
<path d="M0 0 C-3.83774443 3.33716907 -8.38151872 5.02065088 -13 7 C-13.99 7.495 -13.99 7.495 -15 8 C-15.66 7.67 -16.32 7.34 -17 7 C-17.33 7.66 -17.66 8.32 -18 9 C-19.65 8.67 -21.3 8.34 -23 8 C-21.3125 6 -21.3125 6 -19 4 C-17.33333333 4 -15.66666667 4 -14 4 C-13.2575 3.34 -12.515 2.68 -11.75 2 C-7.88536388 -0.81064445 -4.62703015 -0.36290433 0 0 Z " fill="#C21A0E" transform="translate(129,237)"/>
<path d="M0 0 C0.99 0 1.98 0 3 0 C3 0.66 3 1.32 3 2 C2.34 2 1.68 2 1 2 C1 2.66 1 3.32 1 4 C0.34 4 -0.32 4 -1 4 C-1 4.66 -1 5.32 -1 6 C-1.66 6 -2.32 6 -3 6 C-3.66 7.32 -4.32 8.64 -5 10 C-5.66 10 -6.32 10 -7 10 C-7 10.66 -7 11.32 -7 12 C-8.49609375 13.4375 -8.49609375 13.4375 -10.4375 15 C-13.15188238 17.14525044 -13.15188238 17.14525044 -15 20 C-15.66 20 -16.32 20 -17 20 C-16.6875 18.125 -16.6875 18.125 -16 16 C-15.01 15.34 -14.02 14.68 -13 14 C-13 12.68 -13 11.36 -13 10 C-12.278125 9.938125 -11.55625 9.87625 -10.8125 9.8125 C-6.34992369 8.52331129 -3.98738996 5.40513186 -1.375 1.6875 C-0.92125 1.130625 -0.4675 0.57375 0 0 Z " fill="#B60C08" transform="translate(323,93)"/>
<path d="M0 0 C-1.27321884 4.56236752 -2.94847281 7.40996801 -6 11 C-6.680625 12.0725 -7.36125 13.145 -8.0625 14.25 C-10 17 -10 17 -13 18 C-12.71125 17.42378906 -12.4225 16.84757812 -12.125 16.25390625 C-11.41244341 14.82631892 -10.70363441 13.39684971 -10 11.96484375 C-9.67 11.29582031 -9.34 10.62679687 -9 9.9375 C-8.67 9.26589844 -8.34 8.59429687 -8 7.90234375 C-7 6 -7 6 -5 3 C-5.33 2.34 -5.66 1.68 -6 1 C-3 0 -3 0 0 0 Z " fill="#D90810" transform="translate(346,42)"/>
<path d="M0 0 C0 1.32 0 2.64 0 4 C-0.928125 4.12375 -0.928125 4.12375 -1.875 4.25 C-4.18437567 4.81258459 -4.18437567 4.81258459 -5.25 7.0625 C-5.4975 7.701875 -5.745 8.34125 -6 9 C-8.4375 8.1875 -8.4375 8.1875 -11 7 C-11.33 6.01 -11.66 5.02 -12 4 C-10.3767313 3.3291288 -8.75132422 2.66342971 -7.125 2 C-6.22007813 1.62875 -5.31515625 1.2575 -4.3828125 0.875 C-2 0 -2 0 0 0 Z " fill="#E8404D" transform="translate(61,255)"/>
<path d="M0 0 C-4.19285343 2.96567682 -8.2229361 5.03799161 -13 7 C-14.093125 7.556875 -15.18625 8.11375 -16.3125 8.6875 C-19 10 -19 10 -21 10 C-20.67 7.69 -20.34 5.38 -20 3 C-19.34 3 -18.68 3 -18 3 C-17.67 3.66 -17.34 4.32 -17 5 C-16.278125 4.690625 -15.55625 4.38125 -14.8125 4.0625 C-12.19692691 3.07439461 -9.74881018 2.4712246 -7 2 C-7 1.34 -7 0.68 -7 0 C-3.98968256 -0.93423645 -3.13349732 -1.04449911 0 0 Z " fill="#B20C11" transform="translate(171,217)"/>
<path d="M0 0 C2.31 0 4.62 0 7 0 C7.66 1.32 8.32 2.64 9 4 C8.34 4 7.68 4 7 4 C6.34 5.65 5.68 7.3 5 9 C2.5 6.75 2.5 6.75 0 4 C0 2.68 0 1.36 0 0 Z " fill="#17140F" transform="translate(410,377)"/>
<path d="M0 0 C3.39823327 0 5.82830159 0.82785059 9 2 C9.33 2.33 9.66 2.66 10 3 C12.18292774 3.23481693 14.37203174 3.41363323 16.5625 3.5625 C18.35880859 3.68818359 18.35880859 3.68818359 20.19140625 3.81640625 C21.11824219 3.87699219 22.04507812 3.93757813 23 4 C23 4.33 23 4.66 23 5 C15.08 5.495 15.08 5.495 7 6 C7 5.34 7 4.68 7 4 C5.3603125 4.061875 5.3603125 4.061875 3.6875 4.125 C0 4 0 4 -3 2 C-2.01 2 -1.02 2 0 2 C0 1.34 0 0.68 0 0 Z " fill="#D00D0B" transform="translate(316,41)"/>
<path d="M0 0 C1.32 0.33 2.64 0.66 4 1 C3.34 1 2.68 1 2 1 C1.67 1.99 1.34 2.98 1 4 C0.34 4 -0.32 4 -1 4 C-1 4.99 -1 5.98 -1 7 C-1.7425 6.95875 -2.485 6.9175 -3.25 6.875 C-7.21633419 7.05528792 -9.22157405 8.22157405 -12 11 C-12.66 10.34 -13.32 9.68 -14 9 C-11.64264116 6.27042661 -9.41866474 5.11106604 -6 4 C-5.01 4 -4.02 4 -3 4 C-3 3.34 -3 2.68 -3 2 C-2.01 2 -1.02 2 0 2 C0 1.34 0 0.68 0 0 Z " fill="#DB0D1A" transform="translate(171,197)"/>
<path d="M0 0 C0.99 0.33 1.98 0.66 3 1 C-3.27 5.29 -9.54 9.58 -16 14 C-16 10.80891518 -15.75291038 9.60837262 -14 7 C-11.7578125 5.83984375 -11.7578125 5.83984375 -9.125 4.9375 C-6.30379032 3.95639275 -4.22129705 3.17468687 -1.8671875 1.31640625 C-1.25101563 0.88199219 -0.63484375 0.44757813 0 0 Z " fill="#A81312" transform="translate(225,179)"/>
<path d="M0 0 C0 3.29223784 -0.50518132 5.08510357 -2 8 C-4.95277974 10.06694582 -6.23723611 10 -10 10 C-10.33 10.99 -10.66 11.98 -11 13 C-12.32 12.67 -13.64 12.34 -15 12 C-14.00097656 11.21753906 -13.00195312 10.43507812 -11.97265625 9.62890625 C-10.66924354 8.60680564 -9.36585961 7.58466832 -8.0625 6.5625 C-7.40314453 6.04623047 -6.74378906 5.52996094 -6.06445312 4.99804688 C-5.43603516 4.50498047 -4.80761719 4.01191406 -4.16015625 3.50390625 C-3.57886963 3.04830322 -2.99758301 2.5927002 -2.39868164 2.12329102 C-1.02763998 1.06382373 -1.02763998 1.06382373 0 0 Z " fill="#C41516" transform="translate(249,138)"/>
<path d="M0 0 C0.33 0 0.66 0 1 0 C1 4.62 1 9.24 1 14 C-0.65 14.33 -2.3 14.66 -4 15 C-4.33 13.35 -4.66 11.7 -5 10 C-4.34 9.67 -3.68 9.34 -3 9 C-2.66073053 6.66752239 -2.32759934 4.33414529 -2 2 C-1.34 1.34 -0.68 0.68 0 0 Z " fill="#E01203" transform="translate(380,75)"/>
<path d="M0 0 C0.99 0 1.98 0 3 0 C3.33 0.99 3.66 1.98 4 3 C2.03617993 4.50559539 0.21736634 5.89131683 -2 7 C-2.99 8.485 -2.99 8.485 -4 10 C-6.625 10.6875 -6.625 10.6875 -9 11 C-9 10.34 -9 9.68 -9 9 C-7.35 8.67 -5.7 8.34 -4 8 C-4 7.34 -4 6.68 -4 6 C-4.99 5.67 -5.98 5.34 -7 5 C-6.34 5 -5.68 5 -5 5 C-4.67 4.34 -4.34 3.68 -4 3 C-3.34 3 -2.68 3 -2 3 C-1.34 2.01 -0.68 1.02 0 0 Z " fill="#EB1729" transform="translate(85,244)"/>
<path d="M0 0 C0.66 1.32 1.32 2.64 2 4 C0.5459375 4.8971875 0.5459375 4.8971875 -0.9375 5.8125 C-4.23052042 7.71127509 -4.23052042 7.71127509 -5 11 C-6.98 11 -8.96 11 -11 11 C-7.6189962 6.86378916 -4.33409466 3.18683431 0 0 Z " fill="#D11717" transform="translate(262,127)"/>
<path d="M0 0 C-2.95507906 1.50647598 -5.91457341 3.00406365 -8.875 4.5 C-9.71675781 4.92925781 -10.55851563 5.35851562 -11.42578125 5.80078125 C-12.23144531 6.20683594 -13.03710938 6.61289063 -13.8671875 7.03125 C-14.61081543 7.40830078 -15.35444336 7.78535156 -16.12060547 8.17382812 C-18 9 -18 9 -20 9 C-20 8.34 -20 7.68 -20 7 C-17.49445655 5.28191307 -15.08480505 4.03276559 -12.25 2.9375 C-9.83767007 2.22002336 -9.83767007 2.22002336 -9 0 C-5.58777852 -1.01444422 -3.37896371 -0.95821359 0 0 Z " fill="#AF1310" transform="translate(150,228)"/>
<path d="M0 0 C1.32 0.33 2.64 0.66 4 1 C-7.33712984 10.59453303 -7.33712984 10.59453303 -14 14 C-14 13.01 -14 12.02 -14 11 C-13.05125 10.5875 -12.1025 10.175 -11.125 9.75 C-7.76368434 7.86766323 -7.56799275 7.24051835 -6 4 C-4.35636866 3.27840576 -2.68949614 2.60648579 -1 2 C-0.67 1.34 -0.34 0.68 0 0 Z " fill="#9E1414" transform="translate(242,165)"/>
<path d="M0 0 C3.875 1.875 3.875 1.875 5 3 C5.08737645 4.85369611 5.10698153 6.71067541 5.09765625 8.56640625 C5.09282227 10.2534668 5.09282227 10.2534668 5.08789062 11.97460938 C5.07951172 13.15861328 5.07113281 14.34261719 5.0625 15.5625 C5.05798828 16.75037109 5.05347656 17.93824219 5.04882812 19.16210938 C5.03699675 22.10812226 5.02051287 25.05403681 5 28 C4.67 28 4.34 28 4 28 C2.85635992 20.50280391 3.24332624 13.53181418 4 6 C3.34 6 2.68 6 2 6 C1.34 4.02 0.68 2.04 0 0 Z " fill="#C20B0E" transform="translate(376,17)"/>
<path d="M0 0 C0.99 0.33 1.98 0.66 3 1 C1.29592618 2.27653929 -0.41347351 3.5459704 -2.125 4.8125 C-3.07632813 5.52019531 -4.02765625 6.22789062 -5.0078125 6.95703125 C-7.91216966 8.94003229 -10.82158209 10.50510612 -14 12 C-14.33 11.34 -14.66 10.68 -15 10 C-10.25 7 -10.25 7 -8 7 C-8 6.34 -8 5.68 -8 5 C-5.67807281 3.45204854 -3.47761092 2.23880546 -1 1 C-0.67 0.67 -0.34 0.34 0 0 Z " fill="#AE0E13" transform="translate(204,193)"/>
<path d="M0 0 C0 3 0 3 -1.5 4.875 C-3.31754972 7.4498621 -3.25692834 8.91685988 -3 12 C-3.61875 12.28875 -4.2375 12.5775 -4.875 12.875 C-7.13325765 13.93720042 -7.13325765 13.93720042 -9 16 C-9.66 15.34 -10.32 14.68 -11 14 C-7.37 9.38 -3.74 4.76 0 0 Z " fill="#BB0D14" transform="translate(337,51)"/>
<path d="M0 0 C0.33 0.99 0.66 1.98 1 3 C-5 9 -5 9 -7.5625 9.0625 C-8.366875 9.041875 -9.17125 9.02125 -10 9 C-9.67 8.34 -9.34 7.68 -9 7 C-8.34 7 -7.68 7 -7 7 C-6.773125 6.401875 -6.54625 5.80375 -6.3125 5.1875 C-4.66188867 2.43648112 -2.8027919 1.47515363 0 0 Z " fill="#D60D1D" transform="translate(315,78)"/>
<path d="M0 0 C1.65 0 3.3 0 5 0 C2.21190445 2.97569363 -0.56414179 5.16048288 -4.0625 7.25 C-5.34833984 8.03117188 -5.34833984 8.03117188 -6.66015625 8.828125 C-9 10 -9 10 -12 10 C-11.67 9.01 -11.34 8.02 -11 7 C-10.01 7 -9.02 7 -8 7 C-8 6.34 -8 5.68 -8 5 C-5.36 4.01 -2.72 3.02 0 2 C0 1.34 0 0.68 0 0 Z " fill="#AC1016" transform="translate(184,205)"/>
<path d="M0 0 C0.66 0.33 1.32 0.66 2 1 C0.27860959 2.63396428 -1.45128792 4.25691274 -3.1875 5.875 C-3.91163086 6.56529297 -3.91163086 6.56529297 -4.65039062 7.26953125 C-7.59421881 9.99602984 -10.16905516 11.78138135 -14 13 C-13.67 12.01 -13.34 11.02 -13 10 C-10.9375 9.3125 -10.9375 9.3125 -9 9 C-9 8.34 -9 7.68 -9 7 C-8.34 7 -7.68 7 -7 7 C-7 6.34 -7 5.68 -7 5 C-6.34 5 -5.68 5 -5 5 C-5 4.34 -5 3.68 -5 3 C-2.625 1.3125 -2.625 1.3125 0 0 Z " fill="#AA130E" transform="translate(270,144)"/>
<path d="M0 0 C0.99 0.495 0.99 0.495 2 1 C2 1.99 2 2.98 2 4 C2.66 4 3.32 4 4 4 C4 6.64 4 9.28 4 12 C3.01 12.33 2.02 12.66 1 13 C-0.10228696 8.59085217 -0.07654536 4.51617599 0 0 Z " fill="#DA0E07" transform="translate(376,19)"/>
<path d="M0 0 C0.99 0.33 1.98 0.66 3 1 C0.58662205 5.82675589 -2.86062408 8.69984002 -7 12 C-7 11.01 -7 10.02 -7 9 C-6.34 9 -5.68 9 -5 9 C-5.33 8.01 -5.66 7.02 -6 6 C-4 5 -2 4 0 3 C0 2.01 0 1.02 0 0 Z " fill="#BB140A" transform="translate(280,132)"/>
<path d="M0 0 C0.66 0 1.32 0 2 0 C0.52278578 3.45201639 -1.43794001 5.64961936 -4.125 8.25 C-4.84945313 8.95640625 -5.57390625 9.6628125 -6.3203125 10.390625 C-6.87460937 10.92171875 -7.42890625 11.4528125 -8 12 C-8.66 11.67 -9.32 11.34 -10 11 C-9.34 10.01 -8.68 9.02 -8 8 C-7.34 8 -6.68 8 -6 8 C-6 6.68 -6 5.36 -6 4 C-4.35 3.67 -2.7 3.34 -1 3 C-0.67 2.01 -0.34 1.02 0 0 Z " fill="#B70B04" transform="translate(336,81)"/>
<path d="M0 0 C0.99 0.33 1.98 0.66 3 1 C2.01 1.33 1.02 1.66 0 2 C0 2.66 0 3.32 0 4 C-3.47325181 5.1577506 -6.36067448 5.06866652 -10 5 C-10.33 4.01 -10.66 3.02 -11 2 C-10.06027344 1.90912109 -10.06027344 1.90912109 -9.1015625 1.81640625 C-7.87566406 1.69072266 -7.87566406 1.69072266 -6.625 1.5625 C-5.81289063 1.48128906 -5.00078125 1.40007812 -4.1640625 1.31640625 C-1.95727195 1.10909886 -1.95727195 1.10909886 0 0 Z " fill="#A80F0C" transform="translate(377,89)"/>
<path d="M0 0 C0.515625 0.2475 1.03125 0.495 1.5625 0.75 C1.2325 1.74 0.9025 2.73 0.5625 3.75 C-1.72265625 4.69921875 -1.72265625 4.69921875 -4.5 5.4375 C-5.87865234 5.81455078 -5.87865234 5.81455078 -7.28515625 6.19921875 C-7.99542969 6.38097656 -8.70570312 6.56273437 -9.4375 6.75 C-9.4375 5.76 -9.4375 4.77 -9.4375 3.75 C-3.0375 -0.31153846 -3.0375 -0.31153846 0 0 Z " fill="#C51517" transform="translate(82.4375,253.25)"/>
<path d="M0 0 C0 0.66 0 1.32 0 2 C-1.32 2 -2.64 2 -4 2 C-4 2.66 -4 3.32 -4 4 C-7.63 4 -11.26 4 -15 4 C-12.3851183 2.25674553 -10.9946567 1.58412043 -8.0625 0.875 C-7.39347656 0.70742188 -6.72445313 0.53984375 -6.03515625 0.3671875 C-4 0 -4 0 0 0 Z " fill="#B41112" transform="translate(325,23)"/>
<path d="M0 0 C-3.37097383 1.49821059 -5.20442119 2 -9 2 C-9 2.66 -9 3.32 -9 4 C-10.98 4.33 -12.96 4.66 -15 5 C-14.67 4.01 -14.34 3.02 -14 2 C-11.85546875 1.015625 -11.85546875 1.015625 -9.1875 0.25 C-8.31480469 -0.01296875 -7.44210938 -0.2759375 -6.54296875 -0.546875 C-3.94565881 -1.00968292 -2.46623472 -0.85082224 0 0 Z " fill="#C91619" transform="translate(72,260)"/>
<path d="M0 0 C0.66 0.33 1.32 0.66 2 1 C-0.88341534 5.21422242 -3.04303419 6.76075855 -8 8 C-8.33 7.01 -8.66 6.02 -9 5 C-7.54735962 4.1361871 -6.0876837 3.28419546 -4.625 2.4375 C-3.40683594 1.72400391 -3.40683594 1.72400391 -2.1640625 0.99609375 C-1.44992188 0.66738281 -0.73578125 0.33867187 0 0 Z " fill="#DC1215" transform="translate(210,187)"/>
<path d="M0 0 C0.66 0.33 1.32 0.66 2 1 C0.40112446 2.48488441 -1.20428905 3.96273145 -2.8125 5.4375 C-3.70582031 6.26121094 -4.59914063 7.08492187 -5.51953125 7.93359375 C-8 10 -8 10 -11 11 C-11 10.34 -11 9.68 -11 9 C-10.34 9 -9.68 9 -9 9 C-8.67 8.01 -8.34 7.02 -8 6 C-7.34 6 -6.68 6 -6 6 C-6 5.34 -6 4.68 -6 4 C-4.03852126 2.61061923 -2.03833424 1.2739589 0 0 Z " fill="#9E100C" transform="translate(293,124)"/>
<path d="M0 0 C1.65 1.32 3.3 2.64 5 4 C5.66 3.34 6.32 2.68 7 2 C7 3.32 7 4.64 7 6 C1.46153846 6.36923077 1.46153846 6.36923077 -0.875 4.5 C-1.24625 4.005 -1.6175 3.51 -2 3 C-1.34 3 -0.68 3 0 3 C0 2.01 0 1.02 0 0 Z " fill="#100D0C" transform="translate(410,381)"/>
<path d="M0 0 C2.125 0.9375 2.125 0.9375 4 2 C4 2.99 4 3.98 4 5 C1.03 4.67 -1.94 4.34 -5 4 C-2 1 -2 1 0 0 Z " fill="#D7151F" transform="translate(139,215)"/>
<path d="M0 0 C0.99 0.33 1.98 0.66 3 1 C2.34 1 1.68 1 1 1 C0.9175 1.763125 0.835 2.52625 0.75 3.3125 C-0.14615794 6.52373261 -1.21611025 7.29374499 -4 9 C-4.33 7.35 -4.66 5.7 -5 4 C-2.6875 1.9375 -2.6875 1.9375 0 0 Z " fill="#D60F0A" transform="translate(287,124)"/>
<path d="M0 0 C0.66 0.33 1.32 0.66 2 1 C-0.70623013 5.68385984 -2.87323859 8.10532731 -8 10 C-8.66 9.67 -9.32 9.34 -10 9 C-6.7 6.03 -3.4 3.06 0 0 Z " fill="#B31115" transform="translate(276,114)"/>
<path d="M0 0 C0.66 0.33 1.32 0.66 2 1 C-0.25 3.5 -0.25 3.5 -3 6 C-4.32 6 -5.64 6 -7 6 C-7 6.66 -7 7.32 -7 8 C-8.32 7.67 -9.64 7.34 -11 7 C-9.21475351 5.80286983 -7.4215972 4.61752721 -5.625 3.4375 C-4.62726563 2.77621094 -3.62953125 2.11492187 -2.6015625 1.43359375 C-1.74304688 0.96050781 -0.88453125 0.48742187 0 0 Z " fill="#B41420" transform="translate(158,203)"/>
<path d="M0 0 C0.66 0.33 1.32 0.66 2 1 C2 6.28 2 11.56 2 17 C1.67 17 1.34 17 1 17 C0.67 13.04 0.34 9.08 0 5 C-0.66 5 -1.32 5 -2 5 C-1.34 3.35 -0.68 1.7 0 0 Z " fill="#D60D05" transform="translate(360,54)"/>
<path d="M0 0 C0.66 0.99 1.32 1.98 2 3 C0.7934375 3.433125 0.7934375 3.433125 -0.4375 3.875 C-3.1326468 4.73262568 -3.1326468 4.73262568 -4 7 C-6.0625 7.625 -6.0625 7.625 -8 8 C-8.66 7.01 -9.32 6.02 -10 5 C-9.236875 4.896875 -8.47375 4.79375 -7.6875 4.6875 C-4.77908957 3.94348803 -3.92670112 3.20194413 -2 1 C-1.34 0.67 -0.68 0.34 0 0 Z " fill="#D8313D" transform="translate(61,258)"/>
<path d="M0 0 C-1.5830577 4.2742558 -4.50568404 6.26531794 -8 9 C-7.67 8.38125 -7.34 7.7625 -7 7.125 C-5.85806765 5.08981656 -5.85806765 5.08981656 -6 3 C-6 2.34 -6 1.68 -6 1 C-3 0 -3 0 0 0 Z " fill="#C50B0A" transform="translate(346,42)"/>
<path d="M0 0 C1.65 0 3.3 0 5 0 C5.6875 1.8125 5.6875 1.8125 6 4 C4.5625 5.75 4.5625 5.75 3 7 C2.01 4.69 1.02 2.38 0 0 Z " fill="#28221D" transform="translate(411,379)"/>
<path d="M0 0 C0 0.66 0 1.32 0 2 C-0.99 2 -1.98 2 -3 2 C-3 2.66 -3 3.32 -3 4 C-6 6 -6 6 -9 6 C-9.66 5.67 -10.32 5.34 -11 5 C-9.54462432 4.16151196 -8.08559627 3.32936066 -6.625 2.5 C-5.81289062 2.0359375 -5.00078125 1.571875 -4.1640625 1.09375 C-2 0 -2 0 0 0 Z " fill="#C21725" transform="translate(112,231)"/>
<path d="M0 0 C0.33 0.66 0.66 1.32 1 2 C0.34 2 -0.32 2 -1 2 C-1.2475 2.61875 -1.495 3.2375 -1.75 3.875 C-3.20628639 6.35068687 -4.37812506 6.95125002 -7 8 C-5.98823563 4.59679258 -5.35156418 3.24274669 -2.375 1.1875 C-1.59125 0.795625 -0.8075 0.40375 0 0 Z " fill="#BF0E18" transform="translate(181,189)"/>
<path d="M0 0 C1.98 0 3.96 0 6 0 C6 0.66 6 1.32 6 2 C2.04 3.98 2.04 3.98 -2 6 C-2.33 5.01 -2.66 4.02 -3 3 C-2.01 2.67 -1.02 2.34 0 2 C0 1.34 0 0.68 0 0 Z " fill="#D3120F" transform="translate(222,177)"/>
<path d="M0 0 C1.32 0.33 2.64 0.66 4 1 C0.71195019 3.91227269 -1.59885603 5.49701212 -6 6 C-6 5.34 -6 4.68 -6 4 C-4.7934375 3.566875 -4.7934375 3.566875 -3.5625 3.125 C-0.8673532 2.26737432 -0.8673532 2.26737432 0 0 Z " fill="#BC1515" transform="translate(242,165)"/>
<path d="M0 0 C0 0.66 0 1.32 0 2 C-0.66 2 -1.32 2 -2 2 C-2 2.66 -2 3.32 -2 4 C-2.66 4 -3.32 4 -4 4 C-4 4.66 -4 5.32 -4 6 C-5.32 6.33 -6.64 6.66 -8 7 C-4.13157895 0 -4.13157895 0 0 0 Z " fill="#DE0F13" transform="translate(265,147)"/>
<path d="M0 0 C-0.66 1.32 -1.32 2.64 -2 4 C-3.9375 3.6875 -3.9375 3.6875 -6 3 C-6.33 2.01 -6.66 1.02 -7 0 C-3.86650268 -1.04449911 -3.01031744 -0.93423645 0 0 Z " fill="#E1535F" transform="translate(56,259)"/>
<path d="M0 0 C2.0625 0.4375 2.0625 0.4375 4 1 C3.01 1.495 3.01 1.495 2 2 C2 2.66 2 3.32 2 4 C-0.31 4.33 -2.62 4.66 -5 5 C-4.67 4.34 -4.34 3.68 -4 3 C-3.34 3 -2.68 3 -2 3 C-1.67 2.34 -1.34 1.68 -1 1 C-0.67 0.67 -0.34 0.34 0 0 Z " fill="#E51E26" transform="translate(71,255)"/>
<path d="M0 0 C-5.75 5 -5.75 5 -8 5 C-8 3.68 -8 2.36 -8 1 C-3.375 -1.125 -3.375 -1.125 0 0 Z " fill="#B90E0D" transform="translate(207,194)"/>
<path d="M0 0 C1.0725 0.2475 2.145 0.495 3.25 0.75 C-0.28411321 2.87046792 -3.69393835 3.28199289 -7.75 3.75 C-5.15187156 0.32047046 -4.43092205 -0.2953948 0 0 Z " fill="#CA1217" transform="translate(210.75,171.25)"/>
<path d="M0 0 C0 3 0 3 -2 6 C-4.625 6.1875 -4.625 6.1875 -7 6 C-4.9859524 2.9789286 -3.36720387 1.39332574 0 0 Z " fill="#D6101A" transform="translate(288,105)"/>
<path d="M0 0 C0.33 0.99 0.66 1.98 1 3 C0.01 4.485 0.01 4.485 -1 6 C-3.31 5.67 -5.62 5.34 -8 5 C-5.36095629 3.58622659 -2.92879371 2.62759865 0 2 C0 1.34 0 0.68 0 0 Z " fill="#E11513" transform="translate(341,39)"/>
<path d="M0 0 C0 0.99 0 1.98 0 3 C-2.31 3.66 -4.62 4.32 -7 5 C-7 4.01 -7 3.02 -7 2 C-2.25 0 -2.25 0 0 0 Z " fill="#D52535" transform="translate(68,252)"/>
<path d="M0 0 C0.33 0.99 0.66 1.98 1 3 C0.360625 3.28875 -0.27875 3.5775 -0.9375 3.875 C-3.15206079 4.82823451 -3.15206079 4.82823451 -4 7 C-5.32 6.67 -6.64 6.34 -8 6 C-5.36 4.02 -2.72 2.04 0 0 Z " fill="#B31517" transform="translate(221,160)"/>
<path d="M0 0 C-0.99 0.33 -1.98 0.66 -3 1 C-3 1.66 -3 2.32 -3 3 C-5.31 3.33 -7.62 3.66 -10 4 C-10 3.34 -10 2.68 -10 2 C-6.49223216 0.39644899 -3.85645121 -0.22036864 0 0 Z " fill="#AD1B19" transform="translate(110,245)"/>
<path d="M0 0 C0.99 0.33 1.98 0.66 3 1 C2.67 1.66 2.34 2.32 2 3 C-0.64860427 3.59355614 -3.29197322 3.74209269 -6 4 C-4.03617993 2.49440461 -2.21736634 1.10868317 0 0 Z " fill="#C41725" transform="translate(98,237)"/>
<path d="M0 0 C0.66 0 1.32 0 2 0 C2.66 1.32 3.32 2.64 4 4 C2.625 5.5 2.625 5.5 1 7 C0.34 7 -0.32 7 -1 7 C-0.67 4.69 -0.34 2.38 0 0 Z " fill="#C50D0E" transform="translate(151,220)"/>
<path d="M0 0 C1.32 0 2.64 0 4 0 C2.75453595 3.73639216 1.36595047 4.18756513 -2 6 C-2 4.68 -2 3.36 -2 2 C-1.34 2 -0.68 2 0 2 C0 1.34 0 0.68 0 0 Z " fill="#EC1110" transform="translate(354,57)"/>
<path d="M0 0 C0.33 0.66 0.66 1.32 1 2 C3.02463255 2.65213292 3.02463255 2.65213292 5 3 C4.34 3 3.68 3 3 3 C3 3.66 3 4.32 3 5 C1.35 5.33 -0.3 5.66 -2 6 C-2 5.34 -2 4.68 -2 4 C-1.34 4 -0.68 4 0 4 C-0.33 3.01 -0.66 2.02 -1 1 C-0.67 0.67 -0.34 0.34 0 0 Z " fill="#DB1111" transform="translate(127,232)"/>
<path d="M0 0 C0.33 0 0.66 0 1 0 C1 2.64 1 5.28 1 8 C0.67 8 0.34 8 0 8 C0 5.36 0 2.72 0 0 Z " fill="#000000" transform="translate(280,359)"/>
<path d="M0 0 C3 1 3 1 3 1 Z " fill="#000000" transform="translate(89,314)"/>
<path d="M0 0 C2 1 2 1 2 1 Z " fill="#000000" transform="translate(277,374)"/>
<path d="" fill="#000000" transform="translate(0,0)"/>
<path d="" fill="#000000" transform="translate(0,0)"/>
<path d="M0 0 C2 1 2 1 2 1 Z " fill="#000000" transform="translate(300,204)"/>
<path d="M0 0 C2 1 2 1 2 1 Z " fill="#000000" transform="translate(248,203)"/>
<path d="M0 0 C2 1 2 1 2 1 Z " fill="#000000" transform="translate(283,202)"/>
<path d="" fill="#000000" transform="translate(0,0)"/>
<path d="" fill="#000000" transform="translate(0,0)"/>
<path d="" fill="#000000" transform="translate(0,0)"/>
<path d="" fill="#000000" transform="translate(0,0)"/>
<path d="" fill="#000000" transform="translate(0,0)"/>
<path d="" fill="#000000" transform="translate(0,0)"/>
<path d="" fill="#000000" transform="translate(0,0)"/>
<path d="" fill="#000000" transform="translate(0,0)"/>
<path d="" fill="#000000" transform="translate(0,0)"/>
<path d="" fill="#000000" transform="translate(0,0)"/>
<path d="" fill="#000000" transform="translate(0,0)"/>
<path d="" fill="#000000" transform="translate(0,0)"/>
<path d="" fill="#000000" transform="translate(0,0)"/>
<path d="" fill="#000000" transform="translate(0,0)"/>
<path d="" fill="#000000" transform="translate(0,0)"/>
<path d="" fill="#000000" transform="translate(0,0)"/>
<path d="" fill="#000000" transform="translate(0,0)"/>
<path d="" fill="#000000" transform="translate(0,0)"/>
<path d="" fill="#000000" transform="translate(0,0)"/>
<path d="" fill="#000000" transform="translate(0,0)"/>
<path d="" fill="#000000" transform="translate(0,0)"/>
<path d="" fill="#000000" transform="translate(0,0)"/>
<path d="" fill="#000000" transform="translate(0,0)"/>
<path d="" fill="#800000" transform="translate(0,0)"/>
</svg>
